<?xml version="1.0" encoding="utf-8"?>
<!-- Generator: Adobe Illustrator 16.0.0, SVG Export Plug-In . SVG Version: 6.00 Build 0)  -->
<!DOCTYPE svg PUBLIC "-//W3C//DTD SVG 1.1//EN" "http://www.w3.org/Graphics/SVG/1.1/DTD/svg11.dtd">
<svg version="1.1" id="Layer_1" xmlns="http://www.w3.org/2000/svg" xmlns:xlink="http://www.w3.org/1999/xlink" x="0px" y="0px"
	 width="100px" height="100px" viewBox="0 0 100 100" enable-background="new 0 0 100 100" xml:space="preserve">
<g>
	<path d="M50,76.22c-13.51,0-24.5-10.991-24.5-24.5s10.99-24.5,24.5-24.5c13.51,0,24.5,10.991,24.5,24.5S63.51,76.22,50,76.22z
		 M50,29.22c-12.406,0-22.5,10.093-22.5,22.5c0,12.407,10.094,22.5,22.5,22.5c12.406,0,22.5-10.093,22.5-22.5
		C72.5,39.313,62.406,29.22,50,29.22z"/>
</g>
<path d="M58.174,50.72H51v-7.174c0-0.552-0.447-1-1-1c-0.553,0-1,0.448-1,1v7.174h-7.174c-0.552,0-1,0.448-1,1s0.448,1,1,1H49v7.173
	c0,0.553,0.447,1,1,1c0.553,0,1-0.447,1-1V52.72h7.174c0.553,0,1-0.448,1-1S58.727,50.72,58.174,50.72z"/>
</svg>
