<?xml version="1.0" encoding="utf-8"?>
<!-- Generator: Adobe Illustrator 16.0.0, SVG Export Plug-In . SVG Version: 6.00 Build 0)  -->
<!DOCTYPE svg PUBLIC "-//W3C//DTD SVG 1.1//EN" "http://www.w3.org/Graphics/SVG/1.1/DTD/svg11.dtd">
<svg version="1.1" id="Layer_1" xmlns="http://www.w3.org/2000/svg" xmlns:xlink="http://www.w3.org/1999/xlink" x="0px" y="0px"
	 width="100px" height="100px" viewBox="0 0 100 100" enable-background="new 0 0 100 100" xml:space="preserve">
<g>
	<path d="M50.186,31.779c-12.131,0-22,9.869-22,22s9.869,22,22,22c12.13,0,22-9.869,22-22S62.316,31.779,50.186,31.779z
		 M50.186,73.779c-11.028,0-20-8.972-20-20c0-11.028,8.972-20,20-20s20,8.972,20,20C70.186,64.808,61.214,73.779,50.186,73.779z"/>
	<path d="M60.176,43.911L49.392,54.694l-7.424-7.426c-0.392-0.391-1.023-0.391-1.414,0c-0.196,0.195-0.293,0.451-0.293,0.707
		c0,0.257,0.098,0.513,0.293,0.707l8.131,8.133c0.391,0.391,1.022,0.391,1.415,0l11.49-11.491c0.391-0.391,0.392-1.023,0-1.414
		C61.199,43.52,60.566,43.52,60.176,43.911z"/>
	<path d="M39.568,29.96c0-0.265-0.105-0.52-0.293-0.707c-2.106-2.106-4.907-3.267-7.886-3.267s-5.779,1.16-7.885,3.267
		c-2.106,2.106-3.266,4.906-3.267,7.885c0,2.979,1.16,5.779,3.267,7.886c0.195,0.195,0.451,0.293,0.707,0.293
		s0.512-0.098,0.707-0.293l14.357-14.356C39.463,30.48,39.568,30.226,39.568,29.96z M24.25,42.866
		c-1.304-1.619-2.012-3.618-2.012-5.727c0-2.444,0.952-4.742,2.681-6.471s4.027-2.681,6.471-2.681c2.108,0,4.107,0.708,5.727,2.012
		L24.25,42.866z"/>
	<path d="M76.497,29.254c-2.106-2.106-4.907-3.267-7.886-3.267s-5.778,1.16-7.885,3.267c-0.188,0.188-0.293,0.442-0.293,0.707
		c0,0.265,0.104,0.52,0.293,0.707l14.356,14.356c0.194,0.195,0.451,0.293,0.707,0.293s0.513-0.098,0.707-0.293
		c2.106-2.106,3.267-4.907,3.267-7.886C79.764,34.161,78.604,31.36,76.497,29.254z M75.751,42.866L62.885,29.999
		c1.619-1.304,3.619-2.012,5.727-2.012c2.445,0,4.744,0.952,6.472,2.681s2.681,4.026,2.681,6.471
		C77.764,39.247,77.055,41.247,75.751,42.866z"/>
</g>
</svg>
