<?xml version="1.0" encoding="utf-8"?>
<!-- Generator: Adobe Illustrator 16.0.0, SVG Export Plug-In . SVG Version: 6.00 Build 0)  -->
<!DOCTYPE svg PUBLIC "-//W3C//DTD SVG 1.1//EN" "http://www.w3.org/Graphics/SVG/1.1/DTD/svg11.dtd">
<svg version="1.1" id="Layer_1" xmlns="http://www.w3.org/2000/svg" xmlns:xlink="http://www.w3.org/1999/xlink" x="0px" y="0px"
	 width="100px" height="100px" viewBox="0 0 100 100" enable-background="new 0 0 100 100" xml:space="preserve">
<g>
	<path d="M40.461,52.293c-0.391,0.391-0.391,1.022,0,1.414l8.833,8.832c0.092,0.094,0.203,0.165,0.324,0.217
		c0.123,0.051,0.252,0.077,0.384,0.077c0.131,0,0.26-0.026,0.383-0.077c0.121-0.052,0.231-0.123,0.324-0.217l8.834-8.832
		c0.39-0.392,0.39-1.025,0-1.414c-0.392-0.392-1.023-0.392-1.414,0l-7.127,7.127V23.833c0-0.553-0.447-1-1-1c-0.554,0-1,0.447-1,1
		V59.42l-7.126-7.127C41.484,51.901,40.853,51.901,40.461,52.293z"/>
	<path d="M70.334,34.499H59.835c-0.553,0-1,0.448-1,1s0.447,1,1,1h9.499v38.668H30.667V36.499h9.795c0.552,0,1-0.448,1-1
		s-0.448-1-1-1H29.667c-0.552,0-1,0.448-1,1v40.668c0,0.553,0.448,1,1,1h40.667c0.553,0,1-0.447,1-1V35.499
		C71.334,34.947,70.887,34.499,70.334,34.499z"/>
</g>
</svg>
