<?xml version="1.0" encoding="utf-8"?>
<!-- Generator: Adobe Illustrator 16.0.0, SVG Export Plug-In . SVG Version: 6.00 Build 0)  -->
<!DOCTYPE svg PUBLIC "-//W3C//DTD SVG 1.1//EN" "http://www.w3.org/Graphics/SVG/1.1/DTD/svg11.dtd">
<svg version="1.1" id="Layer_1" xmlns="http://www.w3.org/2000/svg" xmlns:xlink="http://www.w3.org/1999/xlink" x="0px" y="0px"
	 width="100px" height="100px" viewBox="0 0 100 100" enable-background="new 0 0 100 100" xml:space="preserve">
<g>
	<path d="M60.055,49.176c0.392-0.391,0.392-1.022,0-1.414l-8.833-8.832c-0.092-0.094-0.203-0.165-0.323-0.217
		c-0.123-0.051-0.253-0.077-0.384-0.077c-0.131,0-0.26,0.026-0.383,0.077c-0.121,0.052-0.231,0.123-0.324,0.217l-8.834,8.832
		c-0.39,0.392-0.39,1.025,0,1.414c0.392,0.392,1.023,0.392,1.414,0l7.127-7.127v35.587c0,0.553,0.447,1,1,1c0.554,0,1-0.447,1-1
		V42.049l7.126,7.127C59.032,49.567,59.664,49.567,60.055,49.176z"/>
	<path d="M30.182,66.97h10.499c0.553,0,1-0.447,1-1c0-0.552-0.447-1-1-1h-9.499V26.302H69.85V64.97h-9.795c-0.552,0-1,0.448-1,1
		c0,0.553,0.448,1,1,1H70.85c0.553,0,1-0.447,1-1V25.302c0-0.553-0.447-1-1-1H30.182c-0.553,0-1,0.447-1,1V65.97
		C29.182,66.522,29.629,66.97,30.182,66.97z"/>
</g>
</svg>
