<?xml version="1.0" encoding="utf-8"?>
<!-- Generator: Adobe Illustrator 16.0.0, SVG Export Plug-In . SVG Version: 6.00 Build 0)  -->
<!DOCTYPE svg PUBLIC "-//W3C//DTD SVG 1.1//EN" "http://www.w3.org/Graphics/SVG/1.1/DTD/svg11.dtd">
<svg version="1.1" id="Layer_1" xmlns="http://www.w3.org/2000/svg" xmlns:xlink="http://www.w3.org/1999/xlink" x="0px" y="0px"
	 width="100px" height="100px" viewBox="0 0 100 100" enable-background="new 0 0 100 100" xml:space="preserve">
<g>
	<path d="M76.43,30.493H28.096c-0.552,0-1,0.448-1,1v46.34c0,0.553,0.448,1,1,1H76.43c0.553,0,1-0.447,1-1v-46.34
		C77.43,30.941,76.982,30.493,76.43,30.493z M75.43,76.833H29.096v-44.34H75.43V76.833z"/>
	<path d="M39.025,42.281v6.317c0,7.299,5.938,13.237,13.237,13.237S65.5,55.896,65.5,48.598v-6.146c0.882-0.387,1.5-1.266,1.5-2.288
		c0-1.378-1.121-2.5-2.5-2.5s-2.5,1.122-2.5,2.5c0,1.022,0.618,1.901,1.5,2.288v6.146c0,6.196-5.041,11.237-11.237,11.237
		s-11.237-5.041-11.237-11.237v-6.317c0.795-0.377,1.35-1.181,1.35-2.118c0-1.295-1.054-2.35-2.35-2.35s-2.35,1.054-2.35,2.35
		C37.676,41.1,38.23,41.904,39.025,42.281z"/>
</g>
</svg>
