<?xml version="1.0" encoding="utf-8"?>
<!-- Generator: Adobe Illustrator 16.0.0, SVG Export Plug-In . SVG Version: 6.00 Build 0)  -->
<!DOCTYPE svg PUBLIC "-//W3C//DTD SVG 1.1//EN" "http://www.w3.org/Graphics/SVG/1.1/DTD/svg11.dtd">
<svg version="1.1" id="Layer_1" xmlns="http://www.w3.org/2000/svg" xmlns:xlink="http://www.w3.org/1999/xlink" x="0px" y="0px"
	 width="100px" height="100px" viewBox="0 0 100 100" enable-background="new 0 0 100 100" xml:space="preserve">
<path d="M65.545,28.175c-0.001,0-0.002-0.001-0.003-0.001c-4.884-3.793-10.736-5.798-16.922-5.798c-6.187,0-12.04,2.006-16.926,5.8
	C24.895,33.456,20.995,41.411,20.995,50c0,8.589,3.9,16.544,10.699,21.825c4.886,3.794,10.739,5.8,16.926,5.8
	c6.187,0,12.04-2.006,16.925-5.8c6.8-5.281,10.7-13.236,10.7-21.825C76.245,41.411,72.345,33.456,65.545,28.175z M74.218,49h-18.57
	c0.006-0.154,0.005-0.31,0.013-0.463c0.01-0.16,0.028-0.319,0.04-0.479c0.024-0.323,0.047-0.647,0.083-0.967
	c0.021-0.192,0.053-0.382,0.079-0.573c0.038-0.286,0.074-0.572,0.122-0.855c0.034-0.202,0.078-0.401,0.117-0.602
	c0.053-0.269,0.103-0.539,0.163-0.805c0.047-0.206,0.103-0.408,0.154-0.612c0.065-0.258,0.129-0.516,0.202-0.771
	c0.06-0.206,0.128-0.409,0.191-0.613c0.079-0.248,0.155-0.497,0.241-0.743c0.071-0.205,0.151-0.407,0.229-0.61
	c0.091-0.24,0.18-0.48,0.278-0.716c0.083-0.202,0.174-0.401,0.263-0.601c0.104-0.232,0.207-0.466,0.317-0.695
	c0.095-0.197,0.196-0.392,0.297-0.586c0.116-0.226,0.231-0.452,0.354-0.674c0.106-0.193,0.219-0.382,0.33-0.572
	c0.129-0.219,0.257-0.437,0.393-0.652c0.117-0.187,0.24-0.371,0.362-0.556c0.141-0.211,0.282-0.421,0.429-0.628
	c0.129-0.182,0.262-0.361,0.396-0.539c0.152-0.203,0.305-0.404,0.463-0.602c0.14-0.175,0.284-0.349,0.429-0.521
	c0.163-0.194,0.328-0.386,0.497-0.576c0.15-0.168,0.304-0.334,0.459-0.499c0.175-0.185,0.352-0.369,0.531-0.549
	c0.162-0.162,0.326-0.321,0.492-0.479c0.185-0.175,0.372-0.348,0.562-0.519c0.173-0.154,0.347-0.306,0.523-0.457
	c0.093-0.079,0.188-0.155,0.282-0.232C70.605,34.934,73.938,41.682,74.218,49z M63.188,29.106c-0.172,0.148-0.337,0.302-0.504,0.454
	c-0.217,0.196-0.434,0.392-0.644,0.593c-0.168,0.162-0.33,0.33-0.493,0.496c-0.198,0.201-0.396,0.4-0.587,0.606
	c-0.161,0.174-0.316,0.352-0.473,0.529c-0.183,0.207-0.364,0.414-0.54,0.625c-0.152,0.184-0.3,0.371-0.447,0.558
	c-0.168,0.213-0.334,0.427-0.495,0.645c-0.143,0.192-0.28,0.388-0.418,0.583c-0.154,0.221-0.307,0.443-0.454,0.667
	c-0.132,0.199-0.26,0.4-0.385,0.603c-0.142,0.228-0.28,0.458-0.415,0.69c-0.12,0.206-0.237,0.413-0.352,0.622
	c-0.128,0.235-0.253,0.473-0.374,0.712c-0.108,0.212-0.215,0.424-0.316,0.639c-0.116,0.243-0.227,0.488-0.335,0.734
	c-0.095,0.217-0.189,0.433-0.279,0.652c-0.104,0.251-0.199,0.505-0.295,0.759c-0.082,0.219-0.165,0.438-0.242,0.66
	c-0.09,0.26-0.172,0.523-0.255,0.787c-0.068,0.221-0.14,0.441-0.203,0.664c-0.077,0.271-0.145,0.543-0.214,0.816
	c-0.056,0.221-0.114,0.44-0.164,0.662c-0.063,0.282-0.117,0.567-0.172,0.853c-0.042,0.217-0.088,0.433-0.125,0.651
	c-0.051,0.302-0.09,0.607-0.13,0.912c-0.027,0.205-0.061,0.407-0.084,0.613c-0.038,0.343-0.063,0.689-0.088,1.034
	c-0.013,0.171-0.032,0.34-0.042,0.512c-0.01,0.187-0.011,0.376-0.017,0.563H49.62V24.413c4.947,0.188,9.637,1.75,13.682,4.59
	C63.263,29.036,63.227,29.072,63.188,29.106z M47.62,24.413V49h-4.026c-0.007-0.188-0.007-0.376-0.018-0.563
	c-0.009-0.171-0.029-0.341-0.042-0.512c-0.025-0.346-0.05-0.691-0.088-1.034c-0.022-0.204-0.055-0.404-0.082-0.606
	c-0.042-0.308-0.081-0.616-0.132-0.92c-0.036-0.214-0.081-0.425-0.122-0.638c-0.056-0.29-0.11-0.579-0.175-0.866
	c-0.049-0.218-0.107-0.433-0.161-0.649c-0.07-0.278-0.139-0.556-0.218-0.832c-0.062-0.217-0.131-0.431-0.198-0.646
	c-0.084-0.27-0.169-0.539-0.261-0.806c-0.074-0.215-0.155-0.427-0.234-0.64c-0.098-0.262-0.198-0.523-0.304-0.782
	c-0.086-0.211-0.178-0.42-0.27-0.629c-0.112-0.254-0.226-0.508-0.345-0.759c-0.099-0.207-0.202-0.412-0.305-0.616
	c-0.125-0.247-0.254-0.492-0.387-0.735c-0.11-0.202-0.224-0.402-0.339-0.601c-0.139-0.24-0.282-0.478-0.429-0.713
	c-0.122-0.196-0.245-0.39-0.371-0.583c-0.153-0.232-0.31-0.461-0.47-0.689c-0.132-0.188-0.265-0.376-0.402-0.562
	c-0.166-0.225-0.338-0.446-0.511-0.666c-0.143-0.181-0.285-0.362-0.433-0.54c-0.18-0.217-0.367-0.429-0.554-0.642
	c-0.152-0.172-0.304-0.345-0.46-0.514c-0.195-0.21-0.396-0.414-0.598-0.619c-0.161-0.162-0.319-0.326-0.483-0.485
	c-0.211-0.204-0.43-0.4-0.648-0.598c-0.167-0.151-0.331-0.305-0.502-0.452c-0.039-0.034-0.075-0.069-0.114-0.103
	C37.982,26.162,42.673,24.601,47.62,24.413z M32.299,30.253c0.097,0.08,0.195,0.157,0.29,0.238c0.172,0.146,0.342,0.294,0.509,0.444
	c0.195,0.174,0.387,0.351,0.575,0.53c0.163,0.155,0.324,0.311,0.482,0.469c0.183,0.183,0.362,0.369,0.539,0.557
	c0.153,0.163,0.305,0.327,0.453,0.493c0.171,0.192,0.338,0.386,0.503,0.583c0.143,0.17,0.286,0.341,0.424,0.515
	c0.159,0.2,0.313,0.402,0.466,0.606c0.133,0.177,0.266,0.355,0.394,0.536c0.147,0.207,0.288,0.417,0.428,0.628
	c0.123,0.185,0.246,0.369,0.364,0.557c0.134,0.214,0.263,0.432,0.391,0.65c0.112,0.19,0.225,0.381,0.332,0.574
	c0.123,0.222,0.238,0.446,0.354,0.671c0.101,0.196,0.203,0.392,0.298,0.59c0.11,0.228,0.212,0.46,0.315,0.691
	c0.089,0.201,0.181,0.401,0.265,0.604c0.098,0.236,0.187,0.476,0.277,0.715c0.077,0.204,0.157,0.406,0.229,0.612
	c0.085,0.244,0.162,0.492,0.24,0.739c0.065,0.206,0.133,0.41,0.193,0.618c0.073,0.252,0.135,0.509,0.2,0.764
	c0.052,0.206,0.109,0.411,0.156,0.619c0.061,0.266,0.11,0.535,0.163,0.804c0.039,0.201,0.083,0.4,0.118,0.602
	c0.048,0.284,0.084,0.571,0.123,0.857c0.026,0.19,0.057,0.38,0.079,0.571c0.036,0.321,0.059,0.646,0.083,0.969
	c0.012,0.159,0.031,0.317,0.04,0.477c0.009,0.153,0.007,0.309,0.013,0.463h-18.57C23.302,41.682,26.633,34.934,32.299,30.253z
	 M23.022,51h18.57c-0.006,0.154-0.004,0.31-0.013,0.463c-0.009,0.159-0.027,0.316-0.039,0.475c-0.024,0.325-0.047,0.649-0.083,0.972
	c-0.021,0.19-0.053,0.379-0.079,0.568c-0.039,0.287-0.075,0.575-0.124,0.859c-0.034,0.202-0.078,0.4-0.117,0.601
	c-0.053,0.27-0.102,0.539-0.163,0.806c-0.047,0.208-0.104,0.412-0.156,0.618c-0.065,0.255-0.127,0.511-0.2,0.764
	c-0.06,0.208-0.128,0.413-0.193,0.619c-0.078,0.247-0.154,0.494-0.239,0.738c-0.072,0.206-0.152,0.409-0.229,0.613
	c-0.09,0.238-0.179,0.477-0.276,0.712c-0.085,0.205-0.177,0.407-0.268,0.61c-0.102,0.229-0.203,0.458-0.312,0.685
	c-0.098,0.202-0.201,0.4-0.304,0.6c-0.114,0.222-0.227,0.442-0.347,0.66c-0.109,0.198-0.225,0.393-0.34,0.588
	c-0.125,0.213-0.25,0.426-0.381,0.635c-0.121,0.193-0.248,0.383-0.374,0.572c-0.137,0.205-0.274,0.41-0.417,0.611
	c-0.133,0.188-0.27,0.371-0.408,0.555c-0.148,0.197-0.297,0.394-0.451,0.586c-0.144,0.181-0.292,0.358-0.44,0.535
	c-0.159,0.189-0.32,0.377-0.484,0.562C35,67.18,34.842,67.351,34.682,67.52c-0.17,0.181-0.342,0.359-0.518,0.535
	c-0.165,0.166-0.333,0.328-0.502,0.49c-0.181,0.172-0.366,0.342-0.553,0.51c-0.174,0.156-0.352,0.311-0.531,0.463
	c-0.091,0.078-0.186,0.153-0.278,0.229C26.634,65.066,23.302,58.318,23.022,51z M34.052,70.895c0.17-0.147,0.333-0.3,0.5-0.45
	c0.219-0.198,0.438-0.396,0.65-0.601c0.165-0.158,0.322-0.322,0.482-0.484c0.202-0.204,0.404-0.408,0.599-0.618
	c0.157-0.169,0.309-0.343,0.461-0.516c0.187-0.211,0.373-0.423,0.552-0.64c0.148-0.179,0.292-0.361,0.436-0.543
	c0.172-0.219,0.342-0.438,0.507-0.66c0.139-0.188,0.273-0.378,0.407-0.568c0.159-0.226,0.314-0.452,0.466-0.683
	c0.128-0.194,0.252-0.391,0.375-0.589c0.145-0.232,0.286-0.468,0.423-0.704c0.118-0.202,0.232-0.405,0.344-0.61
	c0.131-0.239,0.257-0.48,0.381-0.724c0.106-0.208,0.21-0.417,0.311-0.628c0.118-0.247,0.23-0.496,0.34-0.747
	c0.094-0.212,0.187-0.425,0.275-0.64c0.104-0.255,0.202-0.512,0.299-0.77c0.081-0.217,0.163-0.434,0.239-0.652
	c0.091-0.262,0.174-0.527,0.257-0.793c0.068-0.219,0.139-0.437,0.202-0.657c0.077-0.272,0.146-0.547,0.215-0.821
	c0.055-0.22,0.114-0.438,0.164-0.658c0.064-0.284,0.118-0.571,0.173-0.858c0.042-0.215,0.087-0.429,0.124-0.645
	c0.051-0.303,0.09-0.608,0.131-0.914c0.027-0.204,0.06-0.407,0.083-0.613c0.038-0.341,0.063-0.685,0.088-1.029
	c0.013-0.172,0.032-0.343,0.042-0.516c0.01-0.188,0.011-0.376,0.018-0.563h4.026v24.588c-4.946-0.188-9.637-1.75-13.682-4.591
	C33.977,70.964,34.013,70.928,34.052,70.895z M49.62,75.588V51h4.027c0.006,0.188,0.007,0.376,0.017,0.563
	c0.01,0.171,0.029,0.341,0.042,0.512c0.025,0.346,0.05,0.691,0.088,1.034c0.023,0.205,0.057,0.408,0.084,0.612
	c0.04,0.305,0.079,0.61,0.13,0.912c0.037,0.219,0.083,0.435,0.125,0.651c0.055,0.285,0.108,0.57,0.172,0.853
	c0.05,0.222,0.108,0.441,0.164,0.662c0.069,0.272,0.137,0.546,0.214,0.816c0.063,0.223,0.135,0.443,0.203,0.664
	c0.083,0.263,0.165,0.525,0.255,0.786c0.077,0.222,0.16,0.44,0.242,0.66c0.096,0.254,0.191,0.508,0.295,0.759
	c0.09,0.219,0.185,0.436,0.28,0.652c0.107,0.246,0.218,0.491,0.334,0.733c0.103,0.216,0.209,0.429,0.316,0.642
	c0.121,0.237,0.245,0.474,0.373,0.709c0.115,0.21,0.233,0.418,0.354,0.625c0.134,0.231,0.271,0.46,0.412,0.687
	c0.127,0.204,0.256,0.406,0.388,0.607c0.146,0.223,0.298,0.442,0.451,0.661c0.139,0.198,0.278,0.396,0.422,0.59
	c0.159,0.215,0.324,0.427,0.49,0.638c0.149,0.189,0.298,0.378,0.452,0.564c0.174,0.208,0.353,0.412,0.532,0.616
	c0.159,0.181,0.317,0.361,0.481,0.538c0.187,0.201,0.38,0.396,0.573,0.592c0.168,0.172,0.335,0.344,0.509,0.512
	c0.202,0.194,0.411,0.383,0.62,0.571c0.175,0.159,0.348,0.321,0.528,0.477c0.037,0.031,0.071,0.065,0.108,0.098
	C59.257,73.838,54.565,75.399,49.62,75.588z M64.939,69.747c-0.094-0.077-0.188-0.153-0.281-0.231
	c-0.177-0.15-0.352-0.303-0.523-0.457c-0.191-0.171-0.38-0.345-0.564-0.521c-0.165-0.157-0.328-0.315-0.488-0.476
	c-0.182-0.182-0.359-0.367-0.536-0.554c-0.153-0.163-0.305-0.327-0.453-0.493c-0.172-0.192-0.339-0.388-0.505-0.585
	c-0.142-0.169-0.283-0.339-0.421-0.511c-0.16-0.202-0.316-0.407-0.471-0.613c-0.131-0.175-0.262-0.35-0.388-0.527
	c-0.149-0.211-0.294-0.426-0.437-0.641c-0.12-0.181-0.24-0.36-0.355-0.544c-0.138-0.219-0.269-0.442-0.399-0.665
	c-0.109-0.186-0.219-0.371-0.323-0.56c-0.125-0.227-0.243-0.457-0.361-0.687c-0.098-0.191-0.197-0.381-0.29-0.574
	c-0.113-0.234-0.218-0.473-0.323-0.71c-0.087-0.195-0.176-0.39-0.258-0.587c-0.1-0.241-0.191-0.486-0.284-0.731
	c-0.074-0.198-0.152-0.396-0.223-0.596c-0.088-0.25-0.166-0.504-0.245-0.757c-0.063-0.2-0.13-0.398-0.188-0.6
	c-0.074-0.259-0.139-0.521-0.205-0.783c-0.051-0.2-0.106-0.398-0.152-0.601c-0.062-0.27-0.111-0.542-0.164-0.814
	c-0.038-0.197-0.082-0.394-0.116-0.593c-0.048-0.285-0.084-0.574-0.123-0.862c-0.025-0.188-0.057-0.376-0.078-0.566
	c-0.036-0.322-0.06-0.647-0.083-0.972c-0.012-0.158-0.03-0.315-0.04-0.475c-0.008-0.153-0.007-0.309-0.013-0.463h18.57
	C73.938,58.318,70.605,65.066,64.939,69.747z"/>
</svg>
