<?xml version="1.0" encoding="utf-8"?>
<!-- Generator: Adobe Illustrator 16.0.0, SVG Export Plug-In . SVG Version: 6.00 Build 0)  -->
<!DOCTYPE svg PUBLIC "-//W3C//DTD SVG 1.1//EN" "http://www.w3.org/Graphics/SVG/1.1/DTD/svg11.dtd">
<svg version="1.1" id="Layer_1" xmlns="http://www.w3.org/2000/svg" xmlns:xlink="http://www.w3.org/1999/xlink" x="0px" y="0px"
	 width="100px" height="100px" viewBox="0 0 100 100" enable-background="new 0 0 100 100" xml:space="preserve">
<path d="M78.25,49.042h-2.125v-6.063c0-0.552-0.447-1-1-1H22.629c-0.552,0-1,0.448-1,1v23.625c0,0.553,0.448,1,1,1h52.496
	c0.553,0,1-0.447,1-1v-6.063h2.125c0.553,0,1-0.447,1-1v-9.5C79.25,49.489,78.803,49.042,78.25,49.042z M23.629,43.979h24.248
	v21.625H23.629V43.979z M74.125,65.604H49.877V43.979h24.248v6.063v9.5V65.604z M77.25,58.542h-1.125v-7.501h1.125V58.542z"/>
</svg>
