<?xml version="1.0" encoding="utf-8"?>
<!-- Generator: Adobe Illustrator 16.0.0, SVG Export Plug-In . SVG Version: 6.00 Build 0)  -->
<!DOCTYPE svg PUBLIC "-//W3C//DTD SVG 1.1//EN" "http://www.w3.org/Graphics/SVG/1.1/DTD/svg11.dtd">
<svg version="1.1" id="Layer_1" xmlns="http://www.w3.org/2000/svg" xmlns:xlink="http://www.w3.org/1999/xlink" x="0px" y="0px"
	 width="100px" height="100px" viewBox="0 0 100 100" enable-background="new 0 0 100 100" xml:space="preserve">
<g>
	<path d="M69.5,77.834h-39c-0.552,0-1-0.447-1-1V26.067c0-0.552,0.448-1,1-1h39c0.553,0,1,0.448,1,1v50.767
		C70.5,77.387,70.053,77.834,69.5,77.834z M31.5,75.834h37V27.067h-37V75.834z"/>
</g>
<g>
	<g>
		<path d="M54.14,74.131h-8.278c-0.552,0-1-0.447-1-1v-8.278c0-0.553,0.448-1,1-1h8.278c0.553,0,1,0.447,1,1v8.278
			C55.14,73.684,54.692,74.131,54.14,74.131z M46.861,72.131h6.278v-6.278h-6.278V72.131z"/>
	</g>
	<g>
		<path d="M54.14,62.437h-8.278c-0.552,0-1-0.447-1-1v-8.278c0-0.553,0.448-1,1-1h8.278c0.553,0,1,0.447,1,1v8.278
			C55.14,61.989,54.692,62.437,54.14,62.437z M46.861,60.437h6.278v-6.278h-6.278V60.437z"/>
	</g>
	<g>
		<path d="M54.14,50.742h-8.278c-0.552,0-1-0.448-1-1v-8.278c0-0.552,0.448-1,1-1h8.278c0.553,0,1,0.448,1,1v8.278
			C55.14,50.294,54.692,50.742,54.14,50.742z M46.861,48.742h6.278v-6.278h-6.278V48.742z"/>
	</g>
	<g>
		<path d="M65.833,74.131h-8.279c-0.553,0-1-0.447-1-1v-8.278c0-0.553,0.447-1,1-1h8.279c0.553,0,1,0.447,1,1v8.278
			C66.833,73.684,66.386,74.131,65.833,74.131z M58.554,72.131h6.279v-6.278h-6.279V72.131z"/>
	</g>
	<g>
		<path d="M65.833,62.437h-8.279c-0.553,0-1-0.447-1-1v-8.278c0-0.553,0.447-1,1-1h8.279c0.553,0,1,0.447,1,1v8.278
			C66.833,61.989,66.386,62.437,65.833,62.437z M58.554,60.437h6.279v-6.278h-6.279V60.437z"/>
	</g>
	<g>
		<path d="M65.833,50.742h-8.279c-0.553,0-1-0.448-1-1v-8.278c0-0.552,0.447-1,1-1h8.279c0.553,0,1,0.448,1,1v8.278
			C66.833,50.294,66.386,50.742,65.833,50.742z M58.554,48.742h6.279v-6.278h-6.279V48.742z"/>
	</g>
	<g>
		<path d="M42.444,74.131h-8.278c-0.552,0-1-0.447-1-1v-8.278c0-0.553,0.448-1,1-1h8.278c0.552,0,1,0.447,1,1v8.278
			C43.444,73.684,42.997,74.131,42.444,74.131z M35.166,72.131h6.278v-6.278h-6.278V72.131z"/>
	</g>
	<g>
		<path d="M42.444,62.437h-8.278c-0.552,0-1-0.447-1-1v-8.278c0-0.553,0.448-1,1-1h8.278c0.552,0,1,0.447,1,1v8.278
			C43.444,61.989,42.997,62.437,42.444,62.437z M35.166,60.437h6.278v-6.278h-6.278V60.437z"/>
	</g>
	<g>
		<path d="M42.444,50.742h-8.278c-0.552,0-1-0.448-1-1v-8.278c0-0.552,0.448-1,1-1h8.278c0.552,0,1,0.448,1,1v8.278
			C43.444,50.294,42.997,50.742,42.444,50.742z M35.166,48.742h6.278v-6.278h-6.278V48.742z"/>
	</g>
	<g>
		<path d="M65.834,39.048H34.169c-0.552,0-1-0.448-1-1V29.77c0-0.552,0.448-1,1-1h31.665c0.553,0,1,0.448,1,1v8.278
			C66.834,38.6,66.387,39.048,65.834,39.048z M35.169,37.048h29.665V30.77H35.169V37.048z"/>
	</g>
</g>
</svg>
