<?xml version="1.0" encoding="utf-8"?>
<!-- Generator: Adobe Illustrator 16.0.0, SVG Export Plug-In . SVG Version: 6.00 Build 0)  -->
<!DOCTYPE svg PUBLIC "-//W3C//DTD SVG 1.1//EN" "http://www.w3.org/Graphics/SVG/1.1/DTD/svg11.dtd">
<svg version="1.1" id="Layer_1" xmlns="http://www.w3.org/2000/svg" xmlns:xlink="http://www.w3.org/1999/xlink" x="0px" y="0px"
	 width="100px" height="100px" viewBox="0 0 100 100" enable-background="new 0 0 100 100" xml:space="preserve">
<g>
	<path d="M43.015,51.766v14.74h4.159v-22.25h-3.593l-0.091,0.9c-0.119,1.183-0.436,1.979-0.9,2.292
		c-0.597,0.385-1.474,0.581-2.607,0.581l-1.143-0.014v3.751H43.015z"/>
	<path d="M55.707,66.914h0.019h0.019c2.379-0.042,4.082-0.991,5.067-2.828c0.84-1.602,1.256-3.434,1.237-5.436
		c0-1.888-0.426-3.559-1.275-4.984c-0.969-1.551-2.545-2.374-4.721-2.448c-0.669,0-1.288,0.108-1.853,0.324l0.418-2.85h6.731v-4.027
		H51.114l-1.369,12.412h3.694l0.261-0.604c0.367-0.85,0.933-1.229,1.833-1.229c0.517,0,0.92,0.083,1.189,0.239
		c0.271,0.163,0.47,0.384,0.629,0.72c0.19,0.358,0.31,0.739,0.363,1.149c0.063,0.548,0.096,1.099,0.096,1.639
		c0,1.125-0.203,2.114-0.601,2.936c-0.324,0.66-0.791,0.946-1.548,0.958c-1.102,0-1.372-0.425-1.48-0.595
		c-0.324-0.472-0.468-1.153-0.427-2.025l0.049-1.047h-4.263l-0.022,0.977c-0.051,2.173,0.479,3.854,1.575,4.998
		C52.147,66.296,53.7,66.874,55.707,66.914z"/>
	<path d="M25.248,24.512V35.5v3.118v37h49.999v-37V35.5V24.512H25.248z M72.246,72.618H28.248v-34h43.999V72.618z M28.248,35.5
		v-7.988h43.999V35.5H28.248z"/>
</g>
</svg>
