<?xml version="1.0" encoding="utf-8"?>
<!-- Generator: Adobe Illustrator 16.0.0, SVG Export Plug-In . SVG Version: 6.00 Build 0)  -->
<!DOCTYPE svg PUBLIC "-//W3C//DTD SVG 1.1//EN" "http://www.w3.org/Graphics/SVG/1.1/DTD/svg11.dtd">
<svg version="1.1" id="Layer_1" xmlns="http://www.w3.org/2000/svg" xmlns:xlink="http://www.w3.org/1999/xlink" x="0px" y="0px"
	 width="100px" height="100px" viewBox="0 0 100 100" enable-background="new 0 0 100 100" xml:space="preserve">
<path d="M77.96,31.115l-2.357-2.357l-6.717-6.718c-0.188-0.188-0.441-0.293-0.707-0.293s-0.52,0.105-0.707,0.293L55.333,34.178
	c0,0-0.001,0-0.001,0c0,0,0,0-0.001,0.001L33.766,55.745c-0.194,0.194-0.3,0.46-0.292,0.734l0.106,3.921l-4.275,0.18
	c-0.417,0.018-0.78,0.292-0.909,0.689l-3.241,9.958c-0.032,0.097-0.045,0.195-0.046,0.295c0,0.021,0.005,0.04,0.006,0.062
	c0.005,0.095,0.023,0.188,0.054,0.277c0.011,0.03,0.021,0.06,0.035,0.089c0.049,0.106,0.109,0.208,0.195,0.294
	c0.096,0.096,0.208,0.169,0.329,0.218c0.121,0.05,0.25,0.075,0.378,0.075c0.104,0,0.208-0.016,0.31-0.049l9.958-3.24
	c0.397-0.13,0.672-0.492,0.689-0.909l0.178-4.226l3.786,0.174c0.016,0.001,0.031,0.001,0.046,0.001c0.265,0,0.519-0.104,0.707-0.293
	l33.116-33.117l0.943,0.943L64.407,43.253c-0.391,0.391-0.391,1.023,0,1.414c0.195,0.195,0.451,0.293,0.707,0.293
	s0.512-0.098,0.707-0.293L77.96,32.529C78.351,32.138,78.351,31.505,77.96,31.115z M29.76,69.297l2.048-2.049
	c0.408,0.02,0.821-0.113,1.133-0.425c0.586-0.586,0.586-1.536,0-2.122c-0.585-0.585-1.536-0.585-2.121,0
	c-0.311,0.312-0.445,0.725-0.425,1.133l-2.048,2.047l1.735-5.332l5.232-0.22l-0.22,5.231L29.76,69.297z M40.677,62.269l-3.353-0.153
	l0.033-0.789c0.012-0.28-0.094-0.552-0.292-0.749c-0.197-0.198-0.461-0.315-0.749-0.292l-0.739,0.031l-0.094-3.461L56.039,36.3
	l5.304,5.303L40.677,62.269z M62.757,40.189l-5.304-5.303l10.726-10.725l5.303,5.304L62.757,40.189z"/>
</svg>
