<?xml version="1.0" encoding="utf-8"?>
<!-- Generator: Adobe Illustrator 16.0.0, SVG Export Plug-In . SVG Version: 6.00 Build 0)  -->
<!DOCTYPE svg PUBLIC "-//W3C//DTD SVG 1.1//EN" "http://www.w3.org/Graphics/SVG/1.1/DTD/svg11.dtd">
<svg version="1.1" id="Layer_1" xmlns="http://www.w3.org/2000/svg" xmlns:xlink="http://www.w3.org/1999/xlink" x="0px" y="0px"
	 width="100px" height="100px" viewBox="0 0 100 100" enable-background="new 0 0 100 100" xml:space="preserve">
<path d="M81.052,50.11c0.005-0.038,0.022-0.071,0.022-0.11c0-0.07-0.007-0.138-0.021-0.203c-0.053-8.435-3.436-16.296-9.538-22.154
	c-5.698-5.473-13.187-8.539-21.085-8.633h0h0l-0.272-0.007h0h0c-0.007,0-0.095-0.002-0.102-0.002c-0.027,0-0.049,0.013-0.075,0.015
	c-0.026-0.002-0.05-0.013-0.077-0.013c-0.002,0-0.003,0-0.005,0l-0.272,0.007c0,0,0,0,0,0h0c-7.898,0.095-15.387,3.161-21.085,8.633
	C22.388,33.548,19,41.488,19,50s3.388,16.452,9.539,22.358c5.517,5.297,12.711,8.33,20.328,8.604c0.054,0.01,0.106,0.029,0.161,0.03
	l0.176,0.005c0.004,0,0.008,0,0.011,0c0.004,0,0.009,0,0.013,0c0.002,0,0.005,0.001,0.007,0.001c0.01,0,0.068,0.001,0.078,0.001
	c0.031,0,0.058-0.015,0.088-0.018c0.075,0.001,0.149,0.007,0.225,0.008c0.004,0,0.008,0,0.012,0c0.135,0,0.267-0.035,0.391-0.088
	c0.124,0.053,0.255,0.088,0.391,0.088c0.004,0,0.008,0,0.012,0c0.1-0.001,0.199-0.009,0.299-0.011
	c0.038,0.005,0.072,0.019,0.111,0.019c0.004,0,0.008,0,0.011,0l0.276-0.008c0.05-0.001,0.093-0.021,0.14-0.029
	c7.588-0.293,14.751-3.324,20.249-8.603C77.641,66.478,81.022,58.58,81.052,50.11z M70.842,70.21
	c-0.237-0.241-0.487-0.463-0.731-0.695c-0.187-0.179-0.371-0.361-0.562-0.534c-0.532-0.483-1.076-0.948-1.635-1.39
	c-0.049-0.04-0.097-0.084-0.146-0.123c-0.605-0.473-1.229-0.915-1.862-1.339c-0.203-0.136-0.412-0.26-0.618-0.39
	c-0.293-0.187-0.582-0.382-0.881-0.557c0.083-0.189,0.154-0.385,0.234-0.576c0.104-0.251,0.209-0.503,0.308-0.757
	c0.142-0.363,0.274-0.73,0.404-1.099c0.086-0.242,0.174-0.482,0.255-0.728c0.137-0.413,0.261-0.832,0.383-1.251
	c0.061-0.204,0.126-0.406,0.183-0.612c0.171-0.625,0.328-1.255,0.468-1.89c0.015-0.068,0.025-0.137,0.04-0.204
	c0.122-0.571,0.232-1.146,0.329-1.723c0.037-0.221,0.064-0.441,0.097-0.662c0.064-0.429,0.126-0.858,0.176-1.289
	c0.028-0.253,0.05-0.507,0.074-0.761c0.038-0.404,0.073-0.809,0.099-1.215c0.017-0.262,0.028-0.523,0.04-0.785
	c0.009-0.211,0.025-0.421,0.031-0.632h11.512C78.795,58.25,75.913,65.004,70.842,70.21z M60.95,67.608
	c-0.255,0.449-0.525,0.886-0.799,1.319c-0.131,0.207-0.255,0.421-0.391,0.625c-0.413,0.623-0.842,1.231-1.292,1.818
	c-0.003,0.004-0.005,0.008-0.008,0.012c-0.454,0.591-0.93,1.158-1.419,1.71c-0.157,0.177-0.323,0.343-0.484,0.516
	c-0.341,0.367-0.686,0.73-1.043,1.078c-0.198,0.194-0.404,0.379-0.607,0.566c-0.337,0.311-0.678,0.615-1.027,0.909
	c-0.22,0.185-0.444,0.364-0.669,0.543c-0.353,0.278-0.712,0.549-1.076,0.811c-0.23,0.166-0.461,0.33-0.695,0.489
	c-0.126,0.085-0.258,0.161-0.385,0.244V63.281c0.124,0.005,0.249,0.005,0.373,0.012c0.193,0.01,0.386,0.022,0.578,0.037
	c0.326,0.023,0.65,0.055,0.974,0.091c0.188,0.021,0.376,0.042,0.563,0.066c0.342,0.046,0.683,0.103,1.022,0.161
	c0.161,0.029,0.323,0.053,0.484,0.085c0.461,0.09,0.92,0.192,1.376,0.308c0.035,0.009,0.071,0.015,0.106,0.023
	c0.493,0.128,0.983,0.271,1.47,0.428c0.142,0.046,0.28,0.098,0.421,0.146c0.345,0.117,0.688,0.238,1.027,0.37
	c0.172,0.066,0.343,0.139,0.513,0.209c0.31,0.127,0.617,0.259,0.924,0.398c0.176,0.08,0.352,0.162,0.527,0.247
	c0.12,0.058,0.239,0.122,0.359,0.182c-0.134,0.267-0.267,0.534-0.407,0.796C61.229,67.097,61.094,67.356,60.95,67.608z
	 M47.92,77.516c-0.364-0.262-0.723-0.531-1.075-0.811c-0.226-0.179-0.45-0.358-0.671-0.544c-0.349-0.293-0.688-0.597-1.024-0.906
	c-0.205-0.188-0.412-0.374-0.611-0.569c-0.355-0.346-0.697-0.706-1.036-1.071c-0.163-0.175-0.333-0.344-0.492-0.523
	c-0.488-0.549-0.96-1.114-1.413-1.702c-0.011-0.014-0.021-0.028-0.031-0.043c-0.443-0.578-0.866-1.177-1.273-1.791
	c-0.137-0.207-0.264-0.424-0.397-0.636c-0.271-0.43-0.539-0.863-0.792-1.309c-0.144-0.254-0.28-0.515-0.418-0.773
	c-0.139-0.261-0.272-0.527-0.405-0.793c0.12-0.06,0.239-0.124,0.36-0.182c0.175-0.085,0.351-0.167,0.528-0.248
	c0.305-0.139,0.613-0.271,0.921-0.397c0.171-0.07,0.342-0.143,0.514-0.209c0.34-0.132,0.683-0.253,1.027-0.369
	c0.141-0.049,0.28-0.101,0.421-0.146c0.487-0.156,0.978-0.301,1.471-0.428c0.033-0.008,0.065-0.014,0.098-0.022
	c0.459-0.116,0.92-0.219,1.385-0.31c0.159-0.03,0.32-0.055,0.479-0.083c0.341-0.06,0.683-0.116,1.027-0.162
	c0.187-0.024,0.374-0.045,0.561-0.066c0.324-0.036,0.649-0.067,0.975-0.091c0.192-0.015,0.384-0.027,0.577-0.037
	c0.124-0.007,0.249-0.007,0.374-0.012v14.968c-0.127-0.083-0.258-0.159-0.384-0.244C48.381,77.846,48.15,77.682,47.92,77.516z
	 M36.33,61.344c-0.124-0.377-0.238-0.758-0.349-1.14c-0.06-0.205-0.124-0.408-0.181-0.615c-0.142-0.521-0.271-1.046-0.39-1.574
	c-0.016-0.07-0.036-0.14-0.051-0.21c-0.131-0.6-0.245-1.203-0.346-1.811c-0.032-0.188-0.055-0.379-0.083-0.567
	c-0.063-0.422-0.124-0.845-0.172-1.27c-0.027-0.231-0.046-0.464-0.068-0.696c-0.037-0.386-0.07-0.773-0.095-1.161
	c-0.016-0.245-0.027-0.49-0.038-0.735c-0.008-0.188-0.01-0.376-0.015-0.564H49v10.268c-0.146,0.005-0.291,0.02-0.436,0.027
	c-0.218,0.011-0.435,0.023-0.652,0.04c-0.345,0.024-0.688,0.059-1.03,0.096c-0.205,0.023-0.409,0.044-0.613,0.071
	c-0.379,0.051-0.755,0.112-1.131,0.179c-0.162,0.028-0.325,0.052-0.486,0.083c-0.538,0.104-1.073,0.222-1.604,0.357
	c-0.029,0.008-0.058,0.018-0.087,0.025c-0.5,0.13-0.996,0.274-1.489,0.433c-0.164,0.052-0.325,0.112-0.488,0.167
	c-0.359,0.123-0.717,0.249-1.072,0.387c-0.188,0.072-0.375,0.149-0.562,0.227c-0.33,0.135-0.657,0.275-0.983,0.424
	c-0.192,0.087-0.384,0.177-0.576,0.269c-0.122,0.059-0.245,0.11-0.366,0.17c-0.064-0.148-0.131-0.296-0.193-0.446
	c-0.097-0.235-0.192-0.472-0.285-0.71c-0.132-0.34-0.256-0.683-0.378-1.027C36.488,61.807,36.406,61.576,36.33,61.344z
	 M34.596,47.699c0.024-0.388,0.058-0.775,0.095-1.162c0.022-0.231,0.042-0.463,0.068-0.693c0.049-0.427,0.109-0.853,0.173-1.277
	c0.028-0.187,0.051-0.374,0.082-0.56c0.101-0.608,0.215-1.213,0.346-1.814c0.013-0.06,0.03-0.12,0.044-0.18
	c0.121-0.539,0.252-1.075,0.397-1.606c0.054-0.199,0.116-0.395,0.174-0.593c0.114-0.39,0.23-0.78,0.357-1.165
	c0.074-0.225,0.153-0.447,0.232-0.67c0.125-0.354,0.252-0.707,0.388-1.056c0.089-0.229,0.181-0.457,0.274-0.684
	c0.064-0.155,0.133-0.307,0.199-0.46c0.119,0.059,0.24,0.11,0.359,0.167c0.196,0.094,0.393,0.186,0.59,0.275
	c0.319,0.145,0.639,0.282,0.961,0.415c0.194,0.08,0.388,0.161,0.583,0.236c0.344,0.133,0.691,0.255,1.04,0.374
	c0.173,0.059,0.345,0.123,0.52,0.178c0.472,0.151,0.948,0.289,1.426,0.415c0.049,0.013,0.098,0.029,0.148,0.042
	c0.528,0.135,1.06,0.252,1.595,0.356c0.168,0.033,0.338,0.057,0.507,0.087c0.369,0.064,0.739,0.125,1.111,0.175
	c0.207,0.028,0.414,0.049,0.621,0.072c0.34,0.038,0.681,0.071,1.024,0.096c0.218,0.016,0.436,0.029,0.654,0.04
	c0.146,0.007,0.29,0.022,0.436,0.027V49H34.543c0.005-0.188,0.007-0.376,0.015-0.564C34.569,48.19,34.58,47.944,34.596,47.699z
	 M39.105,32.39c0.254-0.447,0.522-0.88,0.794-1.312c0.132-0.21,0.258-0.426,0.395-0.632c0.408-0.616,0.833-1.217,1.277-1.797
	c0.008-0.011,0.016-0.022,0.024-0.033c0.453-0.589,0.927-1.157,1.416-1.707c0.16-0.181,0.33-0.35,0.494-0.526
	c0.338-0.363,0.679-0.723,1.032-1.067c0.201-0.196,0.409-0.382,0.615-0.572c0.334-0.308,0.673-0.611,1.02-0.903
	c0.222-0.187,0.448-0.367,0.674-0.547c0.351-0.277,0.708-0.546,1.071-0.807c0.231-0.167,0.463-0.332,0.7-0.491
	c0.125-0.085,0.256-0.161,0.383-0.243v14.967c-0.124-0.005-0.248-0.005-0.372-0.012c-0.195-0.01-0.389-0.023-0.583-0.038
	c-0.324-0.024-0.647-0.055-0.969-0.091c-0.189-0.021-0.379-0.042-0.567-0.067c-0.339-0.045-0.677-0.101-1.013-0.16
	c-0.165-0.029-0.331-0.053-0.495-0.085c-0.447-0.087-0.891-0.187-1.333-0.298c-0.05-0.013-0.101-0.022-0.15-0.035
	c-0.49-0.126-0.976-0.269-1.459-0.424c-0.153-0.049-0.304-0.106-0.457-0.158c-0.331-0.113-0.661-0.229-0.989-0.356
	c-0.182-0.07-0.363-0.146-0.544-0.221c-0.296-0.122-0.591-0.248-0.884-0.381c-0.188-0.085-0.376-0.174-0.563-0.264
	c-0.114-0.055-0.227-0.115-0.341-0.172c0.133-0.265,0.265-0.53,0.404-0.79C38.824,32.907,38.96,32.645,39.105,32.39z M52.144,22.49
	c0.359,0.258,0.713,0.524,1.061,0.799c0.229,0.181,0.458,0.364,0.682,0.553c0.346,0.291,0.683,0.592,1.016,0.899
	c0.206,0.19,0.415,0.377,0.616,0.574c0.355,0.346,0.698,0.708,1.037,1.073c0.162,0.174,0.33,0.341,0.488,0.52
	c0.979,1.104,1.889,2.286,2.721,3.542c0.132,0.2,0.254,0.409,0.382,0.612c0.277,0.438,0.55,0.88,0.808,1.334
	c0.142,0.248,0.274,0.503,0.409,0.756c0.142,0.265,0.275,0.535,0.411,0.804c-0.116,0.058-0.232,0.12-0.349,0.176
	c-0.183,0.088-0.365,0.174-0.55,0.257c-0.297,0.135-0.597,0.264-0.896,0.387c-0.179,0.073-0.356,0.148-0.535,0.217
	c-0.331,0.128-0.664,0.246-0.998,0.359c-0.15,0.051-0.298,0.107-0.448,0.155c-0.484,0.156-0.971,0.299-1.461,0.425
	c-0.05,0.013-0.1,0.022-0.148,0.034c-0.442,0.111-0.888,0.211-1.335,0.298c-0.165,0.032-0.331,0.057-0.496,0.086
	c-0.337,0.059-0.673,0.114-1.012,0.16c-0.188,0.025-0.379,0.046-0.568,0.067c-0.321,0.036-0.644,0.066-0.968,0.09
	c-0.193,0.015-0.388,0.027-0.583,0.038c-0.123,0.006-0.247,0.007-0.371,0.012V21.751c0.125,0.082,0.254,0.157,0.378,0.24
	C51.673,22.153,51.908,22.321,52.144,22.49z M63.724,38.649c0.126,0.383,0.242,0.771,0.354,1.159c0.059,0.2,0.121,0.398,0.177,0.599
	c0.142,0.523,0.271,1.05,0.391,1.58c0.016,0.069,0.035,0.137,0.05,0.207c0.131,0.599,0.245,1.203,0.346,1.81
	c0.032,0.19,0.055,0.383,0.084,0.575c0.063,0.419,0.123,0.839,0.171,1.261c0.027,0.234,0.047,0.468,0.069,0.702
	c0.036,0.385,0.069,0.77,0.094,1.156c0.016,0.246,0.027,0.492,0.037,0.738c0.009,0.188,0.011,0.376,0.016,0.564H51.055V38.732
	c0.146-0.005,0.29-0.02,0.436-0.027c0.219-0.011,0.437-0.024,0.653-0.04c0.343-0.025,0.685-0.059,1.024-0.096
	c0.207-0.023,0.415-0.044,0.622-0.072c0.37-0.049,0.739-0.11,1.107-0.175c0.17-0.029,0.341-0.054,0.511-0.087
	c0.534-0.104,1.064-0.221,1.592-0.355c0.055-0.014,0.108-0.032,0.162-0.046c0.474-0.125,0.945-0.261,1.413-0.411
	c0.176-0.056,0.35-0.12,0.524-0.18c0.346-0.118,0.691-0.24,1.034-0.372c0.196-0.076,0.393-0.157,0.588-0.237
	c0.321-0.132,0.641-0.27,0.958-0.414c0.197-0.089,0.394-0.18,0.589-0.274c0.12-0.058,0.241-0.109,0.36-0.168
	c0.067,0.156,0.138,0.311,0.203,0.468c0.092,0.223,0.182,0.446,0.27,0.672c0.136,0.351,0.265,0.704,0.39,1.06
	C63.57,38.202,63.649,38.424,63.724,38.649z M65.459,52.3c-0.024,0.389-0.058,0.775-0.095,1.163
	c-0.022,0.231-0.042,0.463-0.068,0.694c-0.049,0.425-0.108,0.848-0.172,1.271c-0.028,0.188-0.052,0.378-0.083,0.566
	c-0.101,0.607-0.215,1.212-0.346,1.812c-0.015,0.066-0.033,0.131-0.048,0.196c-0.12,0.533-0.25,1.063-0.394,1.588
	c-0.055,0.203-0.118,0.403-0.177,0.604c-0.113,0.388-0.229,0.773-0.354,1.155c-0.074,0.227-0.154,0.451-0.233,0.676
	c-0.124,0.353-0.252,0.703-0.387,1.051c-0.089,0.23-0.182,0.459-0.275,0.687c-0.063,0.154-0.133,0.306-0.198,0.459
	c-0.121-0.06-0.243-0.111-0.364-0.169c-0.192-0.093-0.387-0.183-0.581-0.271c-0.322-0.146-0.646-0.285-0.973-0.419
	c-0.19-0.079-0.381-0.157-0.572-0.231c-0.351-0.136-0.703-0.26-1.057-0.381c-0.168-0.057-0.334-0.118-0.503-0.172
	c-0.483-0.155-0.971-0.297-1.46-0.425c-0.039-0.01-0.077-0.022-0.115-0.032c-0.53-0.136-1.063-0.254-1.601-0.357
	c-0.163-0.032-0.329-0.056-0.493-0.084c-0.373-0.065-0.748-0.128-1.124-0.178c-0.204-0.027-0.41-0.049-0.615-0.071
	c-0.342-0.038-0.684-0.071-1.028-0.096c-0.217-0.017-0.434-0.029-0.652-0.04c-0.146-0.008-0.289-0.022-0.436-0.027V51h14.457
	c-0.005,0.188-0.007,0.376-0.016,0.564C65.486,51.81,65.475,52.055,65.459,52.3z M67.526,49c-0.007-0.254-0.026-0.507-0.038-0.761
	c-0.012-0.252-0.021-0.505-0.038-0.757c-0.027-0.413-0.065-0.824-0.105-1.234c-0.023-0.243-0.043-0.485-0.071-0.727
	c-0.054-0.455-0.12-0.906-0.189-1.358c-0.029-0.193-0.053-0.386-0.085-0.579c-0.106-0.635-0.229-1.268-0.367-1.896
	c-0.036-0.162-0.081-0.32-0.118-0.481c-0.11-0.469-0.223-0.936-0.35-1.399c-0.067-0.242-0.144-0.481-0.215-0.722
	c-0.111-0.377-0.224-0.754-0.347-1.127c-0.086-0.26-0.18-0.516-0.271-0.773c-0.124-0.349-0.25-0.697-0.384-1.042
	c-0.102-0.261-0.209-0.519-0.316-0.776c-0.076-0.183-0.145-0.37-0.224-0.551c0.303-0.177,0.594-0.375,0.891-0.563
	c0.201-0.127,0.405-0.249,0.604-0.381c0.637-0.425,1.263-0.87,1.872-1.346c0.036-0.028,0.069-0.06,0.105-0.088
	c0.572-0.452,1.129-0.928,1.675-1.424c0.186-0.169,0.365-0.347,0.548-0.521c0.247-0.235,0.5-0.46,0.74-0.704
	C75.913,34.996,78.795,41.75,79.038,49H67.526z M69.381,28.391c-0.225,0.227-0.447,0.457-0.677,0.675
	c-0.161,0.152-0.318,0.31-0.481,0.458c-0.536,0.487-1.083,0.958-1.646,1.4c-0.049,0.039-0.1,0.072-0.149,0.11
	c-0.519,0.402-1.05,0.782-1.59,1.144c-0.19,0.127-0.385,0.247-0.577,0.369c-0.236,0.15-0.478,0.288-0.718,0.431
	c-0.156-0.31-0.326-0.608-0.49-0.912c-0.104-0.193-0.204-0.39-0.312-0.581c-0.381-0.673-0.776-1.332-1.194-1.971
	c-0.073-0.111-0.152-0.217-0.226-0.327c-0.356-0.531-0.725-1.049-1.106-1.555c-0.146-0.193-0.294-0.381-0.443-0.57
	c-0.343-0.435-0.695-0.858-1.058-1.273c-0.146-0.167-0.289-0.337-0.438-0.5c-0.506-0.556-1.023-1.098-1.563-1.613
	c-0.035-0.034-0.073-0.065-0.109-0.099c-0.506-0.48-1.029-0.939-1.564-1.383c-0.177-0.146-0.356-0.287-0.536-0.43
	c-0.213-0.168-0.419-0.346-0.636-0.509C59.627,22.014,65.016,24.481,69.381,28.391z M45.557,21.761
	c-0.182,0.145-0.366,0.288-0.544,0.437c-0.529,0.439-1.047,0.894-1.548,1.369c-0.041,0.038-0.084,0.073-0.124,0.112
	c-0.538,0.515-1.055,1.055-1.559,1.61c-0.15,0.166-0.295,0.337-0.442,0.506c-0.36,0.412-0.71,0.833-1.051,1.266
	c-0.151,0.191-0.302,0.381-0.449,0.576c-0.379,0.503-0.746,1.019-1.1,1.546c-0.075,0.113-0.156,0.22-0.23,0.333
	c-0.418,0.639-0.814,1.297-1.194,1.971c-0.107,0.19-0.207,0.386-0.312,0.579c-0.164,0.304-0.334,0.603-0.491,0.913
	c-0.241-0.144-0.484-0.282-0.721-0.433c-0.191-0.121-0.383-0.239-0.571-0.365c-0.547-0.367-1.084-0.75-1.609-1.158
	c-0.043-0.033-0.088-0.062-0.13-0.096c-0.564-0.443-1.112-0.915-1.65-1.403c-0.163-0.147-0.319-0.304-0.479-0.456
	c-0.23-0.219-0.453-0.449-0.678-0.676c4.365-3.91,9.753-6.377,15.514-7.135C45.973,21.418,45.768,21.594,45.557,21.761z
	 M29.213,29.791c0.239,0.243,0.491,0.466,0.736,0.7c0.184,0.176,0.365,0.356,0.553,0.526c0.545,0.495,1.102,0.971,1.673,1.422
	c0.037,0.029,0.071,0.061,0.107,0.09c0.609,0.476,1.236,0.921,1.873,1.346c0.195,0.13,0.396,0.25,0.595,0.375
	c0.299,0.189,0.593,0.389,0.897,0.567c-0.087,0.201-0.164,0.407-0.248,0.609c-0.097,0.234-0.194,0.468-0.287,0.704
	c-0.148,0.381-0.288,0.766-0.424,1.152c-0.08,0.227-0.163,0.452-0.238,0.681c-0.143,0.431-0.273,0.868-0.4,1.305
	c-0.055,0.188-0.115,0.373-0.167,0.562c-0.172,0.629-0.331,1.263-0.471,1.903c-0.01,0.046-0.017,0.093-0.027,0.14
	c-0.128,0.592-0.242,1.188-0.342,1.786c-0.036,0.215-0.063,0.432-0.095,0.648c-0.064,0.432-0.126,0.864-0.176,1.298
	c-0.029,0.256-0.051,0.512-0.075,0.769c-0.038,0.399-0.072,0.798-0.098,1.199c-0.017,0.27-0.029,0.54-0.041,0.811
	c-0.009,0.205-0.025,0.41-0.031,0.615H21.017C21.26,41.75,24.141,34.996,29.213,29.791z M32.529,51
	c0.005,0.205,0.022,0.41,0.031,0.615c0.011,0.27,0.023,0.54,0.041,0.81c0.025,0.403,0.06,0.805,0.098,1.206
	c0.024,0.253,0.045,0.507,0.074,0.759c0.05,0.438,0.113,0.874,0.178,1.311c0.032,0.212,0.058,0.426,0.093,0.638
	c0.103,0.614,0.219,1.226,0.351,1.833c0.006,0.03,0.011,0.061,0.018,0.091c0.141,0.642,0.3,1.278,0.473,1.91
	c0.05,0.182,0.108,0.36,0.161,0.541c0.129,0.445,0.262,0.888,0.406,1.326c0.075,0.226,0.156,0.446,0.235,0.67
	c0.137,0.39,0.277,0.778,0.427,1.162c0.092,0.235,0.189,0.469,0.286,0.701c0.084,0.203,0.161,0.409,0.248,0.61
	c-0.302,0.177-0.593,0.374-0.889,0.562c-0.203,0.128-0.408,0.25-0.607,0.384c-0.635,0.424-1.259,0.867-1.867,1.342
	c-0.045,0.034-0.087,0.074-0.131,0.109c-0.563,0.445-1.113,0.915-1.65,1.403c-0.188,0.171-0.37,0.352-0.555,0.528
	c-0.245,0.233-0.496,0.457-0.735,0.699C24.142,65.004,21.26,58.25,21.017,51H32.529z M30.673,71.609
	c0.224-0.227,0.447-0.456,0.676-0.675c0.161-0.153,0.32-0.311,0.484-0.46c0.536-0.487,1.082-0.957,1.645-1.398
	c0.051-0.04,0.105-0.075,0.156-0.115c0.518-0.4,1.047-0.779,1.586-1.141c0.187-0.125,0.378-0.242,0.567-0.362
	c0.238-0.152,0.483-0.292,0.726-0.436c0.156,0.311,0.327,0.609,0.491,0.913c0.104,0.192,0.204,0.388,0.311,0.577
	c0.38,0.674,0.777,1.334,1.195,1.974c0.071,0.109,0.148,0.212,0.221,0.319c0.357,0.533,0.728,1.055,1.111,1.563
	c0.145,0.191,0.292,0.378,0.44,0.566c0.344,0.436,0.697,0.86,1.06,1.276c0.146,0.166,0.288,0.335,0.436,0.498
	c0.505,0.556,1.023,1.098,1.562,1.613c0.039,0.037,0.08,0.07,0.119,0.107c0.503,0.477,1.022,0.932,1.552,1.373
	c0.18,0.149,0.365,0.293,0.548,0.438c0.21,0.166,0.414,0.341,0.627,0.502C40.428,77.986,35.04,75.52,30.673,71.609z M54.49,78.244
	c0.186-0.147,0.373-0.293,0.555-0.444c0.526-0.437,1.04-0.889,1.538-1.36c0.044-0.041,0.09-0.078,0.133-0.119
	c0.537-0.515,1.053-1.054,1.557-1.607c0.151-0.167,0.297-0.34,0.445-0.51c0.358-0.411,0.708-0.831,1.049-1.263
	c0.15-0.191,0.302-0.382,0.449-0.577c0.379-0.502,0.744-1.018,1.098-1.544c0.076-0.113,0.157-0.222,0.232-0.336
	c0.417-0.638,0.813-1.296,1.192-1.968c0.108-0.192,0.209-0.39,0.314-0.585c0.163-0.302,0.333-0.6,0.488-0.908
	c0.242,0.144,0.487,0.283,0.726,0.435c0.189,0.121,0.381,0.238,0.568,0.364c0.535,0.358,1.061,0.734,1.574,1.132
	c0.056,0.043,0.114,0.081,0.169,0.124c0.561,0.44,1.105,0.909,1.639,1.394c0.169,0.154,0.333,0.316,0.499,0.475
	c0.226,0.215,0.444,0.44,0.665,0.664c-4.366,3.91-9.754,6.377-15.514,7.134C54.08,78.583,54.282,78.409,54.49,78.244z"/>
</svg>
