<?xml version="1.0" encoding="utf-8"?>
<!-- Generator: Adobe Illustrator 16.0.0, SVG Export Plug-In . SVG Version: 6.00 Build 0)  -->
<!DOCTYPE svg PUBLIC "-//W3C//DTD SVG 1.1//EN" "http://www.w3.org/Graphics/SVG/1.1/DTD/svg11.dtd">
<svg version="1.1" id="Layer_1" xmlns="http://www.w3.org/2000/svg" xmlns:xlink="http://www.w3.org/1999/xlink" x="0px" y="0px"
	 width="100px" height="100px" viewBox="0 0 100 100" enable-background="new 0 0 100 100" xml:space="preserve">
<g>
	<path d="M50,24c-14.336,0-26,11.664-26,26c0,14.337,11.664,26,26,26c14.337,0,26-11.663,26-26C76,35.664,64.337,24,50,24z M50,74
		c-13.233,0-24-10.767-24-24s10.767-24,24-24s24,10.767,24,24S63.233,74,50,74z"/>
	<polygon points="50.432,31.667 48.432,31.667 48.432,51 61.109,51 61.109,49 50.432,49 	"/>
</g>
</svg>
