<?xml version="1.0" encoding="utf-8"?>
<!-- Generator: Adobe Illustrator 16.0.0, SVG Export Plug-In . SVG Version: 6.00 Build 0)  -->
<!DOCTYPE svg PUBLIC "-//W3C//DTD SVG 1.1//EN" "http://www.w3.org/Graphics/SVG/1.1/DTD/svg11.dtd">
<svg version="1.1" id="Layer_1" xmlns="http://www.w3.org/2000/svg" xmlns:xlink="http://www.w3.org/1999/xlink" x="0px" y="0px"
	 width="100px" height="100px" viewBox="0 0 100 100" enable-background="new 0 0 100 100" xml:space="preserve">
<g>
	<path d="M48.806,77.287c-14.336,0-26-11.663-26-26c0-14.336,11.664-26,26-26c14.337,0,26,11.664,26,26
		C74.806,65.624,63.143,77.287,48.806,77.287z M48.806,27.287c-13.233,0-24,10.767-24,24s10.767,24,24,24s24-10.767,24-24
		S62.039,27.287,48.806,27.287z"/>
</g>
<g>
	<polygon points="46.969,58.23 37.985,49.246 39.399,47.832 46.969,55.402 60.601,41.77 62.015,43.184 	"/>
</g>
</svg>
