<?xml version="1.0" encoding="utf-8"?>
<!-- Generator: Adobe Illustrator 16.0.0, SVG Export Plug-In . SVG Version: 6.00 Build 0)  -->
<!DOCTYPE svg PUBLIC "-//W3C//DTD SVG 1.1//EN" "http://www.w3.org/Graphics/SVG/1.1/DTD/svg11.dtd">
<svg version="1.1" id="Layer_1" xmlns="http://www.w3.org/2000/svg" xmlns:xlink="http://www.w3.org/1999/xlink" x="0px" y="0px"
	 width="100px" height="100px" viewBox="0 0 100 100" enable-background="new 0 0 100 100" xml:space="preserve">
<path d="M52.171,71.755c-4.37,0-8.595-1.751-11.708-4.829c-1.038,0.447-2.165,0.682-3.301,0.682c-4.595,0-8.333-3.738-8.333-8.334
	c0-0.491,0.047-0.989,0.139-1.487c-3.232-2.391-5.141-6.149-5.141-10.189c0-6.354,4.796-11.748,11.036-12.559
	c1.563-4.089,5.456-6.792,9.887-6.792c3.867,0,7.403,2.113,9.258,5.458c1.336-0.462,2.729-0.696,4.156-0.696
	c7.03,0,12.749,5.718,12.749,12.747c0,0.295-0.013,0.595-0.039,0.913c3.158,1.236,5.298,4.312,5.298,7.754
	c0,4.88-4.248,8.79-9.193,8.289C64.133,68.229,58.401,71.755,52.171,71.755z M40.883,64.458l0.53,0.573
	c2.816,3.046,6.637,4.724,10.758,4.724c5.704,0,10.933-3.359,13.322-8.559l0.328-0.717l0.773,0.152
	c0.416,0.082,0.834,0.124,1.243,0.124c3.492,0,6.334-2.842,6.334-6.334c0-2.835-1.911-5.343-4.646-6.098l-0.844-0.232l0.119-0.867
	c0.076-0.561,0.112-1.027,0.112-1.47c0-5.926-4.822-10.747-10.749-10.747c-1.471,0-2.9,0.295-4.25,0.876l-0.91,0.392l-0.4-0.906
	c-1.375-3.112-4.458-5.124-7.854-5.124c-3.776,0-7.07,2.419-8.197,6.02l-0.202,0.646l-0.675,0.052
	c-5.522,0.424-9.848,5.095-9.848,10.633c0,3.6,1.8,6.934,4.815,8.92l0.604,0.398l-0.19,0.698c-0.151,0.559-0.228,1.116-0.228,1.66
	c0,3.492,2.841,6.334,6.333,6.334c1.06,0,2.109-0.268,3.036-0.774L40.883,64.458z"/>
</svg>
