<?xml version="1.0" encoding="utf-8"?>
<!-- Generator: Adobe Illustrator 16.0.4, SVG Export Plug-In . SVG Version: 6.00 Build 0)  -->
<!DOCTYPE svg PUBLIC "-//W3C//DTD SVG 1.1//EN" "http://www.w3.org/Graphics/SVG/1.1/DTD/svg11.dtd">
<svg version="1.1" id="Layer_1" xmlns="http://www.w3.org/2000/svg" xmlns:xlink="http://www.w3.org/1999/xlink" x="0px" y="0px"
	 width="100px" height="100px" viewBox="0 0 100 100" enable-background="new 0 0 100 100" xml:space="preserve">
<g>
	<path d="M77.75,55.75v-11.5h-5.48c-0.535-2.083-1.359-4.071-2.457-5.929l3.877-3.877l-8.133-8.131l-3.877,3.876
		c-1.857-1.098-3.846-1.922-5.93-2.458V22.25h-11.5v5.481c-2.083,0.536-4.072,1.36-5.929,2.458l-3.877-3.877l-8.132,8.132
		l3.877,3.877c-1.098,1.857-1.922,3.846-2.458,5.929h-5.48v11.5h5.48c0.536,2.084,1.36,4.073,2.458,5.93l-3.876,3.877l8.132,8.131
		l3.876-3.875c1.858,1.098,3.846,1.922,5.929,2.457v5.48h11.5v-5.48c2.083-0.535,4.072-1.359,5.93-2.457l3.877,3.875l8.131-8.131
		l-3.875-3.877c1.098-1.859,1.922-3.847,2.457-5.93H77.75z M70.505,54.534c-0.528,2.401-1.471,4.674-2.801,6.755l-0.433,0.677
		l3.588,3.591l-5.303,5.303l-3.59-3.59l-0.677,0.434c-2.081,1.33-4.354,2.273-6.755,2.801l-0.785,0.173v5.073h-7.5h-0.001v-5.072
		l-0.785-0.173c-2.4-0.528-4.673-1.471-6.754-2.801l-0.677-0.433l-3.589,3.588l-5.304-5.303l3.589-3.59l-0.433-0.677
		c-1.329-2.081-2.271-4.354-2.8-6.755l-0.173-0.785H24.25v-7.5h5.074l0.173-0.785c0.529-2.401,1.471-4.674,2.8-6.754l0.433-0.677
		l-3.589-3.589l5.304-5.304l3.589,3.589l0.677-0.433c2.08-1.329,4.353-2.271,6.754-2.8l0.785-0.173V24.25h7.5v5.074l0.785,0.173
		c2.4,0.529,4.674,1.471,6.755,2.8l0.677,0.433l3.59-3.589l5.305,5.303l-3.59,3.589l0.433,0.677c1.33,2.081,2.272,4.353,2.801,6.754
		l0.173,0.785h5.073v7.5h-5.073L70.505,54.534z"/>
	<path d="M50,42c-4.411,0-8,3.589-8,8s3.589,8,8,8s8-3.589,8-8S54.411,42,50,42z M50,56c-3.309,0-6-2.691-6-6c0-3.309,2.691-6,6-6
		c3.309,0,6,2.691,6,6C56,53.309,53.309,56,50,56z"/>
</g>
</svg>
