<?xml version="1.0" encoding="utf-8"?>
<!-- Generator: Adobe Illustrator 16.0.0, SVG Export Plug-In . SVG Version: 6.00 Build 0)  -->
<!DOCTYPE svg PUBLIC "-//W3C//DTD SVG 1.1//EN" "http://www.w3.org/Graphics/SVG/1.1/DTD/svg11.dtd">
<svg version="1.1" id="Layer_1" xmlns="http://www.w3.org/2000/svg" xmlns:xlink="http://www.w3.org/1999/xlink" x="0px" y="0px"
	 width="100px" height="100px" viewBox="0 0 100 100" enable-background="new 0 0 100 100" xml:space="preserve">
<g>
	<g>
		<path d="M50.666,51.448c-2.206,0-4-1.794-4-3.999c0-2.206,1.794-4.001,4-4.001c2.206,0,4,1.795,4,4.001
			C54.666,49.654,52.872,51.448,50.666,51.448z M50.666,45.448c-1.103,0-2,0.897-2,2.001c0,1.102,0.897,1.999,2,1.999
			c1.103,0,2-0.897,2-1.999C52.666,46.346,51.769,45.448,50.666,45.448z"/>
	</g>
</g>
<g>
	<g>
		<path d="M60.666,51.448c-2.206,0-4-1.794-4-3.999c0-2.206,1.794-4.001,4-4.001s4,1.795,4,4.001
			C64.666,49.654,62.872,51.448,60.666,51.448z M60.666,45.448c-1.103,0-2,0.897-2,2.001c0,1.102,0.897,1.999,2,1.999
			s2-0.897,2-1.999C62.666,46.346,61.769,45.448,60.666,45.448z"/>
	</g>
</g>
<g>
	<g>
		<path d="M40.666,51.448c-2.206,0-4-1.794-4-3.999c0-2.206,1.794-4.001,4-4.001s4,1.795,4,4.001
			C44.666,49.654,42.872,51.448,40.666,51.448z M40.666,45.448c-1.103,0-2,0.897-2,2.001c0,1.102,0.897,1.999,2,1.999
			s2-0.897,2-1.999C42.666,46.346,41.769,45.448,40.666,45.448z"/>
	</g>
</g>
<g>
	<path d="M68.5,73.914l-9.664-9.664H25.095V28.397h51.141V64.25H68.5V73.914z M27.095,62.25h32.569l6.836,6.836V62.25h7.736V30.397
		H27.095V62.25z"/>
</g>
</svg>
