<?xml version="1.0" encoding="utf-8"?>
<!-- Generator: Adobe Illustrator 16.0.0, SVG Export Plug-In . SVG Version: 6.00 Build 0)  -->
<!DOCTYPE svg PUBLIC "-//W3C//DTD SVG 1.1//EN" "http://www.w3.org/Graphics/SVG/1.1/DTD/svg11.dtd">
<svg version="1.1" id="Layer_1" xmlns="http://www.w3.org/2000/svg" xmlns:xlink="http://www.w3.org/1999/xlink" x="0px" y="0px"
	 width="100px" height="100px" viewBox="0 0 100 100" enable-background="new 0 0 100 100" xml:space="preserve">
<g>
	<path d="M65.294,71.154c0.553,0,1-0.447,1-1V43.849h-2v25.305H51h-2H35.706V43.849h-2v26.305c0,0.553,0.448,1,1,1H49v6.024H33.706
		v2h32.588v-2H51v-6.024H65.294z"/>
	<path d="M37.705,65.487h24.59c0.553,0,1-0.447,1-1V21.82c0-0.552-0.447-1-1-1h-24.59c-0.552,0-1,0.448-1,1v42.667
		C36.705,65.04,37.153,65.487,37.705,65.487z M38.705,22.82h22.59v40.667h-22.59V22.82z"/>
</g>
</svg>
