<?xml version="1.0" encoding="utf-8"?>
<!-- Generator: Adobe Illustrator 16.0.0, SVG Export Plug-In . SVG Version: 6.00 Build 0)  -->
<!DOCTYPE svg PUBLIC "-//W3C//DTD SVG 1.1//EN" "http://www.w3.org/Graphics/SVG/1.1/DTD/svg11.dtd">
<svg version="1.1" id="Layer_1" xmlns="http://www.w3.org/2000/svg" xmlns:xlink="http://www.w3.org/1999/xlink" x="0px" y="0px"
	 width="100px" height="100px" viewBox="0 0 100 100" enable-background="new 0 0 100 100" xml:space="preserve">
<g>
	<path d="M44.553,58.137h11.339c2.665,0,4.834-2.169,4.834-4.834s-2.169-4.834-4.834-4.834H44.553c-2.666,0-4.834,2.169-4.834,4.834
		S41.887,58.137,44.553,58.137z M44.553,50.469h11.339c1.563,0,2.834,1.271,2.834,2.834s-1.271,2.834-2.834,2.834H44.553
		c-1.563,0-2.834-1.271-2.834-2.834S42.99,50.469,44.553,50.469z"/>
	<path d="M78.014,28.47H22.43v14.5h3.833v31.999h47.917V42.97h3.833V28.47z M72.181,72.969H28.264V42.97h43.917V72.969z
		 M76.014,40.97h-1.833H26.264H24.43v-10.5h51.583V40.97z"/>
</g>
</svg>
