<?xml version="1.0" encoding="utf-8"?>
<!-- Generator: Adobe Illustrator 16.0.0, SVG Export Plug-In . SVG Version: 6.00 Build 0)  -->
<!DOCTYPE svg PUBLIC "-//W3C//DTD SVG 1.1//EN" "http://www.w3.org/Graphics/SVG/1.1/DTD/svg11.dtd">
<svg version="1.1" id="Layer_1" xmlns="http://www.w3.org/2000/svg" xmlns:xlink="http://www.w3.org/1999/xlink" x="0px" y="0px"
	 width="100px" height="100px" viewBox="0 0 100 100" enable-background="new 0 0 100 100" xml:space="preserve">
<g>
	<path d="M50,78.666c-15.807,0-28.667-12.859-28.667-28.667c0-15.807,12.86-28.667,28.667-28.667c5.072,0,10.063,1.35,14.435,3.902
		l2.518,1.471l-2.66,1.193c-9.22,4.136-15.176,13.33-15.176,23.423c0,9.085,4.883,17.582,12.746,22.174l2.517,1.47l-2.659,1.193
		C58.013,77.822,54.069,78.666,50,78.666z M50,24.333c-14.152,0-25.667,11.514-25.667,25.667c0,14.153,11.514,25.667,25.667,25.667
		c2.689,0,5.316-0.411,7.843-1.226c-7.3-5.365-11.727-13.974-11.727-23.118c0-10.266,5.516-19.698,14.277-24.79
		C57.133,25.087,53.59,24.333,50,24.333z"/>
</g>
</svg>
