<?xml version="1.0" encoding="utf-8"?>
<!-- Generator: Adobe Illustrator 16.0.0, SVG Export Plug-In . SVG Version: 6.00 Build 0)  -->
<!DOCTYPE svg PUBLIC "-//W3C//DTD SVG 1.1//EN" "http://www.w3.org/Graphics/SVG/1.1/DTD/svg11.dtd">
<svg version="1.1" id="Layer_1" xmlns="http://www.w3.org/2000/svg" xmlns:xlink="http://www.w3.org/1999/xlink" x="0px" y="0px"
	 width="100px" height="100px" viewBox="0 0 100 100" enable-background="new 0 0 100 100" xml:space="preserve">
<g>
	<path d="M71.167,35.402H29.099c-0.552,0-1,0.448-1,1v5.472c0,0.552,0.448,1,1,1h1.659v20.723c0,0.553,0.448,1,1,1h36.75
		c0.553,0,1-0.447,1-1V42.874h1.659c0.553,0,1-0.448,1-1v-5.472C72.167,35.85,71.72,35.402,71.167,35.402z M67.508,62.597h-34.75
		V42.874h34.75V62.597z M70.167,40.874h-1.659h-36.75h-1.659v-3.472h40.068V40.874z"/>
	<polygon points="44.528,59.455 50,53.982 55.472,59.455 56.886,58.041 51.414,52.568 56.886,47.097 55.472,45.683 50,51.154 
		44.528,45.683 43.114,47.097 48.586,52.568 43.114,58.041 	"/>
</g>
</svg>
