<?xml version="1.0" encoding="utf-8"?>
<!-- Generator: Adobe Illustrator 16.0.0, SVG Export Plug-In . SVG Version: 6.00 Build 0)  -->
<!DOCTYPE svg PUBLIC "-//W3C//DTD SVG 1.1//EN" "http://www.w3.org/Graphics/SVG/1.1/DTD/svg11.dtd">
<svg version="1.1" id="Layer_1" xmlns="http://www.w3.org/2000/svg" xmlns:xlink="http://www.w3.org/1999/xlink" x="0px" y="0px"
	 width="100px" height="100px" viewBox="0 0 100 100" enable-background="new 0 0 100 100" xml:space="preserve">
<g>
	<path d="M76.404,37.613c-0.005-0.089-0.022-0.175-0.051-0.259c-0.011-0.032-0.02-0.063-0.033-0.093
		c-0.049-0.106-0.11-0.208-0.196-0.293L57.857,18.699c-0.086-0.086-0.188-0.147-0.294-0.196c-0.03-0.014-0.061-0.022-0.092-0.033
		c-0.085-0.029-0.171-0.046-0.261-0.052c-0.021-0.001-0.04-0.012-0.061-0.012H38.417c-0.552,0-1,0.448-1,1V30.24h2v-9.833H56.15
		v17.268c0,0.552,0.447,1,1,1h17.267v27.086h-9.833v2h10.833c0.553,0,1-0.447,1-1V37.674C76.417,37.653,76.406,37.634,76.404,37.613
		z M58.15,36.674V21.821l14.853,14.854H58.15z"/>
	<path d="M62.584,51.508c0-0.021-0.011-0.041-0.013-0.062c-0.005-0.089-0.022-0.175-0.051-0.259
		c-0.011-0.032-0.02-0.063-0.033-0.094c-0.049-0.105-0.11-0.207-0.196-0.293L44.024,32.533c-0.086-0.086-0.187-0.147-0.293-0.196
		c-0.03-0.014-0.061-0.022-0.092-0.033c-0.085-0.029-0.171-0.046-0.261-0.052c-0.021-0.001-0.04-0.012-0.061-0.012h-5.9h-2H24.583
		c-0.552,0-1,0.448-1,1v47.355c0,0.553,0.448,1,1,1h37c0.553,0,1-0.447,1-1V69.761v-2V51.508z M44.317,35.654L59.17,50.508H44.317
		V35.654z M60.584,79.595h-35V34.24h9.833h2h4.9v17.268c0,0.553,0.448,1,1,1h17.267v15.253v2V79.595z"/>
</g>
</svg>
