<?xml version="1.0" encoding="utf-8"?>
<!-- Generator: Adobe Illustrator 16.0.0, SVG Export Plug-In . SVG Version: 6.00 Build 0)  -->
<!DOCTYPE svg PUBLIC "-//W3C//DTD SVG 1.1//EN" "http://www.w3.org/Graphics/SVG/1.1/DTD/svg11.dtd">
<svg version="1.1" id="Layer_1" xmlns="http://www.w3.org/2000/svg" xmlns:xlink="http://www.w3.org/1999/xlink" x="0px" y="0px"
	 width="100px" height="100px" viewBox="0 0 100 100" enable-background="new 0 0 100 100" xml:space="preserve">
<g>
	<path d="M74.864,33.167H24.866c-0.552,0-1,0.448-1,1v31.667c0,0.553,0.448,1,1,1h49.999c0.553,0,1-0.447,1-1V34.167
		C75.864,33.614,75.417,33.167,74.864,33.167z M73.864,64.834H25.866V35.167h47.999V64.834z"/>
	<path d="M32.711,60.9c0.195,0.195,0.451,0.293,0.707,0.293s0.512-0.098,0.707-0.293l9.311-9.311l5.587,5.587
		c0.195,0.195,0.451,0.293,0.707,0.293s0.512-0.098,0.707-0.293l5.723-5.723l9.175,9.175c0.195,0.195,0.451,0.293,0.707,0.293
		s0.512-0.098,0.707-0.293c0.391-0.391,0.391-1.023,0-1.414l-9.175-9.175l9.311-9.311c0.391-0.391,0.391-1.023,0-1.414
		s-1.023-0.391-1.414,0L55.453,49.333l-5.723,5.723l-5.587-5.587l-9.882-9.882c-0.391-0.391-1.023-0.391-1.414,0
		s-0.391,1.023,0,1.414l9.175,9.176l-9.311,9.311C32.32,59.877,32.32,60.51,32.711,60.9z"/>
</g>
</svg>
