<?xml version="1.0" encoding="utf-8"?>
<!-- Generator: Adobe Illustrator 16.0.0, SVG Export Plug-In . SVG Version: 6.00 Build 0)  -->
<!DOCTYPE svg PUBLIC "-//W3C//DTD SVG 1.1//EN" "http://www.w3.org/Graphics/SVG/1.1/DTD/svg11.dtd">
<svg version="1.1" id="Layer_1" xmlns="http://www.w3.org/2000/svg" xmlns:xlink="http://www.w3.org/1999/xlink" x="0px" y="0px"
	 width="100px" height="100px" viewBox="0 0 100 100" enable-background="new 0 0 100 100" xml:space="preserve">
<g>
	<path d="M49.334,41.891c-4.403,0-7.986,3.583-7.986,7.986c0,4.404,3.583,7.986,7.986,7.986c4.404,0,7.987-3.582,7.987-7.986
		C57.321,45.473,53.738,41.891,49.334,41.891z M49.334,55.862c-3.301,0-5.986-2.686-5.986-5.986c0-3.301,2.685-5.986,5.986-5.986
		c3.301,0,5.987,2.685,5.987,5.986C55.321,53.177,52.636,55.862,49.334,55.862z"/>
	<path d="M49.335,37.167c-7.008,0-12.71,5.702-12.71,12.709c0,7.008,5.702,12.709,12.71,12.709c7.008,0,12.71-5.701,12.71-12.709
		C62.045,42.869,56.343,37.167,49.335,37.167z M49.335,60.586c-5.905,0-10.71-4.805-10.71-10.709c0-5.905,4.805-10.709,10.71-10.709
		s10.71,4.804,10.71,10.709C60.045,55.781,55.24,60.586,49.335,60.586z"/>
	<path d="M76.889,49.726c-0.001-0.006-0.002-0.011-0.003-0.017c-0.006-0.024-0.008-0.048-0.014-0.072
		c0-0.001-0.001-0.001-0.001-0.002c-2.237-9.106-13.817-15.715-27.537-15.715c-13.72,0-25.302,6.61-27.538,15.718
		c-0.006,0.023-0.007,0.047-0.013,0.07c-0.001,0.006-0.002,0.012-0.003,0.018c-0.241,1.011-0.368,2.032-0.368,3.037
		c0,0.553,0.448,1,1,1c0.27,0,0.513-0.109,0.692-0.283c3.934,7.325,14.267,12.352,26.23,12.352c11.964,0,22.297-5.027,26.23-12.352
		c0.18,0.174,0.423,0.283,0.693,0.283c0.553,0,1-0.447,1-1C77.258,51.757,77.13,50.735,76.889,49.726z M49.334,63.832
		c-12.479,0-23.375-5.983-25.52-13.955c2.144-7.971,13.041-13.956,25.52-13.956s23.375,5.985,25.52,13.956
		C72.71,57.849,61.813,63.832,49.334,63.832z"/>
</g>
</svg>
