<?xml version="1.0" encoding="utf-8"?>
<!-- Generator: Adobe Illustrator 16.0.0, SVG Export Plug-In . SVG Version: 6.00 Build 0)  -->
<!DOCTYPE svg PUBLIC "-//W3C//DTD SVG 1.1//EN" "http://www.w3.org/Graphics/SVG/1.1/DTD/svg11.dtd">
<svg version="1.1" id="Layer_1" xmlns="http://www.w3.org/2000/svg" xmlns:xlink="http://www.w3.org/1999/xlink" x="0px" y="0px"
	 width="100px" height="100px" viewBox="0 0 100 100" enable-background="new 0 0 100 100" xml:space="preserve">
<path d="M65.15,74.729c-0.206,0-0.412-0.063-0.588-0.191L50,63.957l-14.563,10.58c-0.351,0.256-0.825,0.256-1.176,0
	c-0.351-0.254-0.497-0.705-0.363-1.117l5.562-17.121l-14.563-10.58c-0.351-0.255-0.497-0.706-0.363-1.118s0.518-0.691,0.951-0.691
	h18l5.563-17.12c0.134-0.412,0.518-0.691,0.951-0.691s0.817,0.279,0.951,0.691l5.563,17.12h18.001c0.434,0,0.817,0.279,0.951,0.691
	s-0.013,0.863-0.363,1.118l-14.563,10.58l5.563,17.121c0.134,0.411-0.013,0.863-0.363,1.117
	C65.563,74.665,65.356,74.729,65.15,74.729z M28.563,45.91l12.661,9.199c0.351,0.254,0.497,0.705,0.363,1.117L36.751,71.11
	l12.661-9.198c0.351-0.256,0.825-0.256,1.176,0l12.66,9.198l-4.836-14.885c-0.134-0.412,0.013-0.863,0.363-1.117l12.661-9.199
	H55.787c-0.434,0-0.817-0.279-0.951-0.691L50,30.335l-4.836,14.884c-0.134,0.412-0.518,0.691-0.951,0.691H28.563z"/>
</svg>
