<?xml version="1.0" encoding="utf-8"?>
<!-- Generator: Adobe Illustrator 16.0.0, SVG Export Plug-In . SVG Version: 6.00 Build 0)  -->
<!DOCTYPE svg PUBLIC "-//W3C//DTD SVG 1.1//EN" "http://www.w3.org/Graphics/SVG/1.1/DTD/svg11.dtd">
<svg version="1.1" id="Layer_1" xmlns="http://www.w3.org/2000/svg" xmlns:xlink="http://www.w3.org/1999/xlink" x="0px" y="0px"
	 width="100px" height="100px" viewBox="0 0 100 100" enable-background="new 0 0 100 100" xml:space="preserve">
<path d="M69.778,29.297H29.781c-2.113,0-3.834,1.721-3.834,3.835v28.997c0,2.115,1.721,3.835,3.834,3.835h14.685l-1.461,5.661
	h-1.225c-0.552,0-1,0.447-1,1s0.448,1,1,1h2H55.78c0.007-0.001,0.014,0,0.02,0h1.979c0.553,0,1-0.447,1-1s-0.447-1-1-1h-1.225
	l-1.46-5.661h14.684c2.114,0,3.834-1.72,3.834-3.835V33.132C73.612,31.018,71.893,29.297,69.778,29.297z M54.489,71.625H45.07
	l1.461-5.661h2.749h2h1.749L54.489,71.625z M71.612,62.129c0,1.012-0.822,1.835-1.834,1.835H54.17
	c-0.121-0.053-0.251-0.089-0.39-0.089h-8.001c-0.139,0-0.268,0.036-0.39,0.089H29.781c-1.012,0-1.834-0.823-1.834-1.835V33.132
	c0-1.012,0.822-1.835,1.834-1.835h39.998c1.012,0,1.834,0.823,1.834,1.835V62.129z"/>
</svg>
