<?xml version="1.0" encoding="utf-8"?>
<!-- Generator: Adobe Illustrator 16.0.0, SVG Export Plug-In . SVG Version: 6.00 Build 0)  -->
<!DOCTYPE svg PUBLIC "-//W3C//DTD SVG 1.1//EN" "http://www.w3.org/Graphics/SVG/1.1/DTD/svg11.dtd">
<svg version="1.1" id="Layer_1" xmlns="http://www.w3.org/2000/svg" xmlns:xlink="http://www.w3.org/1999/xlink" x="0px" y="0px"
	 width="100px" height="100px" viewBox="0 0 100 100" enable-background="new 0 0 100 100" xml:space="preserve">
<path d="M74.666,28.333H25.333c-0.552,0-1,0.448-1,1v14.947v26.385c0,0.553,0.448,1,1,1h49.333c0.553,0,1-0.447,1-1V38.14v-8.807
	C75.666,28.781,75.219,28.333,74.666,28.333z M73.666,30.333v6.807H59c-0.553,0-1,0.448-1,1v5.141H26.333V30.333H73.666z
	 M73.666,69.666H26.333V45.281H59c0.553,0,1-0.448,1-1V39.14h13.666V69.666z"/>
</svg>
