<?xml version="1.0" encoding="utf-8"?>
<!-- Generator: Adobe Illustrator 16.0.0, SVG Export Plug-In . SVG Version: 6.00 Build 0)  -->
<!DOCTYPE svg PUBLIC "-//W3C//DTD SVG 1.1//EN" "http://www.w3.org/Graphics/SVG/1.1/DTD/svg11.dtd">
<svg version="1.1" id="Layer_1" xmlns="http://www.w3.org/2000/svg" xmlns:xlink="http://www.w3.org/1999/xlink" x="0px" y="0px"
	 width="100px" height="100px" viewBox="0 0 100 100" enable-background="new 0 0 100 100" xml:space="preserve">
<g>
	<path d="M67.117,73.359H32.881c-0.552,0-1-0.447-1-1V53.717l-6.971-0.014c-0.404-0.001-0.768-0.245-0.922-0.618
		c-0.154-0.374-0.068-0.803,0.217-1.089l25.063-25.063c0.228-0.227,0.554-0.328,0.867-0.28c0.297,0.048,0.555,0.227,0.705,0.485
		l5.835,5.835V31.11c0-0.552,0.447-1,1-1h5.875c0.553,0,1,0.448,1,1v9.738l11.243,11.244c0.286,0.286,0.372,0.717,0.217,1.091
		c-0.155,0.373-0.52,0.616-0.924,0.616c-0.001,0-0.001,0-0.002,0l-6.968-0.014v18.574C68.117,72.912,67.67,73.359,67.117,73.359z
		 M33.881,71.359h32.236V52.783c0-0.266,0.105-0.521,0.294-0.708c0.188-0.187,0.441-0.292,0.706-0.292c0.001,0,0.001,0,0.002,0
		l5.549,0.011l-9.824-9.825c-0.188-0.188-0.293-0.442-0.293-0.707V32.11h-3.875v3.278c0,0.404-0.243,0.769-0.617,0.924
		c-0.373,0.156-0.803,0.07-1.09-0.217l-7.017-7.017l-22.63,22.63l5.561,0.011c0.552,0.001,0.998,0.448,0.998,1V71.359z"/>
</g>
</svg>
