<?xml version="1.0" encoding="utf-8"?>
<!-- Generator: Adobe Illustrator 16.0.0, SVG Export Plug-In . SVG Version: 6.00 Build 0)  -->
<!DOCTYPE svg PUBLIC "-//W3C//DTD SVG 1.1//EN" "http://www.w3.org/Graphics/SVG/1.1/DTD/svg11.dtd">
<svg version="1.1" id="Layer_1" xmlns="http://www.w3.org/2000/svg" xmlns:xlink="http://www.w3.org/1999/xlink" x="0px" y="0px"
	 width="100px" height="100px" viewBox="0 0 100 100" enable-background="new 0 0 100 100" xml:space="preserve">
<g>
	<path d="M66.167,44.902v-1.614c0-0.552-0.447-1-1-1H30.235c-0.552,0-1,0.448-1,1v23.046c0,5.949,4.542,11.069,11.028,13.333H30.235
		c-0.552,0-1,0.447-1,1s0.448,1,1,1h34.932c0.553,0,1-0.447,1-1s-0.447-1-1-1H55.139c6.485-2.264,11.028-7.384,11.028-13.333v-3.795
		c4.426-0.499,7.879-4.262,7.879-8.818C74.046,49.163,70.593,45.401,66.167,44.902z M64.167,45.842V61.6v4.734
		c0,6.936-7.387,12.578-16.466,12.578S31.235,73.27,31.235,66.334V44.288h32.932V45.842z M66.167,60.527V46.914
		c3.32,0.486,5.879,3.353,5.879,6.807C72.046,57.174,69.487,60.041,66.167,60.527z"/>
	<path d="M47.701,38.33c0.552,0,1-0.448,1-1V22.497c0-0.552-0.448-1-1-1s-1,0.448-1,1V37.33
		C46.701,37.882,47.149,38.33,47.701,38.33z"/>
	<path d="M55.701,38.33c0.553,0,1-0.448,1-1V22.497c0-0.552-0.447-1-1-1s-1,0.448-1,1V37.33
		C54.701,37.882,55.148,38.33,55.701,38.33z"/>
	<path d="M39.701,38.33c0.552,0,1-0.448,1-1V22.497c0-0.552-0.448-1-1-1s-1,0.448-1,1V37.33
		C38.701,37.882,39.149,38.33,39.701,38.33z"/>
</g>
</svg>
