<?xml version="1.0" encoding="utf-8"?>
<!-- Generator: Adobe Illustrator 16.0.0, SVG Export Plug-In . SVG Version: 6.00 Build 0)  -->
<!DOCTYPE svg PUBLIC "-//W3C//DTD SVG 1.1//EN" "http://www.w3.org/Graphics/SVG/1.1/DTD/svg11.dtd">
<svg version="1.1" id="Layer_1" xmlns="http://www.w3.org/2000/svg" xmlns:xlink="http://www.w3.org/1999/xlink" x="0px" y="0px"
	 width="100px" height="100px" viewBox="0 0 100 100" enable-background="new 0 0 100 100" xml:space="preserve">
<path d="M73.648,49.813c0-13.055-10.621-23.677-23.676-23.677c-13.056,0-23.677,10.622-23.677,23.677
	c0,5.837,2.102,11.344,5.94,15.673l-0.061,0.021l1.14,1.128l0.443,0.438l0.016-0.006c4.407,4.143,10.131,6.422,16.199,6.422
	c6.028,0,11.717-2.268,16.114-6.366l0.032,0.011l0.442-0.435l1.149-1.129l-0.062-0.021C71.525,61.212,73.648,55.684,73.648,49.813z
	 M49.972,71.491c-5.201,0-10.129-1.824-14.048-5.169l9.842-3.424l-0.067-0.774c-0.006-0.074-0.016-0.146-0.025-0.22
	c-0.007-0.049-0.017-0.1-0.017-0.149v-2.563c1.319,0.793,2.777,1.245,4.314,1.245c1.538,0,2.995-0.452,4.314-1.245v2.563
	c0,0.078-0.013,0.153-0.022,0.229l-0.107,0.992l9.792,3.404C60.04,69.688,55.137,71.491,49.972,71.491z M43.659,54.476
	c-1.393-2.157-2.25-5.018-2.25-8.163c0-6.686,3.841-12.125,8.563-12.125c4.722,0,8.563,5.439,8.563,12.125
	c0,3.144-0.856,6.002-2.247,8.159c-0.524,0.813-1.124,1.523-1.786,2.111c-1.315,1.168-2.865,1.854-4.529,1.854
	s-3.214-0.687-4.529-1.854C44.781,55.996,44.183,55.287,43.659,54.476z M65.594,64.836l-9.307-3.238v-3.99
	c2.572-2.579,4.247-6.675,4.247-11.295c0-7.789-4.738-14.125-10.563-14.125s-10.563,6.336-10.563,14.125
	c0,4.621,1.676,8.72,4.25,11.298v3.905l-9.37,3.26c-3.871-4.051-5.994-9.34-5.994-14.962c0-11.953,9.725-21.677,21.677-21.677
	c11.952,0,21.676,9.724,21.676,21.677C71.648,55.467,69.504,60.775,65.594,64.836z"/>
</svg>
