<?xml version="1.0" encoding="utf-8"?>
<!-- Generator: Adobe Illustrator 16.0.0, SVG Export Plug-In . SVG Version: 6.00 Build 0)  -->
<!DOCTYPE svg PUBLIC "-//W3C//DTD SVG 1.1//EN" "http://www.w3.org/Graphics/SVG/1.1/DTD/svg11.dtd">
<svg version="1.1" id="Layer_1" xmlns="http://www.w3.org/2000/svg" xmlns:xlink="http://www.w3.org/1999/xlink" x="0px" y="0px"
	 width="100px" height="100px" viewBox="0 0 100 100" enable-background="new 0 0 100 100" xml:space="preserve">
<g>
	<path d="M54.314,18.605c-0.175-0.055-0.369-0.048-0.555-0.035l-0.07,0.006l-0.104-0.006c-0.183-0.013-0.373-0.02-0.543,0.034
		c-11.25,0.513-20.027,9.668-20.027,20.955c0,7.113,3.358,13.643,8.765,17.041l0.284,0.177c0.369,0.229,0.717,0.444,1.027,0.687
		c2.051,1.598,3.479,6.076,3.479,9.096c0,0.553,0.448,1,1,1h12.204c0.553,0,1-0.447,1-1c0-3.021,1.429-7.498,3.479-9.096
		c0.311-0.243,0.66-0.46,1.03-0.688l0.281-0.175c5.406-3.395,8.765-9.925,8.765-17.041C74.33,28.277,65.56,19.124,54.314,18.605z
		 M50.256,44.052c0.81,1,2.033,1.653,3.417,1.653c1.354,0,2.554-0.626,3.365-1.59c0.809,1.036,2.055,1.716,3.468,1.716
		c0.098,0,0.194-0.003,0.29-0.009c-1.974,4.756-4.555,12.328-4.774,19.738h-4.697c-0.22-7.436-2.816-15.076-4.792-19.865
		c0.102,0.007,0.204,0.011,0.308,0.011C48.224,45.705,49.446,45.052,50.256,44.052z M64.502,54.907l-0.271,0.168
		c-0.398,0.246-0.812,0.502-1.207,0.811c-2.387,1.859-3.946,6.233-4.21,9.674h-0.789c0.259-8.093,3.552-16.608,5.455-20.883
		c0.885-0.808,1.441-1.972,1.441-3.262c0-0.459-0.313-0.86-0.76-0.971c-0.448-0.113-0.91,0.098-1.125,0.504
		c-0.071,0.135-0.538,1.03-1.201,2.484c-0.382,0.252-0.839,0.4-1.33,0.4c-1.332,0-2.416-1.084-2.416-2.417
		c0-0.015-0.008-0.027-0.009-0.042c0.001-0.029,0.009-0.055,0.009-0.084c0-0.552-0.447-1-1-1s-1,0.448-1,1
		c0,1.333-1.084,2.417-2.417,2.417c-1.332,0-2.416-1.084-2.416-2.417c0-0.552-0.448-1-1-1s-1,0.448-1,1
		c0,1.333-1.084,2.417-2.417,2.417c-0.497,0-0.959-0.151-1.344-0.409c-0.655-1.446-1.115-2.336-1.186-2.471
		c-0.213-0.408-0.679-0.618-1.125-0.508c-0.447,0.11-0.762,0.511-0.762,0.971c0,1.282,0.549,2.439,1.425,3.247
		c1.9,4.296,5.213,12.896,5.472,21.025h-0.789c-0.264-3.439-1.824-7.813-4.211-9.674c-0.395-0.308-0.806-0.563-1.203-0.809
		l-0.273-0.17c-4.829-3.035-7.829-8.917-7.829-15.348c0-10.287,8.061-18.618,18.351-18.966c0.059-0.002,0.116-0.01,0.172-0.022
		c0.073,0.004,0.17,0.005,0.267,0c0.057,0.012,0.116,0.02,0.176,0.021C64.27,20.942,72.33,29.272,72.33,39.56
		C72.33,45.994,69.33,51.875,64.502,54.907z"/>
	<path d="M59.804,68.084H47.542c-0.552,0-1,0.447-1,1v3.167v3.167c0,0.553,0.448,1,1,1h1.804v2.167c0,0.553,0.448,1,1,1H57
		c0.553,0,1-0.447,1-1v-2.167h1.804c0.553,0,1-0.447,1-1v-3.167v-3.167C60.804,68.531,60.356,68.084,59.804,68.084z M48.542,70.084
		h10.262v1.167H48.542V70.084z M56,77.585h-4.655v-1.167H56V77.585z M58.804,74.418H57h-6.655h-1.804v-1.167h10.262V74.418z"/>
</g>
</svg>
