<?xml version="1.0" encoding="utf-8"?>
<!-- Generator: Adobe Illustrator 16.0.0, SVG Export Plug-In . SVG Version: 6.00 Build 0)  -->
<!DOCTYPE svg PUBLIC "-//W3C//DTD SVG 1.1//EN" "http://www.w3.org/Graphics/SVG/1.1/DTD/svg11.dtd">
<svg version="1.1" id="Layer_1" xmlns="http://www.w3.org/2000/svg" xmlns:xlink="http://www.w3.org/1999/xlink" x="0px" y="0px"
	 width="100px" height="100px" viewBox="0 0 100 100" enable-background="new 0 0 100 100" xml:space="preserve">
<g>
	<path d="M53,78.054c-14.337,0-26-11.663-26-26c0-14.336,11.664-26,26-26s26,11.664,26,26C79,66.391,67.337,78.054,53,78.054z
		 M53,28.054c-13.234,0-24,10.767-24,24s10.767,24,24,24c13.233,0,24-10.767,24-24S66.233,28.054,53,28.054z"/>
</g>
<g>
	<g>
		<path d="M55.529,38.928c0.045,1.393-0.976,2.506-2.6,2.506c-1.438,0-2.46-1.114-2.46-2.506c0-1.438,1.068-2.552,2.552-2.552
			C54.554,36.376,55.529,37.49,55.529,38.928z M50.981,67.701V45.24h4.083v22.461H50.981z"/>
	</g>
</g>
</svg>
