<?xml version="1.0" encoding="utf-8"?>
<!-- Generator: Adobe Illustrator 16.0.0, SVG Export Plug-In . SVG Version: 6.00 Build 0)  -->
<!DOCTYPE svg PUBLIC "-//W3C//DTD SVG 1.1//EN" "http://www.w3.org/Graphics/SVG/1.1/DTD/svg11.dtd">
<svg version="1.1" id="Layer_1" xmlns="http://www.w3.org/2000/svg" xmlns:xlink="http://www.w3.org/1999/xlink" x="0px" y="0px"
	 width="100px" height="100px" viewBox="0 0 100 100" enable-background="new 0 0 100 100" xml:space="preserve">
<path d="M69.999,65H67V34.352l3.7-3.639c0.394-0.387,0.399-1.02,0.012-1.414c-0.386-0.394-1.021-0.399-1.414-0.012L65.523,33H34.999
	V30c0-0.552-0.448-1-1-1s-1,0.448-1,1V33H30c-0.552,0-1,0.448-1,1s0.448,1,1,1h2.999v29.983l-3.7,3.639
	c-0.394,0.387-0.399,1.021-0.012,1.414c0.196,0.199,0.454,0.299,0.713,0.299c0.253,0,0.506-0.096,0.701-0.287l3.132-3.08
	C33.89,66.977,33.94,67,33.999,67H65v3c0,0.553,0.447,1,1,1s1-0.447,1-1v-3h2.999c0.553,0,1-0.447,1-1S70.552,65,69.999,65z
	 M34.999,35h28.49l-28.49,28.016V35z M35.833,65L65,36.319V65H35.833z"/>
</svg>
