<?xml version="1.0" encoding="utf-8"?>
<!-- Generator: Adobe Illustrator 16.0.0, SVG Export Plug-In . SVG Version: 6.00 Build 0)  -->
<!DOCTYPE svg PUBLIC "-//W3C//DTD SVG 1.1//EN" "http://www.w3.org/Graphics/SVG/1.1/DTD/svg11.dtd">
<svg version="1.1" id="Layer_1" xmlns="http://www.w3.org/2000/svg" xmlns:xlink="http://www.w3.org/1999/xlink" x="0px" y="0px"
	 width="100px" height="100px" viewBox="0 0 100 100" enable-background="new 0 0 100 100" xml:space="preserve">
<g>
	<path d="M50,41.515c-3.86,0-7-3.14-7-7s3.14-7,7-7c3.859,0,7,3.14,7,7S53.859,41.515,50,41.515z M50,29.515c-2.757,0-5,2.243-5,5
		s2.243,5,5,5s5-2.243,5-5S52.757,29.515,50,29.515z"/>
</g>
<g>
	<path d="M33.045,41.515c-3.86,0-7-3.14-7-7s3.14-7,7-7s7,3.14,7,7S36.905,41.515,33.045,41.515z M33.045,29.515
		c-2.757,0-5,2.243-5,5s2.243,5,5,5s5-2.243,5-5S35.802,29.515,33.045,29.515z"/>
</g>
<g>
	<path d="M67.316,41.515c-3.859,0-7-3.14-7-7s3.141-7,7-7s7,3.14,7,7S71.176,41.515,67.316,41.515z M67.316,29.515
		c-2.757,0-5,2.243-5,5s2.243,5,5,5s5-2.243,5-5S70.073,29.515,67.316,29.515z"/>
</g>
<g>
	<path d="M50.001,58.344c-3.86,0-7-3.141-7-7c0-3.86,3.14-7,7-7c3.859,0,7,3.141,7,7C57.001,55.203,53.86,58.344,50.001,58.344z
		 M50.001,46.343c-2.757,0-5,2.243-5,5c0,2.757,2.243,5,5,5s5-2.243,5-5C55.001,48.586,52.758,46.343,50.001,46.343z"/>
</g>
<g>
	<path d="M33.046,58.344c-3.86,0-7-3.141-7-7c0-3.86,3.14-7,7-7s7,3.141,7,7C40.046,55.203,36.906,58.344,33.046,58.344z
		 M33.046,46.343c-2.757,0-5,2.243-5,5c0,2.757,2.243,5,5,5s5-2.243,5-5C38.046,48.586,35.803,46.343,33.046,46.343z"/>
</g>
<g>
	<path d="M67.317,58.344c-3.859,0-7-3.141-7-7c0-3.86,3.141-7,7-7s7,3.141,7,7C74.317,55.203,71.177,58.344,67.317,58.344z
		 M67.317,46.343c-2.757,0-5,2.243-5,5c0,2.757,2.243,5,5,5s5-2.243,5-5C72.317,48.586,70.074,46.343,67.317,46.343z"/>
</g>
<g>
	<path d="M50.001,75.119c-3.86,0-7-3.141-7-7s3.14-7,7-7c3.859,0,7,3.141,7,7S53.86,75.119,50.001,75.119z M50.001,63.119
		c-2.757,0-5,2.243-5,5s2.243,5,5,5s5-2.243,5-5S52.758,63.119,50.001,63.119z"/>
</g>
<g>
	<path d="M33.046,75.119c-3.86,0-7-3.141-7-7s3.14-7,7-7s7,3.141,7,7S36.906,75.119,33.046,75.119z M33.046,63.119
		c-2.757,0-5,2.243-5,5s2.243,5,5,5s5-2.243,5-5S35.803,63.119,33.046,63.119z"/>
</g>
<g>
	<path d="M67.317,75.119c-3.859,0-7-3.141-7-7s3.141-7,7-7s7,3.141,7,7S71.177,75.119,67.317,75.119z M67.317,63.119
		c-2.757,0-5,2.243-5,5s2.243,5,5,5s5-2.243,5-5S70.074,63.119,67.317,63.119z"/>
</g>
</svg>
