<?xml version="1.0" encoding="utf-8"?>
<!-- Generator: Adobe Illustrator 16.0.0, SVG Export Plug-In . SVG Version: 6.00 Build 0)  -->
<!DOCTYPE svg PUBLIC "-//W3C//DTD SVG 1.1//EN" "http://www.w3.org/Graphics/SVG/1.1/DTD/svg11.dtd">
<svg version="1.1" id="Layer_1" xmlns="http://www.w3.org/2000/svg" xmlns:xlink="http://www.w3.org/1999/xlink" x="0px" y="0px"
	 width="100px" height="100px" viewBox="0 0 100 100" enable-background="new 0 0 100 100" xml:space="preserve">
<g>
	<path d="M50,76.971c-3.309,0-6-2.691-6-6V39.884c-2.201-1.798-3.501-4.51-3.501-7.355v-9.501h19.002v9.501
		c0,2.845-1.3,5.557-3.501,7.355v31.086C56,74.279,53.309,76.971,50,76.971z M42.499,25.028v7.501c0,2.381,1.155,4.645,3.09,6.056
		l0.411,0.3v32.085c0,2.206,1.794,4,4,4c2.206,0,4-1.794,4-4V38.885l0.411-0.3c1.935-1.412,3.09-3.675,3.09-6.056v-7.501H42.499z"/>
</g>
<g>
	<path d="M50,45.221c-1.654,0-3-1.346-3-3s1.346-3,3-3s3,1.346,3,3S51.654,45.221,50,45.221z M50,41.22c-0.551,0-1,0.449-1,1
		c0,0.552,0.449,1,1,1c0.552,0,1-0.449,1-1C51,41.669,50.552,41.22,50,41.22z"/>
</g>
<g>
	<path d="M50,59.779c-1.654,0-3-1.346-3-3v-8c0-1.654,1.346-3,3-3s3,1.346,3,3v8C53,58.434,51.654,59.779,50,59.779z M50,47.779
		c-0.551,0-1,0.449-1,1v8c0,0.552,0.449,1,1,1c0.552,0,1-0.448,1-1v-8C51,48.228,50.552,47.779,50,47.779z"/>
</g>
</svg>
