<?xml version="1.0" encoding="utf-8"?>
<!-- Generator: Adobe Illustrator 16.0.0, SVG Export Plug-In . SVG Version: 6.00 Build 0)  -->
<!DOCTYPE svg PUBLIC "-//W3C//DTD SVG 1.1//EN" "http://www.w3.org/Graphics/SVG/1.1/DTD/svg11.dtd">
<svg version="1.1" id="Layer_1" xmlns="http://www.w3.org/2000/svg" xmlns:xlink="http://www.w3.org/1999/xlink" x="0px" y="0px"
	 width="100px" height="100px" viewBox="0 0 100 100" enable-background="new 0 0 100 100" xml:space="preserve">
<path d="M67.5,37.375c-6.097,0-11.257,4.065-12.927,9.625c-1.102-1.298-2.741-2.125-4.573-2.125c-1.832,0-3.472,0.827-4.573,2.125
	c-1.67-5.56-6.83-9.625-12.927-9.625c-7.444,0-13.5,6.056-13.5,13.5c0,7.444,6.056,13.5,13.5,13.5S46,58.319,46,50.875
	c0-2.206,1.794-4,4-4c2.205,0,4,1.794,4,4c0,7.444,6.056,13.5,13.5,13.5S81,58.319,81,50.875C81,43.431,74.944,37.375,67.5,37.375z
	 M32.5,62.375c-6.341,0-11.5-5.159-11.5-11.5c0-6.341,5.159-11.5,11.5-11.5S44,44.534,44,50.875
	C44,57.216,38.841,62.375,32.5,62.375z M67.5,62.375c-6.341,0-11.5-5.159-11.5-11.5c0-6.341,5.159-11.5,11.5-11.5
	S79,44.534,79,50.875C79,57.216,73.841,62.375,67.5,62.375z"/>
</svg>
