<?xml version="1.0" encoding="utf-8"?>
<!-- Generator: Adobe Illustrator 16.0.0, SVG Export Plug-In . SVG Version: 6.00 Build 0)  -->
<!DOCTYPE svg PUBLIC "-//W3C//DTD SVG 1.1//EN" "http://www.w3.org/Graphics/SVG/1.1/DTD/svg11.dtd">
<svg version="1.1" id="Layer_1" xmlns="http://www.w3.org/2000/svg" xmlns:xlink="http://www.w3.org/1999/xlink" x="0px" y="0px"
	 width="100px" height="100px" viewBox="0 0 100 100" enable-background="new 0 0 100 100" xml:space="preserve">
<path d="M83.165,48.961H71.333c-0.259-4.922-2.222-9.388-5.32-12.831l8.371-8.372c0.432-0.431,0.432-1.128,0-1.56
	s-1.129-0.432-1.561,0l-8.371,8.372c-3.442-3.099-7.909-5.062-12.831-5.321V17.417c0-0.61-0.493-1.104-1.104-1.104
	c-0.609,0-1.103,0.493-1.103,1.104V29.25c-4.922,0.259-9.388,2.222-12.83,5.32l-8.372-8.371c-0.432-0.432-1.129-0.432-1.561,0
	s-0.432,1.129,0,1.56l8.371,8.371c-3.099,3.443-5.062,7.909-5.321,12.832H17.872c-0.609,0-1.104,0.494-1.104,1.104
	s0.494,1.103,1.104,1.103h11.831c0.259,4.922,2.222,9.389,5.321,12.831l-8.37,8.369c-0.432,0.433-0.432,1.13,0,1.561
	c0.215,0.216,0.498,0.323,0.78,0.323c0.282,0,0.564-0.106,0.78-0.323l8.37-8.369c3.442,3.099,7.909,5.062,12.831,5.32v11.83
	c0,0.611,0.494,1.104,1.103,1.104c0.61,0,1.104-0.492,1.104-1.104V70.88c4.922-0.259,9.389-2.222,12.831-5.32l8.369,8.369
	c0.216,0.216,0.498,0.323,0.78,0.323s0.564-0.106,0.78-0.323c0.433-0.431,0.433-1.128,0-1.561l-8.369-8.369
	c3.099-3.442,5.062-7.909,5.32-12.831h11.832c0.607,0,1.104-0.493,1.104-1.103S83.775,48.961,83.165,48.961z M50.518,68.729
	c-10.292,0-18.664-8.373-18.664-18.665c0-10.292,8.373-18.664,18.664-18.664c10.292,0,18.664,8.373,18.664,18.664
	C69.182,60.356,60.81,68.729,50.518,68.729z"/>
</svg>
