<?xml version="1.0" encoding="utf-8"?>
<!-- Generator: Adobe Illustrator 16.0.0, SVG Export Plug-In . SVG Version: 6.00 Build 0)  -->
<!DOCTYPE svg PUBLIC "-//W3C//DTD SVG 1.1//EN" "http://www.w3.org/Graphics/SVG/1.1/DTD/svg11.dtd">
<svg version="1.1" id="Layer_1" xmlns="http://www.w3.org/2000/svg" xmlns:xlink="http://www.w3.org/1999/xlink" x="0px" y="0px"
	 width="100px" height="100px" viewBox="0 0 100 100" enable-background="new 0 0 100 100" xml:space="preserve">
<g>
	<path d="M39.76,39.853c-0.387-0.395-1.02-0.4-1.414-0.014c-0.394,0.386-0.4,1.02-0.014,1.414L49.286,52.42
		c0.196,0.2,0.454,0.3,0.714,0.3c0.253,0,0.506-0.095,0.7-0.286c0.396-0.387,0.399-1.02,0.014-1.414L39.76,39.853z"/>
	<path d="M50,28.411c-4.839,0-9.339,1.483-13.068,4.019l-3.75,0.114c-0.552,0.017-0.986,0.478-0.969,1.03
		c0.017,0.542,0.46,0.97,0.999,0.97c0.01,0,0.021,0,0.031,0l1.055-0.032c-4.67,4.266-7.606,10.401-7.606,17.21
		c0,12.853,10.457,23.309,23.309,23.309S73.309,64.572,73.309,51.72S62.853,28.411,50,28.411z M50,73.028
		c-11.75,0-21.309-9.559-21.309-21.309c0-6.455,2.896-12.237,7.444-16.147v1.553c0,0.552,0.448,1,1,1s1-0.448,1-1V34.03
		c3.394-2.284,7.476-3.62,11.865-3.62c11.75,0,21.309,9.559,21.309,21.309S61.75,73.028,50,73.028z"/>
</g>
</svg>
