<?xml version="1.0" encoding="utf-8"?>
<!-- Generator: Adobe Illustrator 16.0.0, SVG Export Plug-In . SVG Version: 6.00 Build 0)  -->
<!DOCTYPE svg PUBLIC "-//W3C//DTD SVG 1.1//EN" "http://www.w3.org/Graphics/SVG/1.1/DTD/svg11.dtd">
<svg version="1.1" id="Layer_1" xmlns="http://www.w3.org/2000/svg" xmlns:xlink="http://www.w3.org/1999/xlink" x="0px" y="0px"
	 width="100px" height="100px" viewBox="0 0 100 100" enable-background="new 0 0 100 100" xml:space="preserve">
<g>
	<path d="M74.459,30.757H25.542c-0.552,0-1,0.448-1,1v10c0,0.552,0.448,1,1,1h48.917c0.553,0,1-0.448,1-1v-10
		C75.459,31.205,75.012,30.757,74.459,30.757z M73.459,40.757H26.542v-8h46.917V40.757z"/>
	<path d="M74.459,43.757H25.542c-0.552,0-1,0.448-1,1v10c0,0.553,0.448,1,1,1h48.917c0.553,0,1-0.447,1-1v-10
		C75.459,44.205,75.012,43.757,74.459,43.757z M73.459,53.757H26.542v-8h46.917V53.757z"/>
	<path d="M74.459,56.757H25.542c-0.552,0-1,0.447-1,1v10c0,0.553,0.448,1,1,1h48.917c0.553,0,1-0.447,1-1v-10
		C75.459,57.204,75.012,56.757,74.459,56.757z M73.459,66.757H26.542v-8h46.917V66.757z"/>
</g>
</svg>
