<?xml version="1.0" encoding="utf-8"?>
<!-- Generator: Adobe Illustrator 16.0.0, SVG Export Plug-In . SVG Version: 6.00 Build 0)  -->
<!DOCTYPE svg PUBLIC "-//W3C//DTD SVG 1.1//EN" "http://www.w3.org/Graphics/SVG/1.1/DTD/svg11.dtd">
<svg version="1.1" id="Layer_1" xmlns="http://www.w3.org/2000/svg" xmlns:xlink="http://www.w3.org/1999/xlink" x="0px" y="0px"
	 width="100px" height="100px" viewBox="0 0 100 100" enable-background="new 0 0 100 100" xml:space="preserve">
<g>
	<path d="M32.448,45.307c-3.953,0-7.169,3.216-7.169,7.169c0,3.952,3.216,7.168,7.169,7.168s7.169-3.216,7.169-7.168
		C39.617,48.523,36.401,45.307,32.448,45.307z M32.448,56.645c-2.299,0-4.169-1.87-4.169-4.168c0-2.299,1.87-4.169,4.169-4.169
		s4.169,1.871,4.169,4.169C36.617,54.774,34.747,56.645,32.448,56.645z"/>
	<path d="M49.619,45.307c-3.953,0-7.169,3.216-7.169,7.169c0,3.952,3.216,7.168,7.169,7.168s7.169-3.216,7.169-7.168
		C56.788,48.523,53.572,45.307,49.619,45.307z M49.619,56.645c-2.299,0-4.169-1.87-4.169-4.168c0-2.299,1.87-4.169,4.169-4.169
		s4.169,1.871,4.169,4.169C53.788,54.774,51.918,56.645,49.619,56.645z"/>
	<path d="M67.124,45.307c-3.953,0-7.169,3.216-7.169,7.169c0,3.952,3.216,7.168,7.169,7.168s7.169-3.216,7.169-7.168
		C74.293,48.523,71.077,45.307,67.124,45.307z M67.124,56.645c-2.299,0-4.169-1.87-4.169-4.168c0-2.299,1.87-4.169,4.169-4.169
		s4.169,1.871,4.169,4.169C71.293,54.774,69.423,56.645,67.124,56.645z"/>
</g>
</svg>
