<?xml version="1.0" encoding="utf-8"?>
<!-- Generator: Adobe Illustrator 16.0.0, SVG Export Plug-In . SVG Version: 6.00 Build 0)  -->
<!DOCTYPE svg PUBLIC "-//W3C//DTD SVG 1.1//EN" "http://www.w3.org/Graphics/SVG/1.1/DTD/svg11.dtd">
<svg version="1.1" id="Layer_1" xmlns="http://www.w3.org/2000/svg" xmlns:xlink="http://www.w3.org/1999/xlink" x="0px" y="0px"
	 width="100px" height="100px" viewBox="0 0 100 100" enable-background="new 0 0 100 100" xml:space="preserve">
<path d="M77.547,33.18c-0.374-0.154-0.803-0.07-1.09,0.217L62.268,47.586V32.875c0-0.552-0.447-1-1-1H22.835c-0.552,0-1,0.448-1,1
	v34.25c0,0.553,0.448,1,1,1h38.432c0.553,0,1-0.447,1-1V52.414l14.189,14.189c0.191,0.191,0.447,0.293,0.707,0.293
	c0.129,0,0.259-0.024,0.383-0.076c0.374-0.154,0.617-0.52,0.617-0.924V34.104C78.164,33.699,77.921,33.334,77.547,33.18z
	 M60.268,66.125H23.835v-32.25h36.432V66.125z M76.164,63.482L62.682,50l13.482-13.482V63.482z"/>
</svg>
