<?xml version="1.0" encoding="utf-8"?>
<!-- Generator: Adobe Illustrator 16.0.0, SVG Export Plug-In . SVG Version: 6.00 Build 0)  -->
<!DOCTYPE svg PUBLIC "-//W3C//DTD SVG 1.1//EN" "http://www.w3.org/Graphics/SVG/1.1/DTD/svg11.dtd">
<svg version="1.1" id="Layer_1" xmlns="http://www.w3.org/2000/svg" xmlns:xlink="http://www.w3.org/1999/xlink" x="0px" y="0px"
	 width="100px" height="100px" viewBox="0 0 100 100" enable-background="new 0 0 100 100" xml:space="preserve">
<path d="M66.335,20.581h-2V58.21c-1.028-0.86-2.331-1.335-3.831-1.335c-2.355,0-4.818,1.112-6.758,3.052
	c-3.411,3.411-4.045,8.328-1.414,10.96c1.071,1.071,2.524,1.637,4.203,1.637c2.355,0,4.818-1.112,6.757-3.052
	c1.633-1.632,2.621-3.607,2.929-5.514h0.114V20.581z M61.878,68.058c-1.544,1.544-3.541,2.466-5.343,2.466
	c-1.137,0-2.102-0.363-2.789-1.051c-1.852-1.852-1.217-5.5,1.414-8.132c1.544-1.544,3.542-2.466,5.344-2.466
	c1.137,0,2.102,0.363,2.789,1.051c0.64,0.64,0.976,1.495,1.042,2.447v0.791C64.202,64.784,63.354,66.581,61.878,68.058z"/>
<g>
	<rect x="30.75" y="20.581" width="27.375" height="2"/>
</g>
<g>
	<rect x="30.75" y="26.581" width="27.375" height="2"/>
</g>
<g>
	<rect x="30.75" y="32.581" width="27.375" height="2"/>
</g>
<g>
	<rect x="30.75" y="38.581" width="27.375" height="2"/>
</g>
<g>
	<rect x="30.75" y="44.581" width="27.375" height="2"/>
</g>
</svg>
