<?xml version="1.0" encoding="utf-8"?>
<!-- Generator: Adobe Illustrator 16.0.0, SVG Export Plug-In . SVG Version: 6.00 Build 0)  -->
<!DOCTYPE svg PUBLIC "-//W3C//DTD SVG 1.1//EN" "http://www.w3.org/Graphics/SVG/1.1/DTD/svg11.dtd">
<svg version="1.1" id="Layer_1" xmlns="http://www.w3.org/2000/svg" xmlns:xlink="http://www.w3.org/1999/xlink" x="0px" y="0px"
	 width="100px" height="100px" viewBox="0 0 100 100" enable-background="new 0 0 100 100" xml:space="preserve">
<g>
	<path d="M34.837,34.671h0.1c0.552,0,1-0.448,1-1s-0.448-1-1-1h-0.1c-0.552,0-1,0.448-1,1S34.285,34.671,34.837,34.671z"/>
	<path d="M30.806,34.671h0.1c0.552,0,1-0.448,1-1s-0.448-1-1-1h-0.1c-0.552,0-1,0.448-1,1S30.254,34.671,30.806,34.671z"/>
	<path d="M73.855,27.505h-48c-0.552,0-1,0.448-1,1v48c0,0.553,0.448,1,1,1h48c0.553,0,1-0.447,1-1v-48
		C74.855,27.953,74.408,27.505,73.855,27.505z M72.855,29.505v8.308h-46v-8.308H72.855z M26.856,75.505V39.813h46v35.692H26.856z"/>
	<path d="M39.231,36.085h28.25c0.553,0,1-0.448,1-1v-2.829c0-0.552-0.447-1-1-1h-28.25c-0.552,0-1,0.448-1,1v2.829
		C38.231,35.638,38.679,36.085,39.231,36.085z M66.48,33.256v0.829h-26.25v-0.829H66.48z"/>
</g>
</svg>
