<?xml version="1.0" encoding="utf-8"?>
<!-- Generator: Adobe Illustrator 16.0.0, SVG Export Plug-In . SVG Version: 6.00 Build 0)  -->
<!DOCTYPE svg PUBLIC "-//W3C//DTD SVG 1.1//EN" "http://www.w3.org/Graphics/SVG/1.1/DTD/svg11.dtd">
<svg version="1.1" id="Layer_1" xmlns="http://www.w3.org/2000/svg" xmlns:xlink="http://www.w3.org/1999/xlink" x="0px" y="0px"
	 width="100px" height="100px" viewBox="0 0 100 100" enable-background="new 0 0 100 100" xml:space="preserve">
<g>
	<path d="M74.567,27.719c-1.321-1.323-3.627-1.322-4.95,0L49.583,47.753c-0.206,0.205-0.752,0.751-1.115,4.981l-0.102,1.187
		l1.186-0.104c4.239-0.373,4.776-0.91,4.979-1.112l20.035-20.036C75.932,31.303,75.932,29.083,74.567,27.719z M73.153,31.254
		L53.187,51.221c-0.35,0.149-1.447,0.335-2.6,0.477c0.138-1.151,0.324-2.248,0.476-2.596l19.971-19.97
		c0.566-0.566,1.553-0.566,2.121,0C73.737,29.717,73.737,30.669,73.153,31.254z"/>
	<path d="M72.523,66.246h-36.85V29.395h29.439l2-2H34.673c-0.552,0-1,0.448-1,1v38.851c0,0.553,0.448,1,1,1h38.85
		c0.553,0,1-0.447,1-1V35.54l-2,2V66.246z"/>
</g>
</svg>
