<?xml version="1.0" encoding="utf-8"?>
<!-- Generator: Adobe Illustrator 16.0.0, SVG Export Plug-In . SVG Version: 6.00 Build 0)  -->
<!DOCTYPE svg PUBLIC "-//W3C//DTD SVG 1.1//EN" "http://www.w3.org/Graphics/SVG/1.1/DTD/svg11.dtd">
<svg version="1.1" id="Layer_1" xmlns="http://www.w3.org/2000/svg" xmlns:xlink="http://www.w3.org/1999/xlink" x="0px" y="0px"
	 width="100px" height="100px" viewBox="0 0 100 100" enable-background="new 0 0 100 100" xml:space="preserve">
<g>
	<path d="M68.834,34.683V18.5H28.063v16.028l-6.242,3.818v36.915h53.023V38.345L68.834,34.683z M28.063,42.225l-3.569-3.169
		l3.569-2.183V42.225z M41.211,56.576l-17.39,15.458V41.132L41.211,56.576z M48.333,52.922l22.882,20.339H25.451L48.333,52.922z
		 M55.406,56.533l17.438-15.409v30.91L55.406,56.533z M68.834,37.025l3.332,2.03L68.834,42V37.025z M30.063,20.5h36.771v14.745
		v8.522L53.9,55.195l-5.567-4.949l-5.616,4.992L30.063,44.001v-8.913V20.5z"/>
	<rect x="32.744" y="23.833" width="31.127" height="2"/>
	<rect x="32.744" y="27.833" width="31.127" height="2"/>
	<rect x="32.744" y="31.833" width="31.127" height="2"/>
	<rect x="32.744" y="35.833" width="31.127" height="2"/>
	<rect x="32.744" y="39.833" width="31.127" height="2"/>
</g>
</svg>
