<?xml version="1.0" encoding="utf-8"?>
<!-- Generator: Adobe Illustrator 16.0.0, SVG Export Plug-In . SVG Version: 6.00 Build 0)  -->
<!DOCTYPE svg PUBLIC "-//W3C//DTD SVG 1.1//EN" "http://www.w3.org/Graphics/SVG/1.1/DTD/svg11.dtd">
<svg version="1.1" id="Layer_1" xmlns="http://www.w3.org/2000/svg" xmlns:xlink="http://www.w3.org/1999/xlink" x="0px" y="0px"
	 width="100px" height="100px" viewBox="0 0 100 100" enable-background="new 0 0 100 100" xml:space="preserve">
<path d="M50.021,27.525V24.5c0-0.552-0.448-1-1-1s-1,0.448-1,1v3.025c-14.426,0.529-26,12.422-26,26.975c0,0.553,0.448,1,1,1H48
	v15.707c0,0.146,0.036,0.283,0.093,0.409c0.212,2.563,2.342,4.591,4.958,4.591c2.758,0,5-2.242,5-5c0-0.553-0.447-1-1-1
	c-0.551,0-1,0.447-1,1c0,1.653-1.346,3-3,3s-3-1.347-3-3c0-0.088-0.028-0.168-0.051-0.252V55.5h25.021c0.553,0,1-0.447,1-1
	C76.021,39.948,64.446,28.054,50.021,27.525z M49.021,29.5c13.45,0,24.447,10.677,24.975,24H24.046
	C24.573,40.177,35.571,29.5,49.021,29.5z"/>
</svg>
