<?xml version="1.0" encoding="utf-8"?>
<!-- Generator: Adobe Illustrator 16.0.0, SVG Export Plug-In . SVG Version: 6.00 Build 0)  -->
<!DOCTYPE svg PUBLIC "-//W3C//DTD SVG 1.1//EN" "http://www.w3.org/Graphics/SVG/1.1/DTD/svg11.dtd">
<svg version="1.1" id="Layer_1" xmlns="http://www.w3.org/2000/svg" xmlns:xlink="http://www.w3.org/1999/xlink" x="0px" y="0px"
	 width="100px" height="100px" viewBox="0 0 100 100" enable-background="new 0 0 100 100" xml:space="preserve">
<path d="M57.336,28.688v0.032h-1.051c-2.395,0-4.493,1.273-5.67,3.174c-1.176-1.9-3.273-3.174-5.669-3.174h-1.112v-0.032H21.17
	v39.73h22.664v-0.032h1.112c2.294,0,4.276,1.712,4.612,3.979c0.072,0.49,0.493,0.854,0.988,0.854c0.024,0,0.045-0.01,0.067-0.012
	c0.023,0.002,0.046,0.012,0.068,0.012c0.496,0,0.918-0.361,0.99-0.854c0.336-2.27,2.318-3.979,4.611-3.979h1.053v0.032H80v-39.73
	H57.336z M49.615,68.314c-1.215-1.196-2.875-1.929-4.669-1.929h-6.571v0.032H23.17v-35.73h15.205v0.032h6.571
	c2.575,0,4.669,2.095,4.669,4.669V68.314z M78,66.418H65.375v-0.032h-9.09c-1.794,0-3.455,0.732-4.67,1.929V35.389
	c0-2.574,2.096-4.669,4.67-4.669h9.09v-0.032H78V66.418z"/>
</svg>
