<?xml version="1.0" encoding="utf-8"?>
<!-- Generator: Adobe Illustrator 16.0.0, SVG Export Plug-In . SVG Version: 6.00 Build 0)  -->
<!DOCTYPE svg PUBLIC "-//W3C//DTD SVG 1.1//EN" "http://www.w3.org/Graphics/SVG/1.1/DTD/svg11.dtd">
<svg version="1.1" id="Layer_1" xmlns="http://www.w3.org/2000/svg" xmlns:xlink="http://www.w3.org/1999/xlink" x="0px" y="0px"
	 width="100px" height="100px" viewBox="0 0 100 100" enable-background="new 0 0 100 100" xml:space="preserve">
<path d="M78.139,36.97h-7.166v-7.834c0-0.552-0.447-1-1-1H22.306c-0.552,0-1,0.448-1,1v36.666c0,0.553,0.448,1,1,1h7.166v7.834
	c0,0.553,0.448,1,1,1h47.667c0.553,0,1-0.447,1-1V37.97C79.139,37.417,78.691,36.97,78.139,36.97z M23.306,64.802V30.136h45.667
	v6.834h-38.5c-0.552,0-1,0.448-1,1v26.832H23.306z M77.139,73.636H31.472v-7.834V38.97h38.5h7.166V73.636z"/>
</svg>
