<?xml version="1.0" encoding="utf-8"?>
<!-- Generator: Adobe Illustrator 16.0.0, SVG Export Plug-In . SVG Version: 6.00 Build 0)  -->
<!DOCTYPE svg PUBLIC "-//W3C//DTD SVG 1.1//EN" "http://www.w3.org/Graphics/SVG/1.1/DTD/svg11.dtd">
<svg version="1.1" id="Layer_1" xmlns="http://www.w3.org/2000/svg" xmlns:xlink="http://www.w3.org/1999/xlink" x="0px" y="0px"
	 width="100px" height="100px" viewBox="0 0 100 100" enable-background="new 0 0 100 100" xml:space="preserve">
<path d="M68.321,44.529c-0.005-0.089-0.022-0.175-0.051-0.259c-0.011-0.032-0.02-0.063-0.033-0.093
	c-0.049-0.106-0.11-0.208-0.196-0.293L49.774,25.616c-0.086-0.086-0.187-0.147-0.293-0.196c-0.03-0.014-0.061-0.022-0.092-0.033
	c-0.085-0.029-0.171-0.046-0.261-0.052c-0.021-0.001-0.04-0.012-0.061-0.012H30.333c-0.552,0-1,0.448-1,1v47.355
	c0,0.553,0.448,1,1,1h37c0.553,0,1-0.447,1-1V44.591C68.334,44.569,68.323,44.55,68.321,44.529z M64.92,43.591H50.067V28.737
	L64.92,43.591z M31.333,72.678V27.323h16.733v17.268c0,0.552,0.448,1,1,1h17.267v27.087H31.333z"/>
</svg>
