<?xml version="1.0" encoding="utf-8"?>
<!-- Generator: Adobe Illustrator 16.0.0, SVG Export Plug-In . SVG Version: 6.00 Build 0)  -->
<!DOCTYPE svg PUBLIC "-//W3C//DTD SVG 1.1//EN" "http://www.w3.org/Graphics/SVG/1.1/DTD/svg11.dtd">
<svg version="1.1" id="Layer_1" xmlns="http://www.w3.org/2000/svg" xmlns:xlink="http://www.w3.org/1999/xlink" x="0px" y="0px"
	 width="100px" height="100px" viewBox="0 0 100 100" enable-background="new 0 0 100 100" xml:space="preserve">
<g>
	<path d="M77,32.182h-4.5v-8.486c0-0.552-0.447-1-1-1H28.833c-0.552,0-1,0.448-1,1v8.486h-2.368c-0.552,0-1,0.448-1,1s0.448,1,1,1
		h2.368v8.485c0,0.552,0.448,1,1,1H71.5c0.553,0,1-0.448,1-1v-8.485H76V47.5H50c-0.552,0-1,0.448-1,1v11.167h-2.333
		c-0.552,0-1,0.447-1,1v18c0,0.553,0.448,1,1,1h7.167c0.553,0,1-0.447,1-1v-18c0-0.553-0.447-1-1-1H51V49.5h26c0.553,0,1-0.448,1-1
		V33.182C78,32.629,77.553,32.182,77,32.182z M70.5,41.667H29.833V24.696H70.5V41.667z M52.833,77.667h-5.167v-16h5.167V77.667z"/>
	<path d="M66.584,26.667H33.75c-0.552,0-1,0.448-1,1s0.448,1,1,1h32.834c0.553,0,1-0.448,1-1S67.137,26.667,66.584,26.667z"/>
</g>
</svg>
