<?xml version="1.0" encoding="utf-8"?>
<!-- Generator: Adobe Illustrator 16.0.0, SVG Export Plug-In . SVG Version: 6.00 Build 0)  -->
<!DOCTYPE svg PUBLIC "-//W3C//DTD SVG 1.1//EN" "http://www.w3.org/Graphics/SVG/1.1/DTD/svg11.dtd">
<svg version="1.1" id="Layer_1" xmlns="http://www.w3.org/2000/svg" xmlns:xlink="http://www.w3.org/1999/xlink" x="0px" y="0px"
	 width="100px" height="100px" viewBox="0 0 100 100" enable-background="new 0 0 100 100" xml:space="preserve">
<g>
	<path d="M50.25,66.868c-7.726,0-14.011-6.285-14.011-14.011c0-7.725,6.285-14.011,14.011-14.011
		c7.726,0,14.011,6.286,14.011,14.011C64.261,60.583,57.975,66.868,50.25,66.868z M50.25,41.182
		c-6.438,0-11.676,5.238-11.676,11.676s5.237,11.675,11.676,11.675c6.438,0,11.675-5.237,11.675-11.675S56.688,41.182,50.25,41.182z
		"/>
</g>
<g>
	<path d="M50.25,62.003c-5.042,0-9.146-4.103-9.146-9.146c0-5.042,4.103-9.146,9.146-9.146c5.042,0,9.146,4.103,9.146,9.146
		C59.396,57.9,55.292,62.003,50.25,62.003z M50.25,46.046c-3.756,0-6.811,3.056-6.811,6.811c0,3.754,3.056,6.811,6.811,6.811
		c3.754,0,6.811-3.057,6.811-6.811C57.061,49.102,54.004,46.046,50.25,46.046z"/>
</g>
<g>
	<path d="M74.749,72.066H25.75c-0.552,0-1-0.447-1-1V38.639c0-0.552,0.448-1,1-1H36v-4.99c0-0.552,0.448-1,1-1h26.833
		c0.553,0,1,0.448,1,1v4.99h9.916c0.553,0,1,0.448,1,1v32.427C75.749,71.619,75.302,72.066,74.749,72.066z M26.75,70.066h46.999
		V39.639h-9.916c-0.553,0-1-0.448-1-1v-4.99H38v4.99c0,0.552-0.448,1-1,1H26.75V70.066z"/>
</g>
</svg>
