<?xml version="1.0" encoding="utf-8"?>
<!-- Generator: Adobe Illustrator 16.0.0, SVG Export Plug-In . SVG Version: 6.00 Build 0)  -->
<!DOCTYPE svg PUBLIC "-//W3C//DTD SVG 1.1//EN" "http://www.w3.org/Graphics/SVG/1.1/DTD/svg11.dtd">
<svg version="1.1" id="Layer_1" xmlns="http://www.w3.org/2000/svg" xmlns:xlink="http://www.w3.org/1999/xlink" x="0px" y="0px"
	 width="100px" height="100px" viewBox="0 0 100 100" enable-background="new 0 0 100 100" xml:space="preserve">
<path d="M70.299,29.701c-5.414-5.415-12.623-8.396-20.3-8.396S35.113,24.287,29.7,29.701C24.286,35.114,21.304,42.324,21.305,50
	c0,7.677,2.982,14.886,8.396,20.3s12.623,8.396,20.3,8.396c0,0,0,0,0,0c7.676,0,14.885-2.981,20.298-8.396
	c5.415-5.413,8.396-12.622,8.396-20.299S75.714,35.115,70.299,29.701z M71.503,61.711L56.39,53.956l18.031-2.234
	C74.176,55.264,73.166,58.654,71.503,61.711z M25.646,47.492c0.572-5.602,3.046-10.833,7.029-14.816
	c4.62-4.619,10.772-7.163,17.324-7.163c6.552,0,12.705,2.544,17.325,7.164c3.983,3.983,6.459,9.216,7.029,14.822l-23.834,2.87
	L25.646,47.492z M51.36,55.871l17.929,9.199c-0.611,0.782-1.255,1.543-1.966,2.254c-4.615,4.615-10.763,7.157-17.312,7.157
	c-2.205,0-4.387-0.292-6.501-0.87L51.36,55.871z M47.448,54.411l-7.89,17.746c-2.561-1.202-4.871-2.824-6.88-4.834
	c-4.194-4.192-6.689-9.696-7.099-15.603L47.448,54.411z"/>
</svg>
