<?xml version="1.0" encoding="utf-8"?>
<!-- Generator: Adobe Illustrator 16.0.0, SVG Export Plug-In . SVG Version: 6.00 Build 0)  -->
<!DOCTYPE svg PUBLIC "-//W3C//DTD SVG 1.1//EN" "http://www.w3.org/Graphics/SVG/1.1/DTD/svg11.dtd">
<svg version="1.1" id="Layer_1" xmlns="http://www.w3.org/2000/svg" xmlns:xlink="http://www.w3.org/1999/xlink" x="0px" y="0px"
	 width="100px" height="100px" viewBox="0 0 100 100" enable-background="new 0 0 100 100" xml:space="preserve">
<g>
	<path d="M49.718,76.468c-14.336,0-26-11.663-26-26c0-14.336,11.664-26,26-26s26,11.664,26,26
		C75.719,64.805,64.055,76.468,49.718,76.468z M49.718,26.468c-13.233,0-24,10.767-24,24s10.767,24,24,24c13.234,0,24-10.767,24-24
		S62.952,26.468,49.718,26.468z"/>
</g>
<g>
	<g>
		<path d="M47.443,55.578l-0.07-0.91c-0.21-1.891,0.42-3.955,2.171-6.056c1.576-1.855,2.451-3.221,2.451-4.796
			c0-1.785-1.121-2.975-3.327-3.01c-1.26,0-2.66,0.42-3.535,1.085l-0.84-2.205c1.155-0.84,3.15-1.4,5.006-1.4
			c4.026,0,5.846,2.485,5.846,5.146c0,2.38-1.33,4.096-3.012,6.091c-1.539,1.82-2.1,3.36-1.995,5.146l0.035,0.91H47.443z
			 M46.672,60.479c0-1.295,0.876-2.205,2.101-2.205c1.226,0,2.065,0.91,2.065,2.205c0,1.225-0.805,2.17-2.1,2.17
			C47.513,62.648,46.672,61.703,46.672,60.479z"/>
	</g>
</g>
</svg>
