<?xml version="1.0" encoding="utf-8"?>
<!-- Generator: Adobe Illustrator 16.0.0, SVG Export Plug-In . SVG Version: 6.00 Build 0)  -->
<!DOCTYPE svg PUBLIC "-//W3C//DTD SVG 1.1//EN" "http://www.w3.org/Graphics/SVG/1.1/DTD/svg11.dtd">
<svg version="1.1" id="Layer_1" xmlns="http://www.w3.org/2000/svg" xmlns:xlink="http://www.w3.org/1999/xlink" x="0px" y="0px"
	 width="100px" height="100px" viewBox="0 0 100 100" enable-background="new 0 0 100 100" xml:space="preserve">
<g>
	<path d="M42.729,41.899c1.344,0,2.438-1.094,2.438-2.438s-1.094-2.438-2.438-2.438s-2.438,1.094-2.438,2.438
		S41.385,41.899,42.729,41.899z M42.729,39.023c0.242,0,0.438,0.196,0.438,0.438s-0.196,0.438-0.438,0.438s-0.438-0.196-0.438-0.438
		S42.487,39.023,42.729,39.023z"/>
	<path d="M42.729,47.961c1.344,0,2.438-1.094,2.438-2.438s-1.094-2.438-2.438-2.438s-2.438,1.094-2.438,2.438
		S41.385,47.961,42.729,47.961z M42.729,45.085c0.242,0,0.438,0.196,0.438,0.438s-0.196,0.438-0.438,0.438s-0.438-0.196-0.438-0.438
		S42.487,45.085,42.729,45.085z"/>
	<path d="M42.729,53.898c1.344,0,2.438-1.094,2.438-2.438c0-1.344-1.094-2.438-2.438-2.438s-2.438,1.094-2.438,2.438
		C40.291,52.805,41.385,53.898,42.729,53.898z M42.729,51.022c0.242,0,0.438,0.197,0.438,0.438s-0.196,0.438-0.438,0.438
		s-0.438-0.196-0.438-0.438S42.487,51.022,42.729,51.022z"/>
	<path d="M48.061,50.931c1.344,0,2.438-1.094,2.438-2.438s-1.094-2.438-2.438-2.438s-2.438,1.094-2.438,2.438
		S46.717,50.931,48.061,50.931z M48.061,48.054c0.242,0,0.438,0.196,0.438,0.438s-0.196,0.438-0.438,0.438s-0.438-0.196-0.438-0.438
		S47.819,48.054,48.061,48.054z"/>
	<path d="M48.061,56.868c1.344,0,2.438-1.094,2.438-2.438c0-1.344-1.094-2.438-2.438-2.438s-2.438,1.094-2.438,2.438
		C45.623,55.774,46.717,56.868,48.061,56.868z M48.061,53.992c0.242,0,0.438,0.196,0.438,0.438c0,0.242-0.196,0.438-0.438,0.438
		s-0.438-0.196-0.438-0.438C47.623,54.188,47.819,53.992,48.061,53.992z"/>
	<path d="M34.748,48.492c0,1.344,1.094,2.438,2.438,2.438s2.438-1.094,2.438-2.438s-1.094-2.438-2.438-2.438
		S34.748,47.148,34.748,48.492z M37.624,48.492c0,0.242-0.196,0.438-0.438,0.438s-0.438-0.196-0.438-0.438s0.196-0.438,0.438-0.438
		S37.624,48.25,37.624,48.492z"/>
	<path d="M37.186,51.992c-1.344,0-2.438,1.094-2.438,2.438c0,1.345,1.094,2.438,2.438,2.438s2.438-1.094,2.438-2.438
		C39.624,53.086,38.53,51.992,37.186,51.992z M37.186,54.868c-0.242,0-0.438-0.196-0.438-0.438c0-0.241,0.196-0.438,0.438-0.438
		s0.438,0.196,0.438,0.438C37.624,54.672,37.428,54.868,37.186,54.868z"/>
	<path d="M42.729,59.773c1.344,0,2.438-1.094,2.438-2.438s-1.094-2.438-2.438-2.438s-2.438,1.094-2.438,2.438
		S41.385,59.773,42.729,59.773z M42.729,56.898c0.242,0,0.438,0.196,0.438,0.438s-0.196,0.438-0.438,0.438s-0.438-0.196-0.438-0.438
		S42.487,56.898,42.729,56.898z"/>
	<path d="M42.729,65.961c1.344,0,2.438-1.094,2.438-2.438c0-1.345-1.094-2.438-2.438-2.438s-2.438,1.094-2.438,2.438
		C40.291,64.867,41.385,65.961,42.729,65.961z M42.729,63.085c0.242,0,0.438,0.196,0.438,0.438c0,0.241-0.196,0.438-0.438,0.438
		s-0.438-0.196-0.438-0.438C42.291,63.281,42.487,63.085,42.729,63.085z"/>
	<path d="M36.229,59.085c-1.344,0-2.438,1.094-2.438,2.438c0,1.344,1.094,2.438,2.438,2.438s2.438-1.094,2.438-2.438
		C38.667,60.179,37.573,59.085,36.229,59.085z M36.229,61.961c-0.242,0-0.438-0.196-0.438-0.438c0-0.242,0.196-0.438,0.438-0.438
		s0.438,0.196,0.438,0.438C36.667,61.765,36.471,61.961,36.229,61.961z"/>
	<path d="M49.229,59.085c-1.344,0-2.438,1.094-2.438,2.438c0,1.344,1.094,2.438,2.438,2.438s2.438-1.094,2.438-2.438
		C51.667,60.179,50.573,59.085,49.229,59.085z M49.229,61.961c-0.242,0-0.438-0.196-0.438-0.438c0-0.242,0.196-0.438,0.438-0.438
		s0.438,0.196,0.438,0.438C49.667,61.765,49.471,61.961,49.229,61.961z"/>
	<path d="M53.291,54.898c-1.344,0-2.438,1.094-2.438,2.438s1.094,2.438,2.438,2.438s2.438-1.094,2.438-2.438
		S54.635,54.898,53.291,54.898z M53.291,57.773c-0.241,0-0.438-0.196-0.438-0.438s0.196-0.438,0.438-0.438s0.438,0.196,0.438,0.438
		S53.532,57.773,53.291,57.773z"/>
	<path d="M52.729,51.461c0,1.344,1.094,2.438,2.438,2.438s2.438-1.094,2.438-2.438c0-1.344-1.094-2.438-2.438-2.438
		S52.729,50.117,52.729,51.461z M55.604,51.461c0,0.241-0.196,0.438-0.438,0.438s-0.438-0.196-0.438-0.438s0.196-0.438,0.438-0.438
		S55.604,51.22,55.604,51.461z"/>
	<path d="M50.854,45.523c0,1.344,1.094,2.438,2.438,2.438s2.438-1.094,2.438-2.438s-1.094-2.438-2.438-2.438
		S50.854,44.179,50.854,45.523z M53.291,45.085c0.241,0,0.438,0.196,0.438,0.438s-0.196,0.438-0.438,0.438s-0.438-0.196-0.438-0.438
		S53.05,45.085,53.291,45.085z"/>
	<path d="M49.229,43.961c1.344,0,2.438-1.094,2.438-2.438s-1.094-2.438-2.438-2.438s-2.438,1.094-2.438,2.438
		S47.885,43.961,49.229,43.961z M49.229,41.085c0.242,0,0.438,0.196,0.438,0.438s-0.196,0.438-0.438,0.438s-0.438-0.196-0.438-0.438
		S48.987,41.085,49.229,41.085z"/>
	<path d="M36.229,43.899c1.344,0,2.438-1.094,2.438-2.438s-1.094-2.438-2.438-2.438s-2.438,1.094-2.438,2.438
		S34.885,43.899,36.229,43.899z M36.229,41.023c0.242,0,0.438,0.196,0.438,0.438s-0.196,0.438-0.438,0.438s-0.438-0.196-0.438-0.438
		S35.987,41.023,36.229,41.023z"/>
	<path d="M32.166,48.086c1.344,0,2.438-1.094,2.438-2.438s-1.094-2.438-2.438-2.438s-2.438,1.094-2.438,2.438
		S30.822,48.086,32.166,48.086z M32.166,45.21c0.242,0,0.438,0.196,0.438,0.438s-0.196,0.438-0.438,0.438s-0.438-0.196-0.438-0.438
		S31.924,45.21,32.166,45.21z"/>
	<path d="M30.291,53.961c1.344,0,2.438-1.094,2.438-2.438c0-1.345-1.094-2.438-2.438-2.438s-2.438,1.094-2.438,2.438
		C27.853,52.867,28.947,53.961,30.291,53.961z M30.291,51.085c0.242,0,0.438,0.196,0.438,0.438c0,0.241-0.196,0.438-0.438,0.438
		s-0.438-0.196-0.438-0.438C29.853,51.281,30.049,51.085,30.291,51.085z"/>
	<path d="M34.604,57.461c0-1.344-1.094-2.438-2.438-2.438s-2.438,1.094-2.438,2.438s1.094,2.438,2.438,2.438
		S34.604,58.805,34.604,57.461z M32.166,57.898c-0.242,0-0.438-0.196-0.438-0.438s0.196-0.438,0.438-0.438s0.438,0.196,0.438,0.438
		S32.408,57.898,32.166,57.898z"/>
	<path d="M65.604,45.086c2.31,0,4.188-1.879,4.188-4.188s-1.879-4.188-4.188-4.188c-2.309,0-4.188,1.879-4.188,4.188
		S63.295,45.086,65.604,45.086z M65.604,38.71c1.207,0,2.188,0.981,2.188,2.188s-0.981,2.188-2.188,2.188
		c-1.206,0-2.188-0.981-2.188-2.188S64.397,38.71,65.604,38.71z"/>
	<path d="M65.604,55.711c2.31,0,4.188-1.879,4.188-4.188c0-2.309-1.879-4.188-4.188-4.188c-2.309,0-4.188,1.879-4.188,4.188
		C61.416,53.832,63.295,55.711,65.604,55.711z M65.604,49.334c1.207,0,2.188,0.981,2.188,2.188c0,1.207-0.981,2.188-2.188,2.188
		c-1.206,0-2.188-0.981-2.188-2.188C63.416,50.316,64.397,49.334,65.604,49.334z"/>
	<path d="M75.666,31.125H40.683l25.329-11.337c0.505-0.226,0.73-0.817,0.505-1.321c-0.226-0.503-0.814-0.732-1.321-0.504
		L35.82,31.11c-0.008,0.003-0.013,0.011-0.021,0.015H24.334c-0.552,0-1,0.448-1,1v38.064c0,0.553,0.448,1,1,1h51.332
		c0.553,0,1-0.447,1-1V32.125C76.666,31.573,76.219,31.125,75.666,31.125z M74.666,69.189H25.334V33.125h49.332V69.189z"/>
</g>
</svg>
