<?xml version="1.0" encoding="utf-8"?>
<!-- Generator: Adobe Illustrator 16.0.0, SVG Export Plug-In . SVG Version: 6.00 Build 0)  -->
<!DOCTYPE svg PUBLIC "-//W3C//DTD SVG 1.1//EN" "http://www.w3.org/Graphics/SVG/1.1/DTD/svg11.dtd">
<svg version="1.1" id="Layer_1" xmlns="http://www.w3.org/2000/svg" xmlns:xlink="http://www.w3.org/1999/xlink" x="0px" y="0px"
	 width="100px" height="100px" viewBox="0 0 100 100" enable-background="new 0 0 100 100" xml:space="preserve">
<path d="M74.193,57.476c-0.553,0-1,0.447-1,1c0,11.614-9.448,21.063-21.063,21.063c-11.614,0-21.063-9.448-21.063-21.063
	c0-11.276,8.915-20.484,20.063-21.012v6.002c0,0.329,0.161,0.636,0.432,0.823c0.169,0.117,0.368,0.177,0.568,0.177
	c0.119,0,0.239-0.021,0.354-0.064l18.672-7.053c0.389-0.147,0.646-0.52,0.646-0.936s-0.258-0.789-0.646-0.936l-18.672-7.053
	c-0.308-0.116-0.653-0.075-0.922,0.113c-0.271,0.187-0.432,0.494-0.432,0.823v6.079c-12.254,0.526-22.063,10.656-22.063,23.037
	c0,12.717,10.346,23.063,23.063,23.063s23.063-10.346,23.063-23.063C75.193,57.923,74.746,57.476,74.193,57.476z M53.131,30.807
	l14.842,5.606l-14.842,5.606V30.807z"/>
</svg>
