<?xml version="1.0" encoding="utf-8"?>
<!-- Generator: Adobe Illustrator 16.0.0, SVG Export Plug-In . SVG Version: 6.00 Build 0)  -->
<!DOCTYPE svg PUBLIC "-//W3C//DTD SVG 1.1//EN" "http://www.w3.org/Graphics/SVG/1.1/DTD/svg11.dtd">
<svg version="1.1" id="Layer_1" xmlns="http://www.w3.org/2000/svg" xmlns:xlink="http://www.w3.org/1999/xlink" x="0px" y="0px"
	 width="100px" height="100px" viewBox="0 0 100 100" enable-background="new 0 0 100 100" xml:space="preserve">
<g>
	<path d="M69.167,26.074H30.833c-0.552,0-1,0.448-1,1v45.852c0,0.32,0.152,0.619,0.41,0.809s0.592,0.24,0.894,0.145L50,67.865
		l18.863,6.014c0.1,0.031,0.202,0.047,0.304,0.047c0.21,0,0.417-0.064,0.59-0.191c0.258-0.189,0.41-0.488,0.41-0.809V27.074
		C70.167,26.521,69.72,26.074,69.167,26.074z M68.167,71.559l-17.863-5.697c-0.099-0.031-0.201-0.047-0.304-0.047
		s-0.205,0.016-0.304,0.047l-17.863,5.697V28.074h36.334V71.559z"/>
	<path d="M36,49h28c0.553,0,1-0.447,1-1c0-0.552-0.447-1-1-1H36c-0.552,0-1,0.448-1,1C35,48.553,35.448,49,36,49z"/>
	<path d="M36,55h28c0.553,0,1-0.447,1-1s-0.447-1-1-1H36c-0.552,0-1,0.447-1,1S35.448,55,36,55z"/>
	<path d="M36,43h28c0.553,0,1-0.448,1-1s-0.447-1-1-1H36c-0.552,0-1,0.448-1,1S35.448,43,36,43z"/>
	<path d="M36,37h28c0.553,0,1-0.448,1-1s-0.447-1-1-1H36c-0.552,0-1,0.448-1,1S35.448,37,36,37z"/>
</g>
</svg>
