<?xml version="1.0" encoding="utf-8"?>
<!-- Generator: Adobe Illustrator 16.0.0, SVG Export Plug-In . SVG Version: 6.00 Build 0)  -->
<!DOCTYPE svg PUBLIC "-//W3C//DTD SVG 1.1//EN" "http://www.w3.org/Graphics/SVG/1.1/DTD/svg11.dtd">
<svg version="1.1" id="Layer_1" xmlns="http://www.w3.org/2000/svg" xmlns:xlink="http://www.w3.org/1999/xlink" x="0px" y="0px"
	 width="100px" height="100px" viewBox="0 0 100 100" enable-background="new 0 0 100 100" xml:space="preserve">
<g>
	<path d="M73.41,48.531c0.002-0.093,0.003-0.185,0.003-0.276c0-7.58-6.167-13.747-13.748-13.747c-1.26,0-2.503,0.17-3.705,0.507
		c-2.129-3.27-5.778-5.269-9.709-5.269c-4.648,0-8.746,2.685-10.596,6.888c-6.497,1.13-11.327,6.817-11.327,13.462
		c0,4.111,1.883,8.037,5.065,10.62c-0.042,0.354-0.063,0.708-0.063,1.057c0,5.146,4.187,9.334,9.333,9.334
		c1.036,0,2.085-0.179,3.07-0.521c3.243,2.974,7.557,4.668,11.938,4.668c6.414,0,12.249-3.434,15.385-9.005
		c5.269,0.184,9.617-4.09,9.617-9.328C78.673,53.361,76.585,50.078,73.41,48.531z M68.58,64.216l-0.678-0.068l-0.312,0.605
		c-2.663,5.165-8.127,8.502-13.92,8.502c-4.075,0-8.086-1.655-11.004-4.54l-0.479-0.475l-0.619,0.268
		c-0.911,0.393-1.916,0.6-2.905,0.6c-4.044,0-7.333-3.29-7.333-7.334c0-0.428,0.041-0.867,0.123-1.305l0.114-0.615l-0.502-0.371
		c-2.965-2.193-4.736-5.702-4.736-9.386c0-5.841,4.37-10.814,10.165-11.567l0.592-0.077l0.213-0.558
		c1.428-3.735,4.942-6.148,8.953-6.148c3.48,0,6.692,1.894,8.384,4.943l0.407,0.734l0.794-0.274
		c1.229-0.425,2.518-0.641,3.829-0.641c6.478,0,11.748,5.27,11.748,11.747c0,0.267-0.011,0.539-0.035,0.828l-0.064,0.744
		l0.696,0.272c2.789,1.092,4.663,3.833,4.663,6.823C76.673,61.214,72.957,64.668,68.58,64.216z"/>
	<path d="M50.049,50.577c0.159,0.097,0.339,0.146,0.52,0.146c0.158,0,0.315-0.037,0.46-0.112l7.682-3.984
		c0.338-0.175,0.547-0.525,0.54-0.905c-0.007-0.38-0.228-0.723-0.57-0.886l-7.682-3.653c-0.311-0.146-0.672-0.126-0.964,0.058
		c-0.29,0.183-0.466,0.502-0.466,0.845v2.462c-4.899,0.228-8.818,4.269-8.818,9.223c0,5.101,4.149,9.25,9.25,9.25
		c5.102,0,9.25-4.149,9.25-9.25c0-0.554-0.447-1.002-1-1.002s-1,0.448-1,1c0,3.998-3.252,7.25-7.25,7.25s-7.25-3.252-7.25-7.25
		c0-3.851,3.023-6.996,6.818-7.221v3.174C49.568,50.072,49.75,50.396,50.049,50.577z M51.568,43.669l3.719,1.769l0.716,0.34
		l-1.446,0.75l-2.988,1.549V43.669z"/>
</g>
</svg>
