<?xml version="1.0" encoding="utf-8"?>
<!-- Generator: Adobe Illustrator 16.0.0, SVG Export Plug-In . SVG Version: 6.00 Build 0)  -->
<!DOCTYPE svg PUBLIC "-//W3C//DTD SVG 1.1//EN" "http://www.w3.org/Graphics/SVG/1.1/DTD/svg11.dtd">
<svg version="1.1" id="Layer_1" xmlns="http://www.w3.org/2000/svg" xmlns:xlink="http://www.w3.org/1999/xlink" x="0px" y="0px"
	 width="100px" height="100px" viewBox="0 0 100 100" enable-background="new 0 0 100 100" xml:space="preserve">
<g>
	<path d="M73.342,67.926c-2.661,0-5.831-7.686-6.31-19.085v-8.927c0-9.374-7.626-17-17-17s-17,7.626-17,17v5.888
		c0,12.663-3.366,22.125-6.375,22.125c-0.552,0-1,0.447-1,1s0.448,1,1,1h46.685c0.553,0,1-0.447,1-1S73.895,67.926,73.342,67.926z
		 M30.163,67.926c3.184-3.978,4.87-13.263,4.87-22.125v-5.888c0-8.271,6.729-15,15-15c8.271,0,15,6.729,15,15l0.001,8.969
		c0.314,7.504,1.921,15.433,4.805,19.043H30.163z"/>
	<path d="M55.166,71.1c-0.553,0-1,0.447-1,1c0,1.619-1.908,2.987-4.167,2.987s-4.167-1.368-4.167-2.987c0-0.553-0.448-1-1-1
		s-1,0.447-1,1c0,2.75,2.767,4.987,6.167,4.987s6.167-2.237,6.167-4.987C56.166,71.547,55.719,71.1,55.166,71.1z"/>
</g>
</svg>
