<?xml version="1.0" encoding="utf-8"?>
<!-- Generator: Adobe Illustrator 16.0.0, SVG Export Plug-In . SVG Version: 6.00 Build 0)  -->
<!DOCTYPE svg PUBLIC "-//W3C//DTD SVG 1.1//EN" "http://www.w3.org/Graphics/SVG/1.1/DTD/svg11.dtd">
<svg version="1.1" id="Layer_1" xmlns="http://www.w3.org/2000/svg" xmlns:xlink="http://www.w3.org/1999/xlink" x="0px" y="0px"
	 width="100px" height="100px" viewBox="0 0 100 100" enable-background="new 0 0 100 100" xml:space="preserve">
<g>
	<path d="M66.895,37.975l0.607-0.609l1.875,1.875c0.195,0.195,0.451,0.293,0.707,0.293s0.512-0.098,0.707-0.293
		c0.391-0.391,0.391-1.023,0-1.414l-4.748-4.748c-0.391-0.391-1.023-0.391-1.414,0c-0.391,0.391-0.391,1.023,0,1.414l1.458,1.459
		l-0.644,0.645c-3.899-3.409-8.928-5.553-14.444-5.785v-1.157c0-0.552-0.448-1-1-1c-0.552,0-1,0.448-1,1v1.157
		c-12.496,0.526-22.5,10.852-22.5,23.475c0,12.958,10.542,23.5,23.5,23.5s23.5-10.542,23.5-23.5
		C73.5,47.955,70.979,42.205,66.895,37.975z M66.463,68.088l-2.611-2.61c-0.391-0.391-1.023-0.391-1.414,0s-0.391,1.023,0,1.414
		l2.671,2.67c-3.636,3.596-8.548,5.885-13.984,6.168c0.028-0.093,0.058-0.186,0.058-0.287l-0.001-3.889c0-0.553-0.447-1-1-1
		s-1,0.448-1,1l0,3.889c0,0.108,0.03,0.208,0.062,0.306c-5.501-0.193-10.479-2.447-14.181-6.032c0.037-0.027,0.08-0.042,0.113-0.075
		l2.75-2.75c0.391-0.391,0.391-1.023,0-1.414s-1.023-0.391-1.414,0l-2.75,2.75c-0.018,0.019-0.025,0.043-0.042,0.063
		c-3.244-3.767-5.22-8.654-5.22-14.003c0-0.022,0.003-0.043,0.003-0.065h3.344c0.552,0,1-0.447,1-1s-0.448-1-1-1h-3.243
		c0.485-5.063,2.731-9.617,6.12-13.043l1.787,1.787c0.195,0.195,0.451,0.293,0.707,0.293s0.512-0.098,0.707-0.293
		c0.391-0.391,0.391-1.023,0-1.414l-1.727-1.727c3.506-2.944,7.964-4.771,12.838-4.988v2.053c0,0.552,0.448,1,1,1
		c0.553,0,1-0.448,1-1v-2.049c4.937,0.237,9.438,2.131,12.956,5.157l-1.555,1.554c-0.391,0.39-0.391,1.023,0,1.414
		c0.195,0.195,0.451,0.293,0.707,0.293s0.512-0.098,0.707-0.293l1.597-1.596c3.288,3.404,5.471,7.88,5.947,12.853h-2.882
		c-0.553,0-1,0.447-1,1s0.447,1,1,1h2.983c0,0.022,0.003,0.043,0.003,0.065C71.5,59.537,69.602,64.35,66.463,68.088z"/>
	<path d="M51.536,53.286H51V39.97c0-0.552-0.447-1-1-1c-0.552,0-1,0.448-1,1v13.315h-0.464c-0.552,0-1,0.447-1,1
		c0,0.552,0.448,1,1,1H49v1.117c0,0.553,0.448,1,1,1c0.553,0,1-0.447,1-1v-1.117h0.536c0.552,0,1-0.448,1-1
		C52.536,53.732,52.088,53.286,51.536,53.286z"/>
</g>
</svg>
