<?xml version="1.0" encoding="utf-8"?>
<!-- Generator: Adobe Illustrator 16.0.0, SVG Export Plug-In . SVG Version: 6.00 Build 0)  -->
<!DOCTYPE svg PUBLIC "-//W3C//DTD SVG 1.1//EN" "http://www.w3.org/Graphics/SVG/1.1/DTD/svg11.dtd">
<svg version="1.1" id="Layer_1" xmlns="http://www.w3.org/2000/svg" xmlns:xlink="http://www.w3.org/1999/xlink" x="0px" y="0px"
	 width="100px" height="100px" viewBox="0 0 100 100" enable-background="new 0 0 100 100" xml:space="preserve">
<g>
	<path d="M47.192,63.503c-2.481,0-4.5,2.02-4.5,4.5c0,2.481,2.019,4.5,4.5,4.5c2.481,0,4.5-2.019,4.5-4.5
		C51.692,65.522,49.674,63.503,47.192,63.503z M47.192,70.503c-1.378,0-2.5-1.121-2.5-2.5c0-1.378,1.122-2.5,2.5-2.5
		c1.378,0,2.5,1.122,2.5,2.5C49.692,69.382,48.571,70.503,47.192,70.503z"/>
	<path d="M61.294,63.503c-2.481,0-4.5,2.02-4.5,4.5c0,2.481,2.019,4.5,4.5,4.5c2.48,0,4.5-2.019,4.5-4.5
		C65.794,65.522,63.774,63.503,61.294,63.503z M61.294,70.503c-1.379,0-2.5-1.121-2.5-2.5c0-1.378,1.121-2.5,2.5-2.5
		c1.377,0,2.5,1.122,2.5,2.5C63.794,69.382,62.671,70.503,61.294,70.503z"/>
	<path d="M72.318,38.882c-0.189-0.242-0.479-0.383-0.787-0.383H37.72l-2.787-10.265c-0.006-0.022-0.022-0.039-0.03-0.06
		c-0.022-0.065-0.055-0.122-0.09-0.18c-0.033-0.055-0.063-0.109-0.105-0.156c-0.041-0.047-0.089-0.082-0.139-0.12
		c-0.052-0.04-0.102-0.079-0.161-0.108c-0.055-0.028-0.114-0.042-0.175-0.06c-0.065-0.019-0.128-0.035-0.197-0.04
		c-0.024-0.001-0.044-0.014-0.069-0.014h-5.5c-0.552,0-1,0.448-1,1s0.448,1,1,1h4.735l2.783,10.252l4.998,20.247
		c0.11,0.447,0.511,0.761,0.971,0.761h24.576c0.46,0,0.86-0.313,0.971-0.761l5-20.256C72.576,39.44,72.508,39.125,72.318,38.882z
		 M65.748,58.756h-23.01l-4.506-18.257h32.023L65.748,58.756z"/>
</g>
</svg>
