<?xml version="1.0" encoding="utf-8"?>
<!-- Generator: Adobe Illustrator 16.0.0, SVG Export Plug-In . SVG Version: 6.00 Build 0)  -->
<!DOCTYPE svg PUBLIC "-//W3C//DTD SVG 1.1//EN" "http://www.w3.org/Graphics/SVG/1.1/DTD/svg11.dtd">
<svg version="1.1" id="Layer_1" xmlns="http://www.w3.org/2000/svg" xmlns:xlink="http://www.w3.org/1999/xlink" x="0px" y="0px"
	 width="100px" height="100px" viewBox="0 0 100 100" enable-background="new 0 0 100 100" xml:space="preserve">
<g>
	<path d="M62.039,35.22c0.019,0,0.034-0.01,0.053-0.011h9.006l-5.756,5.757c-0.391,0.391-0.391,1.023,0,1.414
		c0.195,0.195,0.451,0.293,0.707,0.293s0.512-0.098,0.707-0.293l7.177-7.177c0.392-0.391,0.392-1.024,0-1.415l-0.286-0.286v-0.001
		l-7.463-7.463c-0.391-0.391-1.023-0.391-1.414,0c-0.391,0.39-0.391,1.023,0,1.415l5.756,5.757H59.541
		c-0.03,0-0.061,0.007-0.092,0.01h-0.181c-0.13,0-0.26,0.026-0.382,0.077c-0.123,0.051-0.233,0.124-0.326,0.217L43,59.074h-2.422
		h-7.789h-0.518c-0.553,0-1,0.447-1,1s0.447,1,1,1h0.518h7.898h2.727c0.13,0,0.26-0.025,0.382-0.076
		c0.123-0.051,0.233-0.125,0.326-0.217L59.683,35.22H62.039z"/>
	<path d="M66.756,51.939c-0.195-0.195-0.451-0.293-0.707-0.293s-0.512,0.098-0.707,0.293c-0.391,0.391-0.391,1.021,0,1.414
		l5.756,5.756h-9.006c-0.019,0-0.034-0.01-0.053-0.01h-2.356l-6.098-10.017l-1.081,1.775l6.057,9.947
		c0.093,0.094,0.203,0.166,0.326,0.217c0.122,0.051,0.252,0.078,0.382,0.078h0.181c0.031,0.002,0.062,0.01,0.092,0.01h10.984
		l-5.756,5.756c-0.391,0.393-0.391,1.025,0,1.416s1.023,0.391,1.414,0l7.463-7.463v-0.002l0.286-0.285
		c0.392-0.391,0.392-1.025,0-1.416L66.756,51.939z"/>
	<path d="M32.271,35.245h0.518h7.789H43l6.083,9.992l1.08-1.774l-6.042-9.923c-0.092-0.093-0.203-0.166-0.326-0.217
		c-0.122-0.051-0.251-0.077-0.382-0.077h-2.727h-7.898h-0.518c-0.553,0-1,0.448-1,1C31.271,34.797,31.718,35.245,32.271,35.245z"/>
</g>
</svg>
