<?xml version="1.0" encoding="utf-8"?>
<!-- Generator: Adobe Illustrator 16.0.0, SVG Export Plug-In . SVG Version: 6.00 Build 0)  -->
<!DOCTYPE svg PUBLIC "-//W3C//DTD SVG 1.1//EN" "http://www.w3.org/Graphics/SVG/1.1/DTD/svg11.dtd">
<svg version="1.1" id="Layer_1" xmlns="http://www.w3.org/2000/svg" xmlns:xlink="http://www.w3.org/1999/xlink" x="0px" y="0px"
	 width="100px" height="100px" viewBox="0 0 100 100" enable-background="new 0 0 100 100" xml:space="preserve">
<path d="M78.489,28.751l-28.124-11c-0.047-0.019-0.095-0.014-0.143-0.025c-0.074-0.018-0.146-0.04-0.223-0.04
	c-0.08,0-0.153,0.022-0.229,0.041c-0.045,0.011-0.09,0.007-0.134,0.024l-0.038,0.015c0,0,0,0,0,0L21.511,28.751
	c-0.468,0.184-0.702,0.68-0.591,1.156c-0.027,0.09-0.044,0.184-0.044,0.281v36.125c0,0.369,0.204,0.709,0.529,0.883l28.125,15
	c0.046,0.024,0.095,0.038,0.143,0.055c0.025,0.009,0.049,0.021,0.075,0.028c0.083,0.021,0.168,0.034,0.253,0.034
	s0.17-0.013,0.253-0.034c0.026-0.007,0.05-0.02,0.075-0.028c0.048-0.017,0.097-0.03,0.143-0.055l28.125-15
	c0.326-0.174,0.529-0.514,0.529-0.883V30.188c0-0.097-0.018-0.19-0.044-0.281C79.192,29.432,78.958,28.935,78.489,28.751z
	 M50,42.087L23.832,29.991l26.169-10.234l26.168,10.234L50,42.087z M22.875,31.753L49,43.828v35.818L22.875,65.714V31.753z
	 M77.125,65.714L51,79.646V43.828l26.125-12.075V65.714z"/>
</svg>
