<?xml version="1.0" encoding="utf-8"?>
<!-- Generator: Adobe Illustrator 16.0.0, SVG Export Plug-In . SVG Version: 6.00 Build 0)  -->
<!DOCTYPE svg PUBLIC "-//W3C//DTD SVG 1.1//EN" "http://www.w3.org/Graphics/SVG/1.1/DTD/svg11.dtd">
<svg version="1.1" id="Layer_1" xmlns="http://www.w3.org/2000/svg" xmlns:xlink="http://www.w3.org/1999/xlink" x="0px" y="0px"
	 width="100px" height="100px" viewBox="0 0 100 100" enable-background="new 0 0 100 100" xml:space="preserve">
<path d="M68.676,23.105c-2.389-0.752-4.841-1.118-7.498-1.118c-3.908,0-7.708,0.803-11.383,1.58
	c-3.574,0.755-7.27,1.537-10.969,1.537c-2.451,0-4.708-0.336-6.899-1.026c-0.036-0.011-0.073,0-0.11-0.008
	c-0.064-0.013-0.123-0.039-0.191-0.039c-0.033,0-0.06,0.016-0.092,0.019c-0.056,0.005-0.106,0.018-0.16,0.032
	c-0.092,0.024-0.176,0.059-0.255,0.107c-0.027,0.016-0.059,0.017-0.084,0.036c-0.031,0.022-0.055,0.052-0.083,0.077
	c-0.017,0.016-0.033,0.029-0.048,0.045c-0.077,0.082-0.139,0.173-0.185,0.274c-0.009,0.019-0.014,0.039-0.021,0.058
	c-0.042,0.112-0.071,0.229-0.071,0.352c-0.003,10.668-0.002,21.335-0.001,32.002c0,0.002,0.001,0.004,0.001,0.006v19.974
	c0,0.553,0.448,1,1,1s1-0.447,1-1V58.342c1.98,0.503,4.018,0.763,6.196,0.763c3.909,0,7.709-0.803,11.385-1.58
	c3.576-0.755,7.272-1.536,10.972-1.536c2.449,0,4.705,0.335,6.896,1.024c0.302,0.094,0.635,0.041,0.892-0.147
	s0.408-0.488,0.408-0.807v-32C69.375,23.623,69.092,23.236,68.676,23.105z M67.375,54.735c-1.979-0.502-4.019-0.747-6.195-0.747
	c-3.909,0-7.71,0.803-11.386,1.58c-3.575,0.755-7.271,1.536-10.971,1.536c-2.189,0-4.225-0.268-6.196-0.817V26.355
	c1.981,0.503,4.021,0.749,6.2,0.749c3.908,0,7.708-0.803,11.382-1.58c3.575-0.755,7.27-1.537,10.969-1.537
	c2.19,0,4.226,0.268,6.197,0.818V54.735z"/>
</svg>
