<?xml version="1.0" encoding="utf-8"?>
<!-- Generator: Adobe Illustrator 16.0.0, SVG Export Plug-In . SVG Version: 6.00 Build 0)  -->
<!DOCTYPE svg PUBLIC "-//W3C//DTD SVG 1.1//EN" "http://www.w3.org/Graphics/SVG/1.1/DTD/svg11.dtd">
<svg version="1.1" id="Layer_1" xmlns="http://www.w3.org/2000/svg" xmlns:xlink="http://www.w3.org/1999/xlink" x="0px" y="0px"
	 width="100px" height="100px" viewBox="0 0 100 100" enable-background="new 0 0 100 100" xml:space="preserve">
<g>
	<circle cx="65.418" cy="62.629" r="1.833"/>
	<circle cx="71.584" cy="62.629" r="1.833"/>
	<path d="M77,52h-7.5V38.026c0-0.021-0.011-0.041-0.013-0.062c-0.005-0.089-0.022-0.175-0.051-0.259
		c-0.011-0.032-0.02-0.063-0.033-0.093c-0.049-0.106-0.11-0.208-0.196-0.293L54.181,22.293c-0.086-0.086-0.187-0.147-0.293-0.196
		c-0.03-0.014-0.063-0.022-0.095-0.034c-0.083-0.028-0.167-0.045-0.255-0.051C53.516,22.011,53.496,22,53.474,22H35.5
		c-0.552,0-1,0.448-1,1v29H27c-0.552,0-1,0.447-1,1v26c0,0.553,0.448,1,1,1h50c0.553,0,1-0.447,1-1V53C78,52.447,77.553,52,77,52z
		 M66.086,37.026H54.474V25.414L66.086,37.026z M36.5,24h15.974v14.026c0,0.552,0.447,1,1,1H67.5V52h-31V24z M76,78H28V54h7.5h33H76
		V78z"/>
	<path d="M68.5,81.5h-33c-0.552,0-1,0.447-1,1s0.448,1,1,1h33c0.553,0,1-0.447,1-1S69.053,81.5,68.5,81.5z"/>
</g>
</svg>
