<?xml version="1.0" encoding="utf-8"?>
<!-- Generator: Adobe Illustrator 16.0.0, SVG Export Plug-In . SVG Version: 6.00 Build 0)  -->
<!DOCTYPE svg PUBLIC "-//W3C//DTD SVG 1.1//EN" "http://www.w3.org/Graphics/SVG/1.1/DTD/svg11.dtd">
<svg version="1.1" id="Layer_1" xmlns="http://www.w3.org/2000/svg" xmlns:xlink="http://www.w3.org/1999/xlink" x="0px" y="0px"
	 width="100px" height="100px" viewBox="0 0 100 100" enable-background="new 0 0 100 100" xml:space="preserve">
<g>
	<path d="M49.5,76c-14.336,0-26-11.663-26-26c0-14.336,11.664-26,26-26c14.337,0,26,11.664,26,26C75.5,64.337,63.837,76,49.5,76z
		 M49.5,26c-13.233,0-24,10.767-24,24s10.767,24,24,24s24-10.767,24-24S62.733,26,49.5,26z"/>
</g>
<path d="M56.058,39.741c-0.428-0.224-0.909-0.342-1.393-0.342c-0.612,0-1.202,0.184-1.705,0.531l-4.563,3.152h-4.064
	c-1.654,0-3,1.346-3,3v7.198c0,1.654,1.346,3,3,3h4.294l4.056,3.572c0.549,0.482,1.254,0.748,1.984,0.748
	c0.417,0,0.84-0.09,1.223-0.261c1.084-0.488,1.777-1.562,1.777-2.738V42.399C57.667,41.279,57.051,40.262,56.058,39.741z
	 M55.667,57.603c0,0.394-0.23,0.749-0.59,0.911c-0.132,0.059-0.272,0.088-0.41,0.088c-0.24,0-0.476-0.085-0.662-0.249l-4.623-4.071
	h-5.05c-0.553,0-1-0.447-1-1v-7.198c0-0.552,0.447-1,1-1h4.688l5.078-3.508c0.169-0.117,0.367-0.176,0.566-0.176
	c0.159,0,0.319,0.038,0.465,0.114c0.33,0.173,0.537,0.514,0.537,0.886V57.603z"/>
</svg>
