<?xml version="1.0" encoding="utf-8"?>
<!-- Generator: Adobe Illustrator 16.0.0, SVG Export Plug-In . SVG Version: 6.00 Build 0)  -->
<!DOCTYPE svg PUBLIC "-//W3C//DTD SVG 1.1//EN" "http://www.w3.org/Graphics/SVG/1.1/DTD/svg11.dtd">
<svg version="1.1" id="Layer_1" xmlns="http://www.w3.org/2000/svg" xmlns:xlink="http://www.w3.org/1999/xlink" x="0px" y="0px"
	 width="100px" height="100px" viewBox="0 0 100 100" enable-background="new 0 0 100 100" xml:space="preserve">
<path d="M75.294,36.291c0-5.339-4.344-9.684-9.684-9.684H33.984c-5.116,0-9.279,4.333-9.279,9.66c0,4.955,3.604,9.046,8.225,9.593
	c1.017,7.749,7.247,13.876,15.05,14.707c-2.174,4.752-5.648,10.392-7.915,10.392c-0.671,0-1.216,0.545-1.216,1.217
	s0.545,1.217,1.216,1.217h19.463c0.672,0,1.216-0.545,1.216-1.217s-0.544-1.217-1.216-1.217c-2.267,0-5.74-5.64-7.915-10.392
	c7.785-0.829,14.003-6.93,15.042-14.651C71.505,45.393,75.294,41.277,75.294,36.291z M27.138,36.268
	c0-3.546,2.434-6.498,5.629-7.106v14.212C29.572,42.765,27.138,39.813,27.138,36.268z M44.406,70.959
	c2.246-2.375,4.19-5.991,5.391-8.52c1.201,2.528,3.145,6.145,5.391,8.52H44.406z M64.394,43.637c0,8.048-6.548,14.597-14.597,14.597
	c-8.048,0-14.596-6.549-14.596-14.597V29.04h29.193V43.637z M66.826,43.432V29.151c3.42,0.581,6.035,3.557,6.035,7.14
	C72.861,39.875,70.246,42.851,66.826,43.432z"/>
</svg>
