<?xml version="1.0" encoding="utf-8"?>
<!-- Generator: Adobe Illustrator 16.0.0, SVG Export Plug-In . SVG Version: 6.00 Build 0)  -->
<!DOCTYPE svg PUBLIC "-//W3C//DTD SVG 1.1//EN" "http://www.w3.org/Graphics/SVG/1.1/DTD/svg11.dtd">
<svg version="1.1" id="Layer_1" xmlns="http://www.w3.org/2000/svg" xmlns:xlink="http://www.w3.org/1999/xlink" x="0px" y="0px"
	 width="100px" height="100px" viewBox="0 0 100 100" enable-background="new 0 0 100 100" xml:space="preserve">
<path d="M50,24c-10.431,0-18.917,5.37-18.917,11.971v31.976c0,6.602,8.486,11.973,18.917,11.973s18.917-5.371,18.917-11.973V35.971
	C68.917,29.37,60.431,24,50,24z M50,26c9.328,0,16.917,4.473,16.917,9.971c0,5.499-7.589,9.972-16.917,9.972
	c-9.328,0-16.917-4.474-16.917-9.972C33.083,30.473,40.672,26,50,26z M66.917,67.947c0,5.499-7.589,9.973-16.917,9.973
	c-9.328,0-16.917-4.474-16.917-9.973v-5.646c3.104,3.933,9.511,6.646,16.917,6.646s13.813-2.714,16.917-6.646V67.947z
	 M66.917,56.975c0,5.499-7.589,9.973-16.917,9.973c-9.328,0-16.917-4.474-16.917-9.973v-5.646c3.104,3.933,9.511,6.646,16.917,6.646
	s13.813-2.714,16.917-6.646V56.975z M66.917,46.002c0,5.499-7.589,9.972-16.917,9.972c-9.328,0-16.917-4.474-16.917-9.972v-4.705
	c3.104,3.933,9.511,6.646,16.917,6.646s13.813-2.713,16.917-6.646V46.002z"/>
</svg>
