<?xml version="1.0" encoding="utf-8"?>
<!-- Generator: Adobe Illustrator 16.0.0, SVG Export Plug-In . SVG Version: 6.00 Build 0)  -->
<!DOCTYPE svg PUBLIC "-//W3C//DTD SVG 1.1//EN" "http://www.w3.org/Graphics/SVG/1.1/DTD/svg11.dtd">
<svg version="1.1" id="Layer_1" xmlns="http://www.w3.org/2000/svg" xmlns:xlink="http://www.w3.org/1999/xlink" x="0px" y="0px"
	 width="100px" height="100px" viewBox="0 0 100 100" enable-background="new 0 0 100 100" xml:space="preserve">
<path d="M73.468,32.596H59.831c-0.483-3.1-3.164-5.482-6.397-5.482h-6.868c-3.233,0-5.913,2.382-6.397,5.482H26.531
	c-0.553,0-1,0.448-1,1v19.146v19.146c0,0.553,0.447,1,1,1h46.937c0.553,0,1-0.447,1-1V52.741V33.596
	C74.468,33.043,74.021,32.596,73.468,32.596z M46.565,29.114h6.868c2.128,0,3.914,1.49,4.37,3.482H42.195
	C42.65,30.604,44.438,29.114,46.565,29.114z M27.531,34.596h13.552h17.833h13.552v17.146H53.333V50.76c0-0.553-0.447-1-1-1h-4.667
	c-0.553,0-1,0.447-1,1v0.981H27.531V34.596z M48.666,52.741V51.76h2.667v0.981v2.521h-2.667V52.741z M72.468,70.887H27.531V53.741
	h19.135v2.521c0,0.553,0.447,1,1,1h4.667c0.553,0,1-0.447,1-1v-2.521h19.135V70.887z"/>
</svg>
