<?xml version="1.0" encoding="utf-8"?>
<!-- Generator: Adobe Illustrator 16.0.0, SVG Export Plug-In . SVG Version: 6.00 Build 0)  -->
<!DOCTYPE svg PUBLIC "-//W3C//DTD SVG 1.1//EN" "http://www.w3.org/Graphics/SVG/1.1/DTD/svg11.dtd">
<svg version="1.1" id="Layer_1" xmlns="http://www.w3.org/2000/svg" xmlns:xlink="http://www.w3.org/1999/xlink" x="0px" y="0px"
	 width="100px" height="100px" viewBox="0 0 100 100" enable-background="new 0 0 100 100" xml:space="preserve">
<g>
	<path d="M66.124,21.667H33.875c-0.552,0-1,0.448-1,1v59.667c0,0.553,0.448,1,1,1h32.249c0.553,0,1-0.447,1-1V22.667
		C67.124,22.114,66.677,21.667,66.124,21.667z M65.124,81.334H34.875V23.667h30.249V81.334z"/>
	<path d="M46.25,28.333h7.5c0.553,0,1-0.448,1-1s-0.447-1-1-1h-7.5c-0.552,0-1,0.448-1,1S45.697,28.333,46.25,28.333z"/>
	<path d="M41.9,28.333h0.2c0.552,0,1-0.448,1-1s-0.448-1-1-1h-0.2c-0.552,0-1,0.448-1,1S41.348,28.333,41.9,28.333z"/>
	<path d="M49.999,71.436c-2.206,0-4,1.794-4,4s1.794,4,4,4c2.206,0,4-1.794,4-4S52.205,71.436,49.999,71.436z M49.999,77.436
		c-1.103,0-2-0.897-2-2s0.897-2,2-2c1.103,0,2,0.897,2,2S51.102,77.436,49.999,77.436z"/>
	<path d="M36.5,70.667h27.167c0.553,0,1-0.447,1-1v-38c0-0.552-0.447-1-1-1H36.5c-0.552,0-1,0.448-1,1v38
		C35.5,70.22,35.948,70.667,36.5,70.667z M37.5,32.667h25.167v36H37.5V32.667z"/>
</g>
</svg>
