<?xml version="1.0" encoding="utf-8"?>
<!-- Generator: Adobe Illustrator 16.0.4, SVG Export Plug-In . SVG Version: 6.00 Build 0)  -->
<!DOCTYPE svg PUBLIC "-//W3C//DTD SVG 1.1//EN" "http://www.w3.org/Graphics/SVG/1.1/DTD/svg11.dtd">
<svg version="1.1" id="Layer_1" xmlns="http://www.w3.org/2000/svg" xmlns:xlink="http://www.w3.org/1999/xlink" x="0px" y="0px"
	 width="100px" height="100px" viewBox="0 0 100 100" enable-background="new 0 0 100 100" xml:space="preserve">
<g>
	<path d="M69.611,31.5h-9.834v-5c0-0.552-0.447-1-1-1H41.223c-0.552,0-1,0.448-1,1v5h-9.612c-0.552,0-1,0.448-1,1v44.835
		c0,0.554,0.448,1,1,1h39c0.553,0,1-0.446,1-1V32.5C70.611,31.948,70.164,31.5,69.611,31.5z M42.223,27.5h15.554v4H42.223V27.5z
		 M68.611,76.335h-37v-38.46h37V76.335z M68.611,35.875h-37V33.5h9.611h17.554h9.834V35.875z"/>
	<path d="M58.777,73.23c0.553,0,1-0.447,1-1v-30c0-0.552-0.447-1-1-1s-1,0.448-1,1v30C57.777,72.783,58.225,73.23,58.777,73.23z"/>
	<path d="M41.223,73.23c0.552,0,1-0.447,1-1v-30c0-0.552-0.448-1-1-1c-0.552,0-1,0.448-1,1v30
		C40.223,72.783,40.671,73.23,41.223,73.23z"/>
	<path d="M50,73.23c0.553,0,1-0.447,1-1v-30c0-0.552-0.447-1-1-1c-0.552,0-1,0.448-1,1v30C49,72.783,49.448,73.23,50,73.23z"/>
</g>
</svg>
