<?xml version="1.0" encoding="utf-8"?>
<!-- Generator: Adobe Illustrator 16.0.0, SVG Export Plug-In . SVG Version: 6.00 Build 0)  -->
<!DOCTYPE svg PUBLIC "-//W3C//DTD SVG 1.1//EN" "http://www.w3.org/Graphics/SVG/1.1/DTD/svg11.dtd">
<svg version="1.1" id="Layer_1" xmlns="http://www.w3.org/2000/svg" xmlns:xlink="http://www.w3.org/1999/xlink" x="0px" y="0px"
	 width="100px" height="100px" viewBox="0 0 100 100" enable-background="new 0 0 100 100" xml:space="preserve">
<path d="M75.994,48.596h0.005c0-1.762-0.69-3.363-1.812-4.557l0.002-0.002l-9.752-12.526H36.38l-9.471,12.78l0.004,0.004
	c-0.896,1.06-1.447,2.407-1.542,3.877c-0.071,0.138-0.122,0.287-0.122,0.453V65.25c0,0.553,0.448,1,1,1H75c0.553,0,1-0.447,1-1
	V48.625C76,48.615,75.994,48.606,75.994,48.596z M37.286,33.511h26.276l5.953,8.427c-0.063-0.002-0.123-0.01-0.187-0.01H57.333
	v2.998c0,3.404-3.574,2.668-4.67,2.668h-3.994c-1.096,0-4.67,0.736-4.67-2.668v-2.998H32.003c-0.125,0-0.247,0.012-0.371,0.018
	L37.286,33.511z M74,64.25H27.25V48.625c0-0.01-0.005-0.019-0.006-0.029h0.089c0-2.574,2.095-4.668,4.67-4.668h9.996v0.998
	c0,3.443,2.618,4.668,6.67,4.668h3.994c4.053,0,6.67-1.225,6.67-4.668v-0.998h9.997c1.287,0,2.454,0.523,3.3,1.368l0.002,0.002
	c0.845,0.845,1.367,2.011,1.367,3.298h0.007c0,0.01-0.006,0.019-0.006,0.029V64.25z"/>
</svg>
