<?xml version="1.0" encoding="utf-8"?>
<!-- Generator: Adobe Illustrator 16.0.0, SVG Export Plug-In . SVG Version: 6.00 Build 0)  -->
<!DOCTYPE svg PUBLIC "-//W3C//DTD SVG 1.1//EN" "http://www.w3.org/Graphics/SVG/1.1/DTD/svg11.dtd">
<svg version="1.1" id="Layer_1" xmlns="http://www.w3.org/2000/svg" xmlns:xlink="http://www.w3.org/1999/xlink" x="0px" y="0px"
	 width="100px" height="100px" viewBox="0 0 100 100" enable-background="new 0 0 100 100" xml:space="preserve">
<path d="M80.097,32.715l-19.842-7c-0.03-0.011-0.061-0.013-0.091-0.021c-0.042-0.011-0.082-0.023-0.124-0.028
	c-0.04-0.005-0.079-0.002-0.118-0.002s-0.078-0.002-0.118,0.002c-0.042,0.005-0.083,0.018-0.124,0.028
	c-0.03,0.008-0.062,0.01-0.091,0.021l-19.51,6.883l-19.51-6.883c-0.306-0.109-0.645-0.061-0.91,0.126s-0.422,0.492-0.422,0.816
	v39.685c0,0.424,0.268,0.802,0.667,0.943l19.843,7c0.005,0.002,0.011,0.001,0.017,0.003c0.102,0.034,0.208,0.054,0.316,0.054
	s0.214-0.02,0.316-0.054c0.005-0.002,0.011-0.001,0.017-0.003l19.511-6.883l19.509,6.883c0.108,0.038,0.221,0.057,0.333,0.057
	c0.204,0,0.406-0.063,0.577-0.184c0.266-0.188,0.423-0.492,0.423-0.816V33.658C80.764,33.234,80.496,32.856,80.097,32.715z
	 M21.236,28.071l17.843,6.294V71.93l-17.843-6.295V28.071z M41.079,34.365l17.843-6.294v37.564L41.079,71.93V34.365z M78.764,71.93
	l-17.842-6.295V28.071l17.842,6.294V71.93z"/>
</svg>
