<?xml version="1.0" encoding="utf-8"?>
<!-- Generator: Adobe Illustrator 16.0.0, SVG Export Plug-In . SVG Version: 6.00 Build 0)  -->
<!DOCTYPE svg PUBLIC "-//W3C//DTD SVG 1.1//EN" "http://www.w3.org/Graphics/SVG/1.1/DTD/svg11.dtd">
<svg version="1.1" id="Layer_1" xmlns="http://www.w3.org/2000/svg" xmlns:xlink="http://www.w3.org/1999/xlink" x="0px" y="0px"
	 width="100px" height="100px" viewBox="0 0 100 100" enable-background="new 0 0 100 100" xml:space="preserve">
<g>
	<path d="M73.317,34.623l-7.973-9.972c-0.391-0.391-1.022-0.391-1.414,0c-0.391,0.391-0.391,1.024,0,1.415l6.369,8.369H33.91
		c-0.001,0-0.001,0-0.002,0h-6.5c-0.552,0-1,0.448-1,1v11.077c0,0.552,0.448,1,1,1s1-0.448,1-1V36.434h4.607v0h37.076l-6.369,8.37
		c-0.391,0.391-0.391,1.022,0,1.414c0.195,0.195,0.451,0.293,0.707,0.293s0.513-0.098,0.707-0.293l8.182-10.181
		C73.708,35.646,73.708,35.014,73.317,34.623z"/>
	<path d="M26.683,65.378l7.973,9.973c0.391,0.391,1.022,0.391,1.414,0c0.391-0.392,0.391-1.024,0-1.416l-6.369-8.369h36.39
		c0.001,0,0.001,0.001,0.002,0.001h6.5c0.553,0,1-0.448,1-1V53.489c0-0.553-0.447-1-1-1c-0.552,0-1,0.447-1,1v10.077h-4.607v-0.001
		H29.91l6.369-8.369c0.391-0.391,0.391-1.023,0-1.414c-0.195-0.195-0.451-0.293-0.707-0.293s-0.513,0.098-0.707,0.293l-8.182,10.181
		C26.292,64.354,26.292,64.987,26.683,65.378z"/>
</g>
</svg>
