<?xml version="1.0" encoding="utf-8"?>
<!-- Generator: Adobe Illustrator 16.0.0, SVG Export Plug-In . SVG Version: 6.00 Build 0)  -->
<!DOCTYPE svg PUBLIC "-//W3C//DTD SVG 1.1//EN" "http://www.w3.org/Graphics/SVG/1.1/DTD/svg11.dtd">
<svg version="1.1" id="Layer_1" xmlns="http://www.w3.org/2000/svg" xmlns:xlink="http://www.w3.org/1999/xlink" x="0px" y="0px"
	 width="100px" height="100px" viewBox="0 0 100 100" enable-background="new 0 0 100 100" xml:space="preserve">
<g>
	<path d="M47.519,60.392l-6.845,6.845c-1.056,1.056-2.46,1.638-3.954,1.638h0c-1.494,0-2.898-0.582-3.955-1.639
		c-1.056-1.057-1.638-2.461-1.638-3.954c0-1.494,0.582-2.898,1.638-3.955l13.619-13.619c1.057-1.056,2.461-1.638,3.956-1.638
		c1.494,0,2.898,0.582,3.955,1.638c0.391,0.391,1.023,0.391,1.414,0c0.391-0.39,0.391-1.023,0-1.414
		c-1.434-1.434-3.341-2.224-5.369-2.224c-2.028,0-3.935,0.79-5.369,2.224L31.35,57.912c-1.434,1.434-2.224,3.341-2.224,5.368
		c0,2.028,0.79,3.936,2.224,5.369c1.434,1.435,3.341,2.225,5.369,2.225c0,0,0,0,0,0c2.028,0,3.935-0.79,5.368-2.224l6.845-6.845
		c0.391-0.391,0.391-1.023,0-1.414S47.909,60.001,47.519,60.392z"/>
	<path d="M68.65,31.35c-2.961-2.961-7.779-2.96-10.738,0l-6.844,6.844c-0.391,0.391-0.391,1.023,0,1.414s1.023,0.391,1.414,0
		l6.844-6.844c2.181-2.18,5.728-2.181,7.91,0c1.057,1.056,1.638,2.461,1.638,3.955s-0.581,2.898-1.638,3.955l-13.619,13.62
		c-2.18,2.18-5.728,2.181-7.909-0.001c-0.391-0.391-1.023-0.391-1.414,0s-0.391,1.023,0,1.414c1.48,1.48,3.425,2.221,5.369,2.221
		c1.944,0,3.888-0.74,5.368-2.22l13.619-13.62c1.434-1.434,2.224-3.34,2.224-5.368C70.875,34.691,70.085,32.784,68.65,31.35z"/>
</g>
</svg>
