<?xml version="1.0" encoding="utf-8"?>
<!-- Generator: Adobe Illustrator 16.0.0, SVG Export Plug-In . SVG Version: 6.00 Build 0)  -->
<!DOCTYPE svg PUBLIC "-//W3C//DTD SVG 1.1//EN" "http://www.w3.org/Graphics/SVG/1.1/DTD/svg11.dtd">
<svg version="1.1" id="Layer_1" xmlns="http://www.w3.org/2000/svg" xmlns:xlink="http://www.w3.org/1999/xlink" x="0px" y="0px"
	 width="100px" height="100px" viewBox="0 0 100 100" enable-background="new 0 0 100 100" xml:space="preserve">
<path d="M68.75,36.5c-7.444,0-13.5,6.056-13.5,13.5c0,4.865,2.595,9.124,6.465,11.5h-23.43c3.87-2.376,6.465-6.635,6.465-11.5
	c0-7.444-6.056-13.5-13.5-13.5s-13.5,6.056-13.5,13.5s6.056,13.5,13.5,13.5h37.5c7.444,0,13.5-6.056,13.5-13.5
	S76.194,36.5,68.75,36.5z M19.75,50c0-6.341,5.159-11.5,11.5-11.5s11.5,5.159,11.5,11.5s-5.159,11.5-11.5,11.5
	S19.75,56.341,19.75,50z M68.75,61.5c-6.341,0-11.5-5.159-11.5-11.5s5.159-11.5,11.5-11.5s11.5,5.159,11.5,11.5
	S75.091,61.5,68.75,61.5z"/>
</svg>
