<?xml version="1.0" encoding="utf-8"?>
<!-- Generator: Adobe Illustrator 16.0.0, SVG Export Plug-In . SVG Version: 6.00 Build 0)  -->
<!DOCTYPE svg PUBLIC "-//W3C//DTD SVG 1.1//EN" "http://www.w3.org/Graphics/SVG/1.1/DTD/svg11.dtd">
<svg version="1.1" id="Layer_1" xmlns="http://www.w3.org/2000/svg" xmlns:xlink="http://www.w3.org/1999/xlink" x="0px" y="0px"
	 width="100px" height="100px" viewBox="0 0 100 100" enable-background="new 0 0 100 100" xml:space="preserve">
<path d="M75,20.833H63.917c-0.553,0-1,0.448-1,1v30.602c0,7.123-5.795,12.918-12.917,12.918c-7.123,0-12.917-5.795-12.917-12.918
	V21.833c0-0.552-0.448-1-1-1H25c-0.552,0-1,0.448-1,1v31.333c0,14.338,11.664,26,26,26c14.337,0,26-11.662,26-26V21.833
	C76,21.281,75.553,20.833,75,20.833z M64.917,32H74v1h-9.083V32z M74,22.833V30h-9.083v-7.167H74z M35.083,30H26v-7.167h9.083V30z
	 M26,32h9.083v1H26V32z M50,77.166c-13.233,0-24-10.766-24-24V35h9.083v17.436c0,8.225,6.692,14.918,14.917,14.918
	c8.226,0,14.917-6.693,14.917-14.918V35H74v18.166C74,66.4,63.233,77.166,50,77.166z"/>
</svg>
