<?xml version="1.0" encoding="utf-8"?>
<!-- Generator: Adobe Illustrator 16.0.0, SVG Export Plug-In . SVG Version: 6.00 Build 0)  -->
<!DOCTYPE svg PUBLIC "-//W3C//DTD SVG 1.1//EN" "http://www.w3.org/Graphics/SVG/1.1/DTD/svg11.dtd">
<svg version="1.1" id="Layer_1" xmlns="http://www.w3.org/2000/svg" xmlns:xlink="http://www.w3.org/1999/xlink" x="0px" y="0px"
	 width="100px" height="100px" viewBox="0 0 100 100" enable-background="new 0 0 100 100" xml:space="preserve">
<path d="M54.439,73.283l19.268-45.314c0.16-0.375,0.075-0.81-0.213-1.098c-0.001-0.001-0.002-0.002-0.003-0.002
	c-0.042-0.171-0.123-0.333-0.252-0.463c-0.001-0.001-0.003-0.003-0.004-0.005c-0.289-0.288-0.724-0.373-1.099-0.213L26.823,45.456
	c-0.508,0.216-0.745,0.803-0.529,1.312c0.052,0.121,0.125,0.227,0.213,0.315c0.083,0.083,0.182,0.144,0.287,0.193
	c0.047,0.099,0.103,0.196,0.185,0.279l8.85,8.85L35,63.526c-0.001,0.01,0.004,0.018,0.003,0.027c-0.23,0.41-0.188,0.933,0.162,1.281
	c0.291,0.292,0.706,0.368,1.074,0.256c0.045,0,0.084,0.021,0.129,0.015l7.123-0.827l8.849,8.85c0.083,0.082,0.18,0.138,0.279,0.185
	c0.048,0.104,0.109,0.204,0.192,0.286c0.089,0.089,0.194,0.162,0.315,0.214C53.635,74.027,54.223,73.791,54.439,73.283z
	 M36.952,54.7l-7.983-7.984l38.366-16.314L36.952,54.7z M58.79,39.796L37.271,61.314l0.552-4.752L58.79,39.796z M38.58,62.834
	l21.518-21.517L43.331,62.282L38.58,62.834z M45.195,63.154l24.297-30.383L53.178,71.138L45.195,63.154z"/>
</svg>
