<?xml version="1.0" encoding="utf-8"?>
<!-- Generator: Adobe Illustrator 16.0.0, SVG Export Plug-In . SVG Version: 6.00 Build 0)  -->
<!DOCTYPE svg PUBLIC "-//W3C//DTD SVG 1.1//EN" "http://www.w3.org/Graphics/SVG/1.1/DTD/svg11.dtd">
<svg version="1.1" id="Layer_1" xmlns="http://www.w3.org/2000/svg" xmlns:xlink="http://www.w3.org/1999/xlink" x="0px" y="0px"
	 width="100px" height="100px" viewBox="0 0 100 100" enable-background="new 0 0 100 100" xml:space="preserve">
<g>
	<path d="M72.834,49.857H72V37.375c0-0.552-0.447-1-1-1h-1.834v-9.5c0-0.552-0.447-1-1-1h-35.75c-3.446,0-6.25,2.804-6.25,6.25
		c0,0.038,0.005,0.074,0.006,0.112c0,0.01-0.006,0.019-0.006,0.028v35.61c0,3.446,2.804,6.25,6.25,6.25H71c0.553,0,1-0.447,1-1
		V60.992h0.834c0.553,0,1-0.447,1-1v-9.135C73.834,50.305,73.387,49.857,72.834,49.857z M71.834,58.992H71H60.188l-2.324-3.333
		l2.359-3.802H71h0.834V58.992z M32.416,27.875h34.75v8.5h-34.75c-2.343,0-4.25-1.907-4.25-4.25S30.073,27.875,32.416,27.875z
		 M70,72.125H32.416c-2.343,0-4.25-1.906-4.25-4.25V36.852c0.782,0.721,1.758,1.247,2.862,1.499
		c0.073,0.017,0.147,0.025,0.222,0.025h1.166h35.75H70v11.482H59.667c-0.346,0-0.667,0.179-0.85,0.473l-3,4.834
		c-0.211,0.34-0.199,0.771,0.029,1.1l3,4.301c0.188,0.268,0.493,0.428,0.82,0.428H70V72.125z"/>
	<path d="M62.333,52.758c-1.471,0-2.667,1.197-2.667,2.668c0,1.47,1.196,2.666,2.667,2.666S65,56.896,65,55.426
		C65,53.955,63.804,52.758,62.333,52.758z M62.333,56.092c-0.368,0-0.667-0.299-0.667-0.666c0-0.368,0.299-0.668,0.667-0.668
		S63,55.058,63,55.426C63,55.793,62.701,56.092,62.333,56.092z"/>
</g>
</svg>
