<?xml version="1.0" encoding="utf-8"?>
<!-- Generator: Adobe Illustrator 16.0.0, SVG Export Plug-In . SVG Version: 6.00 Build 0)  -->
<!DOCTYPE svg PUBLIC "-//W3C//DTD SVG 1.1//EN" "http://www.w3.org/Graphics/SVG/1.1/DTD/svg11.dtd">
<svg version="1.1" id="Layer_1" xmlns="http://www.w3.org/2000/svg" xmlns:xlink="http://www.w3.org/1999/xlink" x="0px" y="0px"
	 width="100px" height="100px" viewBox="0 0 100 100" enable-background="new 0 0 100 100" xml:space="preserve">
<g>
	<path d="M35.646,44.03c1.504,0,3.034-0.369,4.467-1.073l10.889,10.888l5.315-5.316L45.43,37.642
		c1.775-3.602,1.346-7.572-1.154-10.072c-2.273-2.274-6.021-2.84-9.411-1.445l-1.388,0.571l3.85,3.85l-0.911,3.399l-3.399,0.911
		l-3.85-3.85l-0.571,1.388c-1.432,3.482-0.878,7.088,1.445,9.411C31.477,43.239,33.467,44.03,35.646,44.03z M29.982,34.648
		l2.438,2.438l5.629-1.509l1.508-5.629l-2.434-2.434c2.232-0.467,4.341,0.073,5.738,1.47c2.008,2.009,2.198,5.36,0.471,8.339
		l-0.385,0.665l10.541,10.541l-2.487,2.488L40.459,40.475l-0.665,0.385c-1.32,0.765-2.754,1.169-4.148,1.169
		c-1.668,0-3.117-0.567-4.189-1.64C30.033,38.967,29.515,36.857,29.982,34.648z"/>
	<path d="M79.467,63.025c-1.436-1.435-3.425-2.225-5.604-2.225c-1.504,0-3.033,0.369-4.467,1.072L58.508,50.985l-5.315,5.316
		L64.08,67.188c-1.775,3.603-1.346,7.572,1.153,10.072c1.433,1.433,3.42,2.222,5.597,2.222c1.277,0,2.56-0.262,3.813-0.777
		l1.387-0.571l-3.849-3.849l0.911-3.398l3.399-0.912l3.849,3.851l0.571-1.388C82.345,68.956,81.791,65.35,79.467,63.025z
		 M79.527,70.182l-2.438-2.438l-5.63,1.51l-1.509,5.629l2.436,2.437c-0.52,0.108-1.039,0.163-1.557,0.163
		c-1.666,0-3.112-0.565-4.183-1.636c-2.008-2.009-2.197-5.36-0.471-8.339l0.386-0.666l-10.542-10.54l2.487-2.488l10.543,10.542
		l0.665-0.386c1.319-0.765,2.753-1.169,4.147-1.169c1.668,0,3.117,0.566,4.189,1.639C79.476,65.863,79.995,67.974,79.527,70.182z"/>
	<path d="M69.162,39.241l1.365,1.365l8.753-8.754l-4.294-4.293l-8.753,8.753l1.515,1.515L42.459,63.115l-1.182-1.181L26.444,76.769
		l3.738,3.736l14.834-14.834l-1.142-1.142L69.162,39.241z M74.986,30.387l1.466,1.465l-5.925,5.926l-1.466-1.466L74.986,30.387z
		 M30.182,77.677l-0.909-0.908l12.006-12.006l0.909,0.908L30.182,77.677z"/>
</g>
</svg>
